<?xml version="1.0" encoding="utf-8"?>
<!-- Generator: Adobe Illustrator 16.0.0, SVG Export Plug-In . SVG Version: 6.00 Build 0)  -->
<!DOCTYPE svg PUBLIC "-//W3C//DTD SVG 1.1//EN" "http://www.w3.org/Graphics/SVG/1.1/DTD/svg11.dtd">
<svg version="1.1" id="Calque_1" xmlns="http://www.w3.org/2000/svg" xmlns:xlink="http://www.w3.org/1999/xlink" x="0px" y="0px"
	 width="356px" height="202px" viewBox="45.5 107.5 356 202" enable-background="new 45.5 107.5 356 202" xml:space="preserve">
<path fill="#7D1320" d="M91.674,119.764l-24.165,26.511l-0.096,116.774l26.082,25.563h297.918V119.764H91.674z M343.863,130.427
	c1.717,0,3.108,1.467,3.108,3.274c0,1.809-1.393,3.273-3.108,3.273s-3.107-1.466-3.107-3.273S342.147,130.427,343.863,130.427z
	 M331.9,130.427c1.717,0,3.107,1.467,3.107,3.274c0,1.809-1.392,3.273-3.107,3.273s-3.107-1.466-3.107-3.273
	S330.185,130.427,331.9,130.427z M320.825,130.427c1.717,0,3.108,1.467,3.108,3.274c0,1.809-1.393,3.273-3.108,3.273
	s-3.108-1.466-3.108-3.273S319.108,130.427,320.825,130.427z M309.713,130.427c1.717,0,3.107,1.467,3.107,3.274
	c0,1.809-1.392,3.273-3.107,3.273c-1.717,0-3.107-1.466-3.107-3.273C306.604,131.894,307.996,130.427,309.713,130.427z
	 M297.984,130.427c1.716,0,3.106,1.467,3.106,3.274c0,1.809-1.392,3.273-3.106,3.273c-1.717,0-3.108-1.466-3.108-3.273
	S296.268,130.427,297.984,130.427z M262.158,130.427c1.717,0,3.108,1.467,3.108,3.274c0,1.809-1.393,3.273-3.108,3.273
	s-3.108-1.466-3.108-3.273S260.441,130.427,262.158,130.427z M250.43,130.427c1.717,0,3.107,1.467,3.107,3.274
	c0,1.809-1.392,3.273-3.107,3.273c-1.717,0-3.107-1.466-3.107-3.273C247.322,131.894,248.714,130.427,250.43,130.427z
	 M238.467,130.427c1.718,0,3.108,1.467,3.108,3.274c0,1.809-1.392,3.273-3.108,3.273c-1.716,0-3.107-1.466-3.107-3.273
	C235.358,131.894,236.75,130.427,238.467,130.427z M227.392,130.427c1.717,0,3.107,1.467,3.107,3.274
	c0,1.809-1.392,3.273-3.107,3.273c-1.717,0-3.107-1.466-3.107-3.273C224.284,131.894,225.675,130.427,227.392,130.427z
	 M216.279,130.427c1.717,0,3.107,1.467,3.107,3.274c0,1.809-1.392,3.273-3.107,3.273s-3.108-1.466-3.108-3.273
	S214.563,130.427,216.279,130.427z M204.55,130.427c1.718,0,3.108,1.467,3.108,3.274c0,1.809-1.391,3.273-3.108,3.273
	c-1.716,0-3.107-1.466-3.107-3.273S202.834,130.427,204.55,130.427z M192.587,130.427c1.717,0,3.108,1.467,3.108,3.274
	c0,1.809-1.392,3.273-3.108,3.273c-1.716,0-3.107-1.466-3.107-3.273S190.871,130.427,192.587,130.427z M179.264,130.427
	c1.716,0,3.107,1.467,3.107,3.274c0,1.809-1.392,3.273-3.107,3.273c-1.718,0-3.108-1.466-3.108-3.273
	C176.155,131.894,177.547,130.427,179.264,130.427z M168.15,130.427c1.717,0,3.107,1.467,3.107,3.274
	c0,1.809-1.392,3.273-3.107,3.273s-3.108-1.466-3.108-3.273S166.434,130.427,168.15,130.427z M156.422,130.427
	c1.718,0,3.108,1.467,3.108,3.274c0,1.809-1.392,3.273-3.108,3.273c-1.716,0-3.106-1.466-3.106-3.273
	C153.314,131.894,154.706,130.427,156.422,130.427z M144.459,130.427c1.717,0,3.108,1.467,3.108,3.274
	c0,1.809-1.393,3.273-3.108,3.273s-3.107-1.466-3.107-3.273S142.743,130.427,144.459,130.427z M133.384,130.427
	c1.718,0,3.108,1.467,3.108,3.274c0,1.809-1.392,3.273-3.108,3.273c-1.716,0-3.107-1.466-3.107-3.273
	S131.667,130.427,133.384,130.427z M122.271,130.427c1.717,0,3.107,1.467,3.107,3.274c0,1.809-1.391,3.273-3.107,3.273
	c-1.716,0-3.108-1.466-3.108-3.273S120.555,130.427,122.271,130.427z M87.329,137.65c1.716,0,3.108,1.467,3.108,3.274
	s-1.393,3.273-3.108,3.273c-1.717,0-3.107-1.467-3.107-3.273C84.221,139.116,85.612,137.65,87.329,137.65z M78.856,257.543
	c-1.717,0-3.108-1.467-3.108-3.275c0-1.808,1.393-3.272,3.108-3.272s3.107,1.465,3.107,3.272
	C81.964,256.076,80.573,257.543,78.856,257.543z M78.856,243.209c-1.717,0-3.108-1.465-3.108-3.273c0-1.808,1.393-3.274,3.108-3.274
	s3.107,1.467,3.107,3.274C81.964,241.744,80.573,243.209,78.856,243.209z M78.856,230.73c-1.717,0-3.108-1.467-3.108-3.272
	c0-1.81,1.393-3.275,3.108-3.275s3.107,1.467,3.107,3.275C81.964,229.264,80.573,230.73,78.856,230.73z M78.856,218.252
	c-1.717,0-3.108-1.467-3.108-3.276c0-1.809,1.393-3.272,3.108-3.272s3.107,1.465,3.107,3.272
	C81.964,216.784,80.573,218.252,78.856,218.252z M78.856,205.771c-1.717,0-3.108-1.465-3.108-3.272c0-1.809,1.393-3.274,3.108-3.274
	s3.107,1.466,3.107,3.274C81.964,204.306,80.573,205.771,78.856,205.771z M78.856,193.292c-1.717,0-3.108-1.466-3.108-3.273
	c0-1.809,1.393-3.274,3.108-3.274s3.107,1.467,3.107,3.274C81.964,191.827,80.573,193.292,78.856,193.292z M78.856,180.814
	c-1.717,0-3.108-1.467-3.108-3.274c0-1.809,1.393-3.273,3.108-3.273s3.107,1.466,3.107,3.273S80.573,180.814,78.856,180.814z
	 M78.856,168.334c-1.717,0-3.108-1.466-3.108-3.274c0-1.808,1.393-3.272,3.108-3.272s3.107,1.465,3.107,3.272
	C81.964,166.868,80.573,168.334,78.856,168.334z M78.856,154.228c-1.717,0-3.108-1.465-3.108-3.272c0-1.809,1.393-3.273,3.108-3.273
	s3.107,1.465,3.107,3.273C81.964,152.763,80.573,154.228,78.856,154.228z M86.156,268.861c-1.717,0-3.108-1.465-3.108-3.272
	c0-1.809,1.393-3.273,3.108-3.273s3.108,1.465,3.108,3.273C89.264,267.396,87.873,268.861,86.156,268.861z M96.685,277.387
	c-1.716,0-3.108-1.465-3.108-3.273c0-1.808,1.393-3.274,3.108-3.274s3.107,1.467,3.107,3.274
	C99.793,275.922,98.401,277.387,96.685,277.387z M96.685,136.976c-1.716,0-3.108-1.466-3.108-3.273c0-1.809,1.393-3.274,3.108-3.274
	s3.107,1.467,3.107,3.274S98.401,136.976,96.685,136.976z M110.543,277.387c-1.717,0-3.107-1.465-3.107-3.273
	c0-1.808,1.392-3.274,3.107-3.274s3.107,1.467,3.107,3.274C113.65,275.922,112.259,277.387,110.543,277.387z M110.543,136.976
	c-1.717,0-3.107-1.466-3.107-3.273c0-1.809,1.392-3.274,3.107-3.274s3.107,1.467,3.107,3.274S112.259,136.976,110.543,136.976z
	 M122.271,277.387c-1.716,0-3.108-1.465-3.108-3.273c0-1.808,1.393-3.274,3.108-3.274c1.717,0,3.107,1.467,3.107,3.274
	C125.379,275.922,123.988,277.387,122.271,277.387z M133.384,277.387c-1.716,0-3.107-1.465-3.107-3.273
	c0-1.808,1.392-3.274,3.107-3.274c1.718,0,3.108,1.467,3.108,3.274C136.492,275.922,135.101,277.387,133.384,277.387z
	 M144.459,277.387c-1.716,0-3.107-1.465-3.107-3.273c0-1.808,1.392-3.274,3.107-3.274c1.717,0,3.108,1.467,3.108,3.274
	C147.567,275.922,146.176,277.387,144.459,277.387z M156.422,277.387c-1.716,0-3.106-1.465-3.106-3.273
	c0-1.808,1.391-3.274,3.106-3.274c1.718,0,3.108,1.467,3.108,3.274C159.53,275.922,158.139,277.387,156.422,277.387z
	 M168.15,277.387c-1.716,0-3.108-1.465-3.108-3.273c0-1.808,1.393-3.274,3.108-3.274c1.717,0,3.107,1.467,3.107,3.274
	C171.258,275.922,169.867,277.387,168.15,277.387z M179.264,277.387c-1.718,0-3.108-1.465-3.108-3.273
	c0-1.808,1.392-3.274,3.108-3.274c1.716,0,3.107,1.467,3.107,3.274C182.372,275.922,180.98,277.387,179.264,277.387z
	 M192.587,277.387c-1.716,0-3.107-1.465-3.107-3.273c0-1.808,1.392-3.274,3.107-3.274c1.717,0,3.108,1.467,3.108,3.274
	C195.695,275.922,194.304,277.387,192.587,277.387z M204.55,277.387c-1.716,0-3.107-1.465-3.107-3.273
	c0-1.808,1.392-3.274,3.107-3.274c1.718,0,3.108,1.467,3.108,3.274C207.658,275.922,206.267,277.387,204.55,277.387z
	 M216.279,277.387c-1.717,0-3.108-1.465-3.108-3.273c0-1.808,1.393-3.274,3.108-3.274s3.107,1.467,3.107,3.274
	C219.386,275.922,217.996,277.387,216.279,277.387z M227.392,277.387c-1.718,0-3.107-1.465-3.107-3.273
	c0-1.808,1.391-3.274,3.107-3.274c1.716,0,3.107,1.467,3.107,3.274C230.5,275.922,229.108,277.387,227.392,277.387z
	 M238.467,277.387c-1.717,0-3.107-1.465-3.107-3.273c0-1.808,1.392-3.274,3.107-3.274c1.717,0,3.108,1.467,3.108,3.274
	C241.575,275.922,240.184,277.387,238.467,277.387z M250.43,277.387c-1.717,0-3.107-1.465-3.107-3.273
	c0-1.808,1.392-3.274,3.107-3.274c1.717,0,3.107,1.467,3.107,3.274C253.538,275.922,252.146,277.387,250.43,277.387z
	 M262.158,277.387c-1.717,0-3.108-1.465-3.108-3.273c0-1.808,1.393-3.274,3.108-3.274s3.108,1.467,3.108,3.274
	C265.266,275.922,263.875,277.387,262.158,277.387z M273.271,277.387c-1.717,0-3.108-1.465-3.108-3.273
	c0-1.808,1.393-3.274,3.108-3.274s3.106,1.467,3.106,3.274C276.378,275.922,274.987,277.387,273.271,277.387z M273.271,136.976
	c-1.717,0-3.108-1.466-3.108-3.273c0-1.809,1.393-3.274,3.108-3.274s3.106,1.467,3.106,3.274
	C276.379,135.51,274.987,136.976,273.271,136.976z M286.021,277.387c-1.717,0-3.108-1.465-3.108-3.273
	c0-1.808,1.393-3.274,3.108-3.274s3.106,1.467,3.106,3.274C289.128,275.922,287.737,277.387,286.021,277.387z M286.021,136.976
	c-1.717,0-3.108-1.466-3.108-3.273c0-1.809,1.393-3.274,3.108-3.274s3.106,1.467,3.106,3.274
	C289.129,135.51,287.737,136.976,286.021,136.976z M297.984,277.387c-1.717,0-3.108-1.465-3.108-3.273
	c0-1.808,1.393-3.274,3.108-3.274s3.106,1.467,3.106,3.274C301.091,275.922,299.7,277.387,297.984,277.387z M309.713,277.387
	c-1.717,0-3.107-1.465-3.107-3.273c0-1.808,1.392-3.274,3.107-3.274c1.717,0,3.107,1.467,3.107,3.274
	C312.82,275.922,311.429,277.387,309.713,277.387z M320.825,277.387c-1.717,0-3.108-1.465-3.108-3.273
	c0-1.808,1.393-3.274,3.108-3.274s3.108,1.467,3.108,3.274C323.933,275.922,322.542,277.387,320.825,277.387z M331.9,277.387
	c-1.716,0-3.107-1.465-3.107-3.273c0-1.808,1.393-3.274,3.107-3.274c1.717,0,3.107,1.467,3.107,3.274
	C335.008,275.922,333.617,277.387,331.9,277.387z M343.863,277.387c-1.716,0-3.107-1.465-3.107-3.273
	c0-1.808,1.393-3.274,3.107-3.274c1.717,0,3.108,1.467,3.108,3.274C346.971,275.922,345.58,277.387,343.863,277.387z
	 M355.592,277.387c-1.716,0-3.107-1.465-3.107-3.273c0-1.808,1.393-3.274,3.107-3.274c1.718,0,3.108,1.467,3.108,3.274
	C358.7,275.922,357.309,277.387,355.592,277.387z M355.592,136.976c-1.716,0-3.107-1.466-3.107-3.273
	c0-1.809,1.393-3.274,3.107-3.274c1.718,0,3.108,1.467,3.108,3.274S357.309,136.976,355.592,136.976z M366.704,277.387
	c-1.716,0-3.106-1.465-3.106-3.273c0-1.808,1.392-3.274,3.106-3.274c1.717,0,3.108,1.467,3.108,3.274
	C369.812,275.922,368.421,277.387,366.704,277.387z M366.704,136.976c-1.716,0-3.106-1.466-3.106-3.273
	c0-1.809,1.392-3.274,3.106-3.274c1.717,0,3.108,1.467,3.108,3.274C369.813,135.51,368.421,136.976,366.704,136.976z
	 M377.788,277.387c-1.717,0-3.106-1.465-3.106-3.273c0-1.808,1.391-3.274,3.106-3.274s3.108,1.467,3.108,3.274
	C380.896,275.922,379.505,277.387,377.788,277.387z M377.788,264.672c-1.717,0-3.106-1.467-3.106-3.275
	c0-1.807,1.391-3.272,3.106-3.272s3.108,1.467,3.108,3.272C380.896,263.205,379.505,264.672,377.788,264.672z M377.788,253.174
	c-1.717,0-3.106-1.467-3.106-3.273c0-1.809,1.391-3.274,3.106-3.274s3.108,1.467,3.108,3.274
	C380.896,251.707,379.505,253.174,377.788,253.174z M377.788,241.676c-1.717,0-3.106-1.467-3.106-3.273
	c0-1.809,1.391-3.274,3.106-3.274s3.108,1.467,3.108,3.274C380.896,240.209,379.505,241.676,377.788,241.676z M377.788,230.178
	c-1.717,0-3.106-1.467-3.106-3.273c0-1.809,1.391-3.274,3.106-3.274s3.108,1.467,3.108,3.274
	C380.896,228.711,379.505,230.178,377.788,230.178z M377.788,217.463c-1.717,0-3.106-1.467-3.106-3.276
	c0-1.809,1.391-3.272,3.106-3.272s3.108,1.465,3.108,3.272C380.896,215.995,379.505,217.463,377.788,217.463z M377.788,205.964
	c-1.717,0-3.106-1.467-3.106-3.275c0-1.808,1.391-3.272,3.106-3.272s3.108,1.465,3.108,3.272
	C380.896,204.497,379.505,205.964,377.788,205.964z M377.788,194.466c-1.717,0-3.106-1.467-3.106-3.275
	c0-1.808,1.391-3.272,3.106-3.272s3.108,1.466,3.108,3.272C380.896,193,379.505,194.466,377.788,194.466z M377.788,182.968
	c-1.717,0-3.106-1.467-3.106-3.275c0-1.808,1.391-3.272,3.106-3.272s3.108,1.466,3.108,3.272
	C380.896,181.501,379.505,182.968,377.788,182.968z M377.788,171.47c-1.717,0-3.106-1.467-3.106-3.274
	c0-1.809,1.391-3.273,3.106-3.273s3.108,1.466,3.108,3.273S379.505,171.47,377.788,171.47z M377.788,159.972
	c-1.717,0-3.106-1.467-3.106-3.274c0-1.807,1.391-3.273,3.106-3.273s3.108,1.467,3.108,3.273
	C380.896,158.505,379.505,159.972,377.788,159.972z M377.788,148.474c-1.717,0-3.106-1.467-3.106-3.273
	c0-1.808,1.391-3.274,3.106-3.274s3.108,1.467,3.108,3.274C380.896,147.007,379.505,148.474,377.788,148.474z M377.788,136.976
	c-1.717,0-3.106-1.466-3.106-3.273c0-1.809,1.391-3.274,3.106-3.274s3.108,1.467,3.108,3.274S379.505,136.976,377.788,136.976z"/>
<g>
	<path fill="#FFFFFF" d="M113.126,192.744c-0.176-0.113-0.329-0.265-0.456-0.456c-0.256-0.192-0.384-0.479-0.384-0.864
		c0-0.736,0.544-2.672,1.632-5.81c0.225-0.895,0.464-1.759,0.721-2.592c0.224-0.576,0.336-1.008,0.336-1.295
		c0-0.256,0.04-0.553,0.12-0.889c0.079-0.336,0.119-0.568,0.119-0.695c0.385,0,0.736-0.656,1.057-1.969
		c0.127-0.48,0.239-0.888,0.336-1.224c0.096-0.338,0.16-0.602,0.191-0.792c0.063-0.097,0.137-0.24,0.217-0.433
		c0.08-0.191,0.15-0.368,0.216-0.529c0.256-0.768,0.56-1.503,0.912-2.207c0.384-1.439,0.84-2.951,1.368-4.535
		c0.527-1.584,0.967-2.762,1.319-3.528l0.576-1.439c0.031-0.096,0.104-0.279,0.216-0.553c0.112-0.271,0.168-0.471,0.168-0.6
		c0-0.127-0.048-0.225-0.144-0.288c-0.16-0.096-0.24-0.256-0.24-0.479c0-0.416,0.384-0.961,1.152-1.633
		c0.384-0.479,0.712-0.791,0.983-0.936c0.271-0.146,0.648-0.218,1.128-0.218l1.536,0.098c0.384,0.032,1.408,0.048,3.072,0.048
		c0.352,0.16,0.768,0.32,1.248,0.479c0.96,0.32,1.439,0.546,1.439,0.673c0,0.159,0.056,0.271,0.168,0.336
		c0.111,0.063,0.28,0.111,0.505,0.145c0.318,0,0.822,0.359,1.512,1.08c0.688,0.719,1.208,1.463,1.56,2.231
		c0.225,0.513,0.393,0.937,0.504,1.271c0.112,0.336,0.168,0.729,0.168,1.176c0,0.479-0.032,0.863-0.096,1.151
		c-0.063,0.513-0.144,1.009-0.24,1.488c-0.096,0.479-0.208,0.784-0.336,0.912c-0.512,0.384-0.768,0.72-0.768,1.008
		c0,0.257-0.408,0.929-1.225,2.017c-0.815,1.088-1.592,1.984-2.327,2.688c-0.833,0.96-1.824,1.809-2.977,2.544
		c-3.775,1.695-6.416,2.513-7.92,2.448c-1.023,0.159-1.647,0.296-1.872,0.407c-0.224,0.111-0.399,0.376-0.527,0.791
		c-0.161,0.417-0.313,0.85-0.456,1.297c-0.145,0.448-0.217,0.736-0.217,0.863c-0.191,0.354-0.615,1.536-1.271,3.553
		s-1.096,3.521-1.32,4.513c-0.128,0.416-0.271,0.672-0.432,0.768s-0.416,0.146-0.769,0.146
		C113.47,192.912,113.302,192.855,113.126,192.744z M120.207,178.127c0.416,0,0.968-0.063,1.656-0.192
		c0.688-0.127,1.351-0.318,1.992-0.576c1.151-0.383,2.432-1.008,3.84-1.871c0.415-0.289,0.936-0.721,1.56-1.297
		s1.225-1.229,1.801-1.967c0.191-0.32,0.575-1.072,1.151-2.257c0.256-0.448,0.504-1.023,0.744-1.729
		c0.24-0.702,0.36-1.327,0.36-1.872c0-0.256-0.018-0.447-0.048-0.575c-0.161-0.832-0.584-1.608-1.272-2.328
		c-0.688-0.72-1.479-1.208-2.376-1.464c-0.672-0.127-1.28-0.191-1.824-0.191c-0.416,0-0.896,0.047-1.439,0.145
		c-0.513,0.159-0.889,0.384-1.128,0.672c-0.24,0.288-0.553,0.896-0.937,1.822c-0.736,1.409-1.409,2.945-2.016,4.609
		c-0.576,2.145-1.152,3.92-1.729,5.327c-0.576,1.409-0.912,2.225-1.008,2.448v0.19c0,0.192-0.017,0.385-0.048,0.576
		c-0.033,0.192,0,0.336,0.096,0.432C119.646,178.095,119.854,178.127,120.207,178.127z"/>
	<path fill="#FFFFFF" d="M133.383,188.279c-0.208-0.207-0.312-0.343-0.312-0.406c0-0.354-0.081-0.624-0.24-0.815
		c-0.063-0.063-0.096-0.209-0.096-0.433c0-0.513,0.247-1.385,0.744-2.616c0.496-1.231,1.144-2.568,1.943-4.008
		c0.192-0.191,0.439-0.528,0.744-1.008c0.305-0.48,0.504-0.752,0.601-0.816c0-0.127,0.048-0.248,0.144-0.359
		s0.208-0.168,0.336-0.168v-0.289c0-0.286,0.528-0.982,1.584-2.088c1.057-1.104,1.92-1.862,2.592-2.278
		c0.8-0.544,1.615-0.816,2.448-0.816c0.576,0,1.072,0.16,1.488,0.48c0.16,0.19,0.896,0.881,2.208,2.063l1.775,1.584l-0.863,2.4
		c-0.288,0.863-0.433,1.647-0.433,2.353c0,1.216,0.353,2.383,1.057,3.504c0.16,0.353,0.479,0.688,0.96,1.008
		c0.479,0.32,0.96,0.513,1.439,0.576c0.704,0.127,1.057,0.479,1.057,1.056c0,0.641-0.288,1.024-0.864,1.151
		c-0.128,0.033-0.32,0.049-0.576,0.049c-1.889,0-3.521-1.328-4.896-3.983c-0.128-0.191-0.296-0.544-0.504-1.058
		c-0.208-0.511-0.329-0.862-0.36-1.056c-0.192,0.257-0.432,0.561-0.72,0.912c-0.288,0.353-0.561,0.656-0.816,0.912
		c-3.488,3.488-6.24,5.23-8.256,5.23c-0.64,0-1.216-0.158-1.729-0.479C133.743,188.687,133.59,188.488,133.383,188.279z
		 M136.071,186.335c0.336-0.064,0.751-0.225,1.248-0.48c0.496-0.256,1-0.592,1.512-1.008c2.752-2.367,4.735-4.432,5.952-6.191
		l1.056-1.729c-0.319-0.672-0.655-1.159-1.008-1.464c-0.353-0.304-0.672-0.456-0.96-0.456c-0.672,0-1.728,0.84-3.168,2.52
		c-1.439,1.682-2.752,3.656-3.936,5.93c-0.288,0.544-0.544,1.097-0.769,1.654c-0.224,0.562-0.368,0.922-0.432,1.08
		C135.566,186.352,135.735,186.4,136.071,186.335z"/>
	<path fill="#FFFFFF" d="M154.862,188.4c-0.096-0.16-0.145-0.399-0.145-0.721c0-0.287,0.017-0.527,0.049-0.72
		c0.096-1.087,0.336-2.354,0.72-3.792l0.24-0.96c0.096-0.801,0.655-2.479,1.68-5.04s1.855-4.305,2.496-5.232
		c0.256-0.159,0.528-0.24,0.815-0.24c0.416,0,0.769,0.146,1.057,0.434c0.191,0.128,0.288,0.368,0.288,0.72
		c0,0.32-0.12,0.793-0.36,1.416c-0.24,0.624-0.647,1.545-1.224,2.76c-0.128,0.257-0.345,0.736-0.648,1.44s-0.456,1.12-0.456,1.248
		c0,0.063,0.017,0.097,0.048,0.097c0.063,0,0.127-0.024,0.192-0.072c0.063-0.049,0.127-0.088,0.192-0.121
		c0.352-0.606,1.208-1.438,2.567-2.494c1.36-1.057,2.296-1.712,2.809-1.969c0.224-0.128,0.512-0.256,0.863-0.385
		c0.353-0.127,0.593-0.223,0.721-0.287c0.512-0.256,1.12-0.385,1.823-0.385c0.448,0,0.841,0.072,1.177,0.217
		s0.567,0.359,0.695,0.647c0.031,0.224,0.12,0.399,0.265,0.527c0.144,0.129,0.248,0.208,0.312,0.24c0.096,0,0.16,0.04,0.192,0.119
		c0.032,0.08,0.048,0.137,0.048,0.168c0,0.225-0.128,0.36-0.384,0.408s-0.721,0.088-1.393,0.12c-0.353,0.032-0.72,0.111-1.104,0.238
		c-0.384,0.13-0.769,0.289-1.152,0.48c-1.792,1.025-3.128,1.824-4.008,2.4c-0.88,0.575-1.769,1.359-2.664,2.352
		c-0.353,0.385-0.816,1.072-1.392,2.064c-0.225,0.225-0.456,0.809-0.696,1.752s-0.36,1.527-0.36,1.752
		c-0.032,0.096-0.096,0.279-0.191,0.552c-0.097,0.271-0.24,0.536-0.433,0.792c-0.384,0.512-0.705,0.768-0.96,0.768
		c-0.288,0-0.672-0.256-1.151-0.768C155.134,188.736,154.958,188.56,154.862,188.4z"/>
	<path fill="#FFFFFF" d="M173.99,189.24c-0.528-0.592-0.873-1.145-1.032-1.655c0-0.064-0.032-0.137-0.096-0.217
		c-0.064-0.078-0.112-0.136-0.144-0.168c-0.129-0.097-0.192-0.623-0.192-1.585c0-0.768,0.04-1.565,0.12-2.398
		c0.08-0.831,0.184-1.503,0.312-2.017l0.864-2.544l0.672-1.92l1.296-2.783l-1.92-0.528c-0.224-0.031-0.408-0.146-0.552-0.336
		c-0.145-0.191-0.216-0.367-0.216-0.527c0-0.256,0.136-0.567,0.408-0.937c0.271-0.369,0.487-0.553,0.647-0.553
		c0.096,0.031,0.353,0.049,0.768,0.049c0.961,0,1.681-0.049,2.16-0.145c0.319-0.128,0.544-0.385,0.672-0.769
		c0.129-0.256,0.28-0.576,0.456-0.96c0.177-0.386,0.345-0.736,0.504-1.058c0.097-0.19,0.248-0.485,0.456-0.888
		c0.208-0.399,0.473-0.855,0.792-1.368c0.064-0.096,0.208-0.327,0.433-0.695c0.224-0.366,0.496-0.68,0.815-0.937
		c0.225-0.224,0.496-0.336,0.816-0.336s0.736,0.208,1.248,0.624c0.063,0.096,0.152,0.225,0.264,0.385
		c0.112,0.16,0.168,0.304,0.168,0.433c0,0.128-0.128,0.399-0.384,0.815c-0.192,0.383-0.376,0.729-0.552,1.031
		c-0.176,0.305-0.329,0.567-0.456,0.792c-0.384,0.641-0.656,1.12-0.816,1.439c-0.319,0.416-0.479,0.736-0.479,0.959
		c0,0.226,0.208,0.336,0.624,0.336c0.448,0,1.2-0.096,2.256-0.286c0.448-0.064,0.751-0.097,0.912-0.097
		c1.12,0,1.728,0.464,1.824,1.393c0.03,0.191,0.048,0.416,0.048,0.672c0,0.448-0.152,0.72-0.456,0.814
		c-0.306,0.098-0.984,0.146-2.04,0.146c-1.024,0.16-2.081,0.24-3.168,0.24c-0.192,0-0.408,0.008-0.648,0.022
		c-0.239,0.019-0.487,0.058-0.744,0.121c-0.256,0.064-0.439,0.16-0.552,0.287c-0.113,0.129-0.231,0.336-0.359,0.624
		c-0.097,0.097-0.32,0.464-0.673,1.104c-0.447,0.929-0.735,1.488-0.863,1.681c-0.864,2.561-1.504,5.184-1.92,7.872
		c-0.065,0.513-0.097,0.833-0.097,0.96c0,0.479,0.16,0.815,0.48,1.008c0.318,0.192,0.864,0.288,1.632,0.288
		c1.088,0,2.032-0.112,2.832-0.336c0.96-0.415,1.68-0.77,2.16-1.057c0.288-0.159,0.552-0.313,0.792-0.457
		c0.24-0.143,0.408-0.245,0.504-0.312c0.096-0.192,0.208-0.288,0.336-0.288c0.256,0,0.479,0.257,0.672,0.77
		c0,0.513-0.113,0.96-0.336,1.344c-0.224,0.384-0.784,0.833-1.68,1.345c-1.856,1.184-3.712,1.775-5.568,1.775
		c-0.513,0-0.993-0.05-1.439-0.146C175.037,190.175,174.518,189.832,173.99,189.24z"/>
	<path fill="#FFFFFF" d="M187.525,188.279c-0.208-0.207-0.313-0.343-0.313-0.406c0-0.354-0.081-0.624-0.239-0.815
		c-0.064-0.063-0.097-0.209-0.097-0.433c0-0.513,0.247-1.385,0.744-2.616c0.496-1.231,1.145-2.568,1.944-4.008
		c0.191-0.191,0.438-0.528,0.744-1.008c0.304-0.48,0.504-0.752,0.6-0.816c0-0.127,0.048-0.248,0.145-0.359
		c0.096-0.111,0.208-0.168,0.336-0.168v-0.289c0-0.286,0.527-0.982,1.584-2.088c1.056-1.104,1.92-1.862,2.592-2.278
		c0.799-0.544,1.615-0.816,2.448-0.816c0.575,0,1.071,0.16,1.487,0.48c0.16,0.19,0.896,0.881,2.208,2.063l1.776,1.584l-0.864,2.4
		c-0.288,0.863-0.432,1.647-0.432,2.353c0,1.216,0.352,2.383,1.056,3.504c0.16,0.353,0.48,0.688,0.96,1.008
		c0.48,0.32,0.96,0.513,1.44,0.576c0.704,0.127,1.056,0.479,1.056,1.056c0,0.641-0.288,1.024-0.864,1.151
		c-0.128,0.033-0.319,0.049-0.575,0.049c-1.89,0-3.521-1.328-4.896-3.983c-0.128-0.191-0.296-0.544-0.504-1.058
		c-0.208-0.511-0.329-0.862-0.36-1.056c-0.191,0.257-0.432,0.561-0.72,0.912c-0.288,0.353-0.56,0.656-0.816,0.912
		c-3.487,3.488-6.239,5.23-8.256,5.23c-0.64,0-1.216-0.158-1.728-0.479C187.885,188.687,187.733,188.488,187.525,188.279z
		 M190.213,186.335c0.336-0.064,0.751-0.225,1.248-0.48c0.496-0.256,1-0.592,1.513-1.008c2.752-2.367,4.734-4.432,5.951-6.191
		l1.057-1.729c-0.32-0.672-0.656-1.159-1.008-1.464c-0.354-0.304-0.673-0.456-0.96-0.456c-0.673,0-1.729,0.84-3.168,2.52
		c-1.44,1.682-2.753,3.656-3.937,5.93c-0.288,0.544-0.544,1.097-0.768,1.654c-0.225,0.562-0.368,0.922-0.433,1.08
		C189.709,186.352,189.877,186.4,190.213,186.335z"/>
	<path fill="#FFFFFF" d="M222.637,177.215c0,0.479-0.192,0.96-0.575,1.439c-0.098,0.16-0.273,0.408-0.529,0.744
		s-0.479,0.681-0.672,1.031c-0.191,0.354-0.336,0.752-0.432,1.2c-0.129,0.737-0.513,2.304-1.151,4.704l-0.528,1.872l-0.769,2.976
		c-1.439,4.96-2.88,7.824-4.32,8.592c-0.416,0.16-0.814,0.24-1.199,0.24c-0.705,0-1.433-0.232-2.184-0.695
		c-0.752-0.465-1.4-1.097-1.944-1.896c-0.319-0.448-0.632-1.16-0.936-2.136c-0.306-0.978-0.36-1.528-0.168-1.656
		c0.063-0.064,0.175-0.096,0.336-0.096c0.223,0,0.463,0.07,0.72,0.216c0.256,0.145,0.416,0.313,0.48,0.504
		c0.127,0.352,0.399,0.815,0.815,1.393c0.416,0.576,0.72,0.879,0.912,0.912c0.512,0.255,0.944,0.383,1.296,0.383
		c0.288,0,0.561-0.096,0.816-0.287c0.511-0.416,0.952-0.952,1.319-1.607c0.368-0.656,0.775-1.704,1.225-3.145l0.385-1.393
		c0.768-2.815,1.327-4.639,1.68-5.472c0.16-0.513,0.319-0.912,0.48-1.2l-0.865,0.768c-0.383,0.354-0.783,0.689-1.199,1.008
		c-0.416,0.32-0.848,0.576-1.296,0.77c-0.225,0.288-0.784,0.433-1.68,0.433c-0.641,0-1.28-0.097-1.92-0.289
		c-0.672-0.352-1.088-0.623-1.248-0.814c-0.161-0.192-0.384-0.641-0.672-1.345c-0.128-0.256-0.192-0.654-0.192-1.199
		c0-1.375,0.32-2.849,0.96-4.416c0.608-1.248,1.568-2.576,2.88-3.984c1.313-1.407,2.447-2.256,3.408-2.543
		c0.384-0.192,0.735-0.289,1.056-0.289c0.353,0,0.721,0.064,1.104,0.192c0.512,0.063,0.912,0.177,1.199,0.336
		c0.288,0.161,0.769,0.528,1.439,1.104c0.769,0.769,1.327,1.615,1.681,2.543C222.541,176.496,222.637,176.864,222.637,177.215z
		 M218.221,178.488c0.224-0.848,0.304-1.688,0.239-2.521c-0.031-0.448-0.096-0.76-0.19-0.938c-0.098-0.175-0.273-0.264-0.529-0.264
		c-0.607,0-1.313,0.289-2.111,0.864c-0.801,0.576-1.567,1.328-2.304,2.256c-0.479,0.641-0.88,1.409-1.2,2.304
		c-0.384,1.089-0.576,2.098-0.576,3.024c0,0.704,0.128,1.104,0.385,1.2c0.991-0.031,1.896-0.32,2.712-0.864
		c0.815-0.544,1.624-1.44,2.424-2.688C217.613,180.127,217.996,179.335,218.221,178.488z"/>
	<path fill="#FFFFFF" d="M231.229,189.984c-0.801,0-1.562-0.191-2.281-0.575c-0.719-0.386-1.319-0.912-1.799-1.585
		c-0.417-0.512-0.721-1.088-0.912-1.729c-0.192-0.64-0.289-1.424-0.289-2.352c0-0.32,0.032-0.962,0.097-1.921
		c0.097-1.184,0.487-2.416,1.177-3.695c0.688-1.279,1.544-2.424,2.567-3.434c1.023-1.008,2.032-1.703,3.024-2.088
		c0.511-0.317,0.975-0.479,1.392-0.479c0.225,0,0.448,0.017,0.672,0.048c0.225,0.032,0.464,0.063,0.721,0.096
		c0.702,0.097,1.239,0.232,1.607,0.408c0.367,0.176,0.679,0.44,0.937,0.792c0.8,0.8,1.199,1.728,1.199,2.784
		c-0.129,0.768-0.624,1.647-1.487,2.641c-0.863,0.992-1.904,1.792-3.119,2.399c-0.576,0.191-1.232,0.288-1.969,0.288
		c-0.992,0-1.793-0.208-2.4-0.624c-0.287-0.098-0.512-0.145-0.672-0.145c-0.287,0-0.504,0.191-0.647,0.576
		c-0.144,0.383-0.279,1.088-0.407,2.111c-0.032,0.225-0.049,0.545-0.049,0.96c0,1.632,0.544,2.528,1.633,2.688
		c0.734,0.16,1.264,0.24,1.584,0.24c0.384,0,0.814-0.128,1.296-0.385l0.912-0.527c0.191-0.097,0.366-0.225,0.527-0.385
		c0.159-0.16,0.305-0.304,0.433-0.432c0.063-0.064,0.159-0.168,0.288-0.313c0.127-0.144,0.247-0.24,0.358-0.287
		c0.112-0.049,0.217-0.072,0.313-0.072c0.128,0,0.271,0.072,0.432,0.217c0.161,0.144,0.289,0.248,0.385,0.312
		c0.287,0,0.353,0.201,0.191,0.602c-0.16,0.399-0.504,0.863-1.031,1.392c-0.528,0.528-1.129,1-1.801,1.416
		C233.309,189.632,232.349,189.984,231.229,189.984z M235.717,177.551c0.561-0.575,0.841-1.056,0.841-1.44
		c0-0.383-0.145-0.702-0.433-0.959c-0.288-0.256-0.688-0.385-1.2-0.385c-0.384,0-0.672,0.033-0.862,0.096
		c-0.449,0.13-0.978,0.474-1.584,1.033c-0.609,0.561-1.138,1.127-1.584,1.703c-0.449,0.576-0.625,0.912-0.529,1.008
		c0.16,0.289,0.784,0.434,1.873,0.434c0.735,0,1.344-0.098,1.824-0.288C234.604,178.528,235.157,178.127,235.717,177.551z"/>
	<path fill="#FFFFFF" d="M240.013,189.599c-0.449,0-0.802-0.055-1.058-0.168c-0.256-0.111-0.544-0.328-0.863-0.647
		c-0.257-0.191-0.385-0.398-0.385-0.623c0-0.416,0.562-1.2,1.682-2.353c1.216-1.504,2.415-2.736,3.6-3.697
		c0.704-0.543,2.368-1.711,4.992-3.504c0.96-0.768,1.655-1.303,2.088-1.606c0.433-0.305,0.76-0.535,0.983-0.696
		c-1.567-0.159-2.753-0.208-3.552-0.144c-0.705,0-1.24-0.009-1.607-0.024c-0.368-0.016-0.665-0.056-0.889-0.12h-0.721
		c-0.32,0-0.824-0.168-1.512-0.504c-0.688-0.336-1.049-0.648-1.08-0.936c0.063-0.031,0.184-0.097,0.358-0.192
		c0.177-0.096,0.313-0.208,0.408-0.336c0.098-0.063,0.226-0.151,0.386-0.265c0.159-0.111,0.286-0.169,0.384-0.169
		c0.096,0,0.175,0.033,0.238,0.098c0.16,0,0.513-0.007,1.058-0.024c0.544-0.016,1.184-0.039,1.92-0.071
		c1.854,0.032,3.217,0.09,4.08,0.168c0.864,0.08,1.504,0.209,1.92,0.385s0.864,0.473,1.344,0.889
		c0.416,0.416,0.625,0.848,0.625,1.295c0,0.48-0.225,0.978-0.673,1.488c-0.032,0.032-0.128,0.145-0.288,0.336
		s-0.287,0.288-0.384,0.288l-2.304,1.488c-0.32,0.224-0.802,0.527-1.44,0.91c-0.832,0.514-1.313,0.851-1.44,1.01
		c-0.286,0.128-0.567,0.288-0.84,0.479c-0.271,0.192-0.487,0.369-0.646,0.528c-0.161,0.191-0.4,0.439-0.72,0.744
		c-0.32,0.304-0.656,0.567-1.009,0.792c-0.385,0.319-0.856,0.752-1.416,1.296c-0.561,0.544-0.921,0.912-1.08,1.104
		c0-0.031,0.744-0.121,2.231-0.265c1.488-0.144,2.808-0.184,3.96-0.12l3.36-0.096c0.544-0.031,1.167-0.048,1.872-0.048
		c0.672,0,1.151,0.063,1.438,0.191c0.288,0.097,0.553,0.32,0.793,0.672c0.239,0.353,0.313,0.607,0.215,0.769
		c-0.16,0-0.68,0.048-1.56,0.145s-1.85,0.16-2.903,0.191c-0.833,0.063-2.801,0.288-5.904,0.672
		c-0.479,0.096-1.313,0.209-2.495,0.336C241.74,189.488,240.685,189.599,240.013,189.599z"/>
	<path fill="#FFFFFF" d="M272.22,190.175c-1.185,0-2.16-0.367-2.929-1.104c-0.768-0.736-1.151-1.76-1.151-3.071
		c-0.128-1.408,0.184-3.151,0.936-5.232c0.752-2.08,1.705-3.823,2.856-5.23c0.8-0.929,1.487-1.682,2.063-2.258
		c0.576-0.574,1.104-0.959,1.584-1.15c0.673-0.288,1.424-0.434,2.257-0.434c0.575,0.129,1.145,0.369,1.704,0.722
		s0.84,0.704,0.84,1.056l0.24,0.24c0.191,0,0.367,0.231,0.527,0.696c0.16,0.464,0.24,0.968,0.24,1.512
		c0,0.449-0.08,0.832-0.24,1.151c-0.128,0.607-0.344,1.137-0.647,1.584c-0.305,0.448-0.601,0.673-0.888,0.673
		c-0.354,0-0.528,0.096-0.528,0.286c0,0.13-0.063,0.193-0.191,0.193c-0.16,0-0.354-0.097-0.576-0.289
		c-0.226-0.19-0.384-0.415-0.479-0.672c0-0.096,0.063-0.367,0.192-0.816c0.127-0.446,0.256-0.942,0.383-1.486
		c0.097-0.384,0.146-0.721,0.146-1.008c0-0.641-0.24-0.96-0.721-0.96c-0.257,0-0.513,0.063-0.769,0.19
		c-1.279,0.705-2.416,1.824-3.408,3.36s-1.823,3.646-2.496,6.336c-0.16,0.704-0.239,1.265-0.239,1.681
		c0,0.32,0.024,0.575,0.071,0.769c0.049,0.19,0.104,0.305,0.168,0.336c0.16,0.063,0.496,0.096,1.009,0.096
		c1.185,0,2.018-0.146,2.496-0.432c1.023-0.544,2.159-1.279,3.407-2.208c0.128-0.098,0.32-0.266,0.576-0.506
		c0.256-0.238,0.496-0.406,0.721-0.504c0.224-0.352,0.433-0.566,0.623-0.646c0.193-0.079,0.496-0.12,0.912-0.12
		c0.416,0.129,0.752,0.297,1.009,0.504c0.255,0.209,0.255,0.377,0,0.504c-0.097,0-0.161,0.033-0.191,0.096
		c-0.032,0.064-0.049,0.113-0.049,0.146c0.063,0.16-0.191,0.561-0.769,1.2c-0.575,0.641-1.216,1.239-1.92,1.8
		c-0.703,0.561-1.185,0.84-1.439,0.84c-0.129,0-0.239,0.017-0.336,0.049c-0.096,0.031-0.145,0.111-0.145,0.239
		s-0.488,0.425-1.463,0.888c-0.978,0.465-1.771,0.763-2.377,0.89C272.779,190.144,272.443,190.175,272.22,190.175z"/>
	<path fill="#FFFFFF" d="M290.604,189.984c-0.8,0-1.561-0.191-2.28-0.575c-0.72-0.386-1.32-0.912-1.8-1.585
		c-0.417-0.512-0.72-1.088-0.912-1.729c-0.192-0.64-0.288-1.424-0.288-2.352c0-0.32,0.031-0.962,0.096-1.921
		c0.097-1.184,0.488-2.416,1.177-3.695c0.688-1.279,1.544-2.424,2.567-3.434c1.023-1.008,2.032-1.703,3.024-2.088
		c0.511-0.317,0.976-0.479,1.392-0.479c0.225,0,0.448,0.017,0.672,0.048c0.225,0.032,0.464,0.063,0.722,0.096
		c0.703,0.097,1.238,0.232,1.606,0.408c0.367,0.176,0.681,0.44,0.937,0.792c0.801,0.8,1.2,1.728,1.2,2.784
		c-0.129,0.768-0.625,1.647-1.487,2.641c-0.864,0.992-1.904,1.792-3.12,2.399c-0.576,0.191-1.232,0.288-1.968,0.288
		c-0.992,0-1.793-0.208-2.4-0.624c-0.288-0.098-0.512-0.145-0.672-0.145c-0.288,0-0.504,0.191-0.648,0.576
		c-0.144,0.383-0.279,1.088-0.407,2.111c-0.031,0.225-0.048,0.545-0.048,0.96c0,1.632,0.544,2.528,1.632,2.688
		c0.735,0.16,1.264,0.24,1.584,0.24c0.385,0,0.815-0.128,1.297-0.385l0.912-0.527c0.19-0.097,0.366-0.225,0.526-0.385
		s0.306-0.304,0.433-0.432c0.063-0.064,0.16-0.168,0.289-0.313c0.127-0.144,0.247-0.24,0.358-0.287
		c0.111-0.049,0.217-0.072,0.313-0.072c0.127,0,0.271,0.072,0.432,0.217c0.161,0.144,0.288,0.248,0.385,0.312
		c0.287,0,0.353,0.201,0.191,0.602c-0.16,0.399-0.504,0.863-1.032,1.392c-0.527,0.528-1.128,1-1.8,1.416
		C292.683,189.632,291.724,189.984,290.604,189.984z M295.091,177.551c0.562-0.575,0.841-1.056,0.841-1.44
		c0-0.383-0.145-0.702-0.433-0.959c-0.287-0.256-0.688-0.385-1.199-0.385c-0.385,0-0.672,0.033-0.863,0.096
		c-0.448,0.13-0.978,0.474-1.584,1.033c-0.608,0.561-1.137,1.127-1.584,1.703c-0.448,0.576-0.624,0.912-0.528,1.008
		c0.16,0.289,0.783,0.434,1.872,0.434c0.735,0,1.345-0.098,1.824-0.288C293.979,178.528,294.531,178.127,295.091,177.551z"/>
	<path fill="#FFFFFF" d="M302.868,189.24c-0.529-0.592-0.873-1.145-1.033-1.655c0-0.064-0.03-0.137-0.096-0.217
		c-0.064-0.078-0.112-0.136-0.145-0.168c-0.128-0.097-0.191-0.623-0.191-1.585c0-0.768,0.04-1.565,0.12-2.398
		c0.079-0.831,0.184-1.503,0.312-2.017l0.864-2.544l0.673-1.92l1.295-2.783l-1.92-0.528c-0.224-0.031-0.408-0.146-0.552-0.336
		c-0.144-0.191-0.216-0.367-0.216-0.527c0-0.256,0.136-0.567,0.408-0.937c0.271-0.368,0.486-0.553,0.647-0.553
		c0.096,0.031,0.353,0.049,0.769,0.049c0.96,0,1.68-0.049,2.159-0.145c0.318-0.128,0.543-0.385,0.673-0.769
		c0.127-0.256,0.278-0.576,0.454-0.96c0.177-0.386,0.345-0.736,0.505-1.058c0.097-0.19,0.247-0.485,0.457-0.888
		c0.206-0.399,0.472-0.855,0.79-1.368c0.064-0.096,0.21-0.327,0.434-0.695c0.224-0.366,0.495-0.68,0.814-0.937
		c0.226-0.224,0.496-0.336,0.816-0.336s0.736,0.208,1.248,0.624c0.064,0.096,0.152,0.225,0.264,0.385
		c0.112,0.16,0.168,0.304,0.168,0.433c0,0.128-0.128,0.399-0.383,0.815c-0.192,0.383-0.377,0.729-0.553,1.031
		c-0.176,0.305-0.328,0.567-0.456,0.792c-0.384,0.641-0.656,1.12-0.815,1.439c-0.319,0.416-0.479,0.736-0.479,0.959
		c0,0.226,0.208,0.336,0.624,0.336c0.448,0,1.2-0.096,2.256-0.286c0.448-0.064,0.751-0.097,0.912-0.097
		c1.12,0,1.728,0.464,1.824,1.393c0.03,0.191,0.048,0.416,0.048,0.672c0,0.448-0.152,0.72-0.456,0.814
		c-0.305,0.098-0.983,0.146-2.04,0.146c-1.024,0.16-2.08,0.24-3.168,0.24c-0.191,0-0.408,0.008-0.648,0.022
		c-0.239,0.019-0.487,0.058-0.744,0.121c-0.256,0.064-0.438,0.16-0.551,0.287c-0.112,0.129-0.231,0.336-0.36,0.624
		c-0.097,0.097-0.319,0.464-0.673,1.104c-0.446,0.929-0.735,1.488-0.862,1.681c-0.864,2.561-1.504,5.184-1.92,7.872
		c-0.064,0.513-0.097,0.833-0.097,0.96c0,0.479,0.159,0.815,0.479,1.008c0.318,0.192,0.864,0.288,1.632,0.288
		c1.088,0,2.031-0.112,2.832-0.336c0.96-0.415,1.68-0.77,2.16-1.057c0.288-0.159,0.552-0.313,0.792-0.457
		c0.24-0.143,0.408-0.245,0.504-0.312c0.097-0.192,0.208-0.288,0.336-0.288c0.256,0,0.479,0.257,0.673,0.77
		c0,0.513-0.113,0.96-0.337,1.344s-0.784,0.833-1.68,1.345c-1.856,1.184-3.712,1.775-5.567,1.775c-0.514,0-0.993-0.05-1.44-0.146
		C303.915,190.175,303.396,189.832,302.868,189.24z"/>
	<path fill="#FFFFFF" d="M318.755,189.24c-0.526-0.592-0.872-1.145-1.03-1.655c0-0.064-0.033-0.137-0.098-0.217
		c-0.063-0.078-0.111-0.136-0.144-0.168c-0.129-0.097-0.192-0.623-0.192-1.585c0-0.768,0.04-1.565,0.12-2.398
		c0.08-0.831,0.185-1.503,0.313-2.017l0.862-2.544l0.672-1.92l1.298-2.783l-1.92-0.528c-0.226-0.031-0.408-0.146-0.554-0.336
		c-0.145-0.191-0.216-0.367-0.216-0.527c0-0.256,0.136-0.567,0.407-0.937c0.271-0.368,0.488-0.553,0.647-0.553
		c0.097,0.031,0.353,0.049,0.769,0.049c0.961,0,1.681-0.049,2.16-0.145c0.319-0.128,0.545-0.385,0.672-0.769
		c0.129-0.256,0.28-0.576,0.457-0.96c0.176-0.386,0.344-0.736,0.504-1.058c0.096-0.19,0.247-0.485,0.455-0.888
		c0.209-0.399,0.473-0.855,0.793-1.368c0.063-0.096,0.207-0.327,0.432-0.695c0.225-0.366,0.496-0.68,0.816-0.937
		c0.223-0.224,0.496-0.336,0.814-0.336c0.319,0,0.735,0.208,1.248,0.624c0.063,0.096,0.151,0.225,0.266,0.385
		c0.11,0.16,0.168,0.304,0.168,0.433c0,0.128-0.129,0.399-0.386,0.815c-0.19,0.383-0.376,0.729-0.552,1.031
		c-0.177,0.305-0.329,0.567-0.456,0.792c-0.384,0.641-0.656,1.12-0.815,1.439c-0.32,0.416-0.479,0.736-0.479,0.959
		c0,0.226,0.208,0.336,0.624,0.336c0.447,0,1.2-0.096,2.256-0.286c0.447-0.064,0.752-0.097,0.912-0.097
		c1.119,0,1.729,0.464,1.824,1.393c0.031,0.191,0.048,0.416,0.048,0.672c0,0.448-0.152,0.72-0.456,0.814
		c-0.305,0.098-0.983,0.146-2.04,0.146c-1.023,0.16-2.081,0.24-3.168,0.24c-0.191,0-0.408,0.008-0.646,0.022
		c-0.24,0.019-0.488,0.058-0.744,0.121c-0.257,0.064-0.44,0.16-0.554,0.287c-0.111,0.129-0.231,0.336-0.358,0.624
		c-0.096,0.097-0.32,0.464-0.672,1.104c-0.449,0.929-0.736,1.488-0.864,1.681c-0.864,2.561-1.505,5.184-1.92,7.872
		c-0.065,0.513-0.097,0.833-0.097,0.96c0,0.479,0.159,0.815,0.479,1.008c0.319,0.192,0.863,0.288,1.632,0.288
		c1.088,0,2.032-0.112,2.832-0.336c0.96-0.415,1.682-0.77,2.16-1.057c0.288-0.159,0.552-0.313,0.792-0.457
		c0.24-0.143,0.408-0.245,0.504-0.312c0.096-0.192,0.208-0.288,0.336-0.288c0.256,0,0.48,0.257,0.672,0.77
		c0,0.513-0.111,0.96-0.336,1.344s-0.784,0.833-1.68,1.345c-1.856,1.184-3.713,1.775-5.568,1.775c-0.512,0-0.991-0.05-1.438-0.146
		C319.803,190.175,319.283,189.832,318.755,189.24z"/>
	<path fill="#FFFFFF" d="M337.979,189.984c-0.801,0-1.562-0.191-2.281-0.575c-0.719-0.386-1.319-0.912-1.799-1.585
		c-0.417-0.512-0.721-1.088-0.912-1.729c-0.192-0.64-0.289-1.424-0.289-2.352c0-0.32,0.032-0.962,0.097-1.921
		c0.097-1.184,0.487-2.416,1.177-3.695c0.688-1.279,1.544-2.424,2.567-3.434c1.023-1.008,2.032-1.703,3.024-2.088
		c0.511-0.317,0.975-0.479,1.392-0.479c0.225,0,0.448,0.017,0.672,0.048c0.225,0.032,0.464,0.063,0.721,0.096
		c0.702,0.097,1.239,0.232,1.607,0.408c0.367,0.176,0.679,0.44,0.937,0.792c0.8,0.8,1.199,1.728,1.199,2.784
		c-0.129,0.768-0.624,1.647-1.487,2.641c-0.863,0.992-1.904,1.792-3.119,2.399c-0.576,0.191-1.232,0.288-1.969,0.288
		c-0.992,0-1.793-0.208-2.4-0.624c-0.287-0.098-0.512-0.145-0.672-0.145c-0.287,0-0.504,0.191-0.647,0.576
		c-0.144,0.383-0.279,1.088-0.407,2.111c-0.032,0.225-0.049,0.545-0.049,0.96c0,1.632,0.544,2.528,1.633,2.688
		c0.734,0.16,1.264,0.24,1.584,0.24c0.384,0,0.814-0.128,1.296-0.385l0.912-0.527c0.191-0.097,0.366-0.225,0.527-0.385
		c0.159-0.16,0.305-0.304,0.433-0.432c0.063-0.064,0.159-0.168,0.288-0.313c0.127-0.144,0.247-0.24,0.358-0.287
		c0.112-0.049,0.217-0.072,0.313-0.072c0.128,0,0.271,0.072,0.432,0.217c0.161,0.144,0.289,0.248,0.385,0.312
		c0.287,0,0.353,0.201,0.191,0.602c-0.16,0.399-0.504,0.863-1.031,1.392c-0.528,0.528-1.129,1-1.801,1.416
		C340.059,189.632,339.099,189.984,337.979,189.984z M342.467,177.551c0.561-0.575,0.841-1.056,0.841-1.44
		c0-0.383-0.145-0.702-0.433-0.959c-0.288-0.256-0.688-0.385-1.2-0.385c-0.384,0-0.672,0.033-0.862,0.096
		c-0.449,0.13-0.978,0.474-1.584,1.033c-0.609,0.561-1.138,1.127-1.584,1.703c-0.449,0.576-0.625,0.912-0.529,1.008
		c0.16,0.289,0.784,0.434,1.873,0.434c0.735,0,1.344-0.098,1.824-0.288C341.354,178.528,341.907,178.127,342.467,177.551z"/>
	<path fill="#FFFFFF" d="M126.807,247.777c-1.185,0-2.16-0.368-2.929-1.104c-0.768-0.734-1.151-1.76-1.151-3.072
		c-0.128-1.406,0.184-3.149,0.936-5.229c0.751-2.08,1.704-3.824,2.856-5.232c0.8-0.928,1.487-1.68,2.063-2.256
		s1.104-0.961,1.584-1.152c0.672-0.287,1.424-0.432,2.256-0.432c0.576,0.127,1.145,0.367,1.704,0.719
		c0.56,0.354,0.84,0.705,0.84,1.058l0.24,0.239c0.192,0,0.368,0.232,0.528,0.695c0.16,0.465,0.24,0.969,0.24,1.512
		c0,0.449-0.08,0.834-0.24,1.152c-0.128,0.608-0.344,1.137-0.648,1.584c-0.305,0.449-0.6,0.672-0.888,0.672
		c-0.353,0-0.528,0.098-0.528,0.289c0,0.129-0.063,0.191-0.191,0.191c-0.16,0-0.354-0.097-0.576-0.287
		c-0.225-0.193-0.384-0.416-0.48-0.672c0-0.099,0.063-0.369,0.192-0.816c0.127-0.447,0.256-0.943,0.384-1.488
		c0.097-0.385,0.145-0.721,0.145-1.008c0-0.641-0.24-0.961-0.721-0.961c-0.257,0-0.512,0.064-0.768,0.193
		c-1.28,0.702-2.417,1.823-3.408,3.358c-0.992,1.535-1.824,3.648-2.496,6.336c-0.16,0.705-0.24,1.265-0.24,1.681
		c0,0.319,0.024,0.575,0.072,0.768c0.048,0.193,0.104,0.305,0.168,0.336c0.16,0.064,0.496,0.098,1.008,0.098
		c1.185,0,2.017-0.145,2.496-0.434c1.023-0.543,2.16-1.279,3.408-2.207c0.127-0.096,0.32-0.264,0.576-0.504s0.496-0.408,0.72-0.504
		c0.225-0.353,0.433-0.568,0.624-0.648c0.192-0.08,0.496-0.119,0.912-0.119c0.416,0.128,0.751,0.296,1.008,0.505
		c0.255,0.207,0.255,0.375,0,0.504c-0.096,0-0.161,0.03-0.191,0.096c-0.032,0.063-0.048,0.111-0.048,0.145
		c0.063,0.16-0.192,0.56-0.769,1.199c-0.576,0.642-1.216,1.24-1.92,1.801c-0.704,0.56-1.184,0.841-1.44,0.841
		c-0.128,0-0.239,0.016-0.336,0.047c-0.096,0.033-0.144,0.112-0.144,0.239c0,0.13-0.488,0.425-1.464,0.89
		c-0.978,0.463-1.77,0.76-2.376,0.887C127.366,247.744,127.03,247.777,126.807,247.777z"/>
	<path fill="#FFFFFF" d="M139.503,245.881c-0.208-0.209-0.312-0.344-0.312-0.408c0-0.352-0.081-0.625-0.24-0.816
		c-0.063-0.063-0.096-0.206-0.096-0.432c0-0.512,0.247-1.385,0.744-2.615c0.496-1.231,1.144-2.567,1.943-4.01
		c0.192-0.19,0.439-0.527,0.744-1.008c0.304-0.479,0.504-0.75,0.601-0.814c0-0.129,0.048-0.248,0.144-0.36
		c0.096-0.111,0.208-0.168,0.336-0.168v-0.287c0-0.289,0.528-0.984,1.584-2.088c1.056-1.105,1.92-1.865,2.592-2.281
		c0.799-0.543,1.615-0.814,2.448-0.814c0.576,0,1.072,0.16,1.488,0.479c0.16,0.193,0.896,0.881,2.208,2.063l1.775,1.584l-0.863,2.4
		c-0.288,0.863-0.433,1.648-0.433,2.353c0,1.217,0.353,2.385,1.057,3.504c0.159,0.354,0.479,0.688,0.96,1.008
		c0.479,0.319,0.96,0.514,1.439,0.576c0.704,0.129,1.057,0.479,1.057,1.057c0,0.641-0.288,1.023-0.864,1.152
		c-0.128,0.03-0.32,0.047-0.576,0.047c-1.889,0-3.521-1.326-4.896-3.984c-0.129-0.19-0.297-0.543-0.505-1.055
		s-0.328-0.865-0.359-1.058c-0.192,0.257-0.433,0.562-0.721,0.912c-0.287,0.354-0.56,0.656-0.815,0.912
		c-3.488,3.488-6.24,5.232-8.256,5.232c-0.641,0-1.216-0.16-1.729-0.48C139.863,246.289,139.71,246.09,139.503,245.881z
		 M142.191,243.936c0.336-0.063,0.751-0.223,1.248-0.479c0.496-0.256,1-0.593,1.512-1.008c2.752-2.369,4.735-4.433,5.952-6.193
		l1.056-1.728c-0.319-0.672-0.655-1.159-1.008-1.465c-0.353-0.303-0.672-0.455-0.96-0.455c-0.672,0-1.728,0.841-3.168,2.521
		s-2.752,3.656-3.936,5.928c-0.288,0.545-0.545,1.096-0.769,1.656s-0.368,0.92-0.432,1.08
		C141.687,243.953,141.855,244.002,142.191,243.936z"/>
	<path fill="#FFFFFF" d="M160.982,246c-0.096-0.16-0.145-0.398-0.145-0.72c0-0.288,0.017-0.528,0.049-0.721
		c0.096-1.088,0.336-2.352,0.72-3.793l0.24-0.959c0.096-0.799,0.655-2.479,1.68-5.041c1.023-2.559,1.854-4.303,2.496-5.229
		c0.256-0.16,0.527-0.24,0.815-0.24c0.416,0,0.769,0.145,1.057,0.432c0.191,0.129,0.288,0.369,0.288,0.722
		c0,0.319-0.12,0.791-0.36,1.416c-0.24,0.622-0.648,1.543-1.224,2.76c-0.128,0.256-0.345,0.735-0.648,1.438
		c-0.304,0.705-0.456,1.121-0.456,1.248c0,0.064,0.017,0.097,0.048,0.097c0.063,0,0.127-0.023,0.192-0.072
		c0.063-0.047,0.127-0.088,0.191-0.119c0.353-0.607,1.208-1.439,2.568-2.496s2.296-1.711,2.809-1.969
		c0.224-0.127,0.512-0.256,0.863-0.383c0.353-0.129,0.592-0.226,0.721-0.289c0.512-0.256,1.119-0.384,1.823-0.384
		c0.448,0,0.84,0.07,1.177,0.216c0.336,0.145,0.567,0.36,0.695,0.647c0.031,0.226,0.12,0.4,0.265,0.527
		c0.144,0.129,0.248,0.209,0.312,0.24c0.096,0,0.16,0.041,0.192,0.12c0.031,0.08,0.048,0.138,0.048,0.169
		c0,0.223-0.128,0.358-0.384,0.407c-0.257,0.047-0.721,0.088-1.393,0.119c-0.353,0.031-0.72,0.113-1.104,0.24
		c-0.385,0.129-0.769,0.287-1.152,0.479c-1.792,1.023-3.128,1.824-4.008,2.398c-0.88,0.576-1.77,1.361-2.664,2.354
		c-0.354,0.383-0.816,1.071-1.392,2.063c-0.225,0.225-0.456,0.809-0.696,1.752c-0.24,0.945-0.36,1.529-0.36,1.752
		c-0.033,0.098-0.096,0.281-0.191,0.553c-0.097,0.271-0.24,0.537-0.433,0.793c-0.384,0.513-0.705,0.769-0.96,0.769
		c-0.288,0-0.672-0.256-1.151-0.769C161.254,246.336,161.078,246.16,160.982,246z"/>
	<path fill="#FFFFFF" d="M180.11,246.84c-0.528-0.592-0.873-1.144-1.032-1.656c0-0.063-0.032-0.135-0.096-0.215
		c-0.064-0.08-0.112-0.137-0.145-0.168c-0.128-0.096-0.191-0.625-0.191-1.584c0-0.769,0.04-1.568,0.12-2.4s0.184-1.504,0.312-2.016
		l0.864-2.545l0.672-1.92l1.296-2.783l-1.92-0.527c-0.224-0.032-0.408-0.145-0.552-0.336c-0.145-0.192-0.216-0.369-0.216-0.528
		c0-0.257,0.136-0.568,0.407-0.937c0.272-0.368,0.488-0.553,0.648-0.553c0.096,0.033,0.352,0.049,0.768,0.049
		c0.96,0,1.681-0.049,2.16-0.145c0.319-0.128,0.544-0.384,0.672-0.769c0.128-0.256,0.28-0.576,0.456-0.961
		c0.176-0.383,0.345-0.734,0.504-1.055c0.097-0.193,0.248-0.488,0.456-0.89c0.208-0.399,0.473-0.854,0.792-1.366
		c0.064-0.097,0.208-0.328,0.433-0.697c0.224-0.367,0.496-0.68,0.815-0.937c0.225-0.223,0.496-0.336,0.816-0.336
		s0.736,0.209,1.248,0.623c0.063,0.099,0.151,0.226,0.264,0.385c0.112,0.16,0.168,0.306,0.168,0.433
		c0,0.129-0.128,0.399-0.384,0.815c-0.192,0.386-0.376,0.729-0.552,1.033c-0.177,0.304-0.329,0.568-0.456,0.791
		c-0.384,0.642-0.656,1.121-0.816,1.439c-0.319,0.416-0.479,0.735-0.479,0.961c0,0.225,0.208,0.336,0.624,0.336
		c0.447,0,1.199-0.096,2.256-0.289c0.448-0.063,0.751-0.096,0.912-0.096c1.12,0,1.728,0.465,1.823,1.393
		c0.031,0.191,0.049,0.416,0.049,0.672c0,0.449-0.152,0.722-0.456,0.816c-0.306,0.096-0.984,0.145-2.04,0.145
		c-1.024,0.16-2.081,0.238-3.168,0.238c-0.192,0-0.408,0.01-0.648,0.025s-0.488,0.057-0.744,0.118
		c-0.256,0.064-0.439,0.16-0.552,0.289c-0.113,0.127-0.232,0.336-0.36,0.623c-0.096,0.097-0.319,0.465-0.672,1.104
		c-0.447,0.93-0.735,1.488-0.863,1.682c-0.864,2.56-1.505,5.185-1.921,7.871c-0.064,0.512-0.096,0.832-0.096,0.959
		c0,0.48,0.16,0.816,0.48,1.01c0.318,0.191,0.863,0.287,1.632,0.287c1.088,0,2.032-0.11,2.832-0.336
		c0.96-0.416,1.68-0.768,2.16-1.057c0.288-0.158,0.552-0.312,0.792-0.455c0.239-0.145,0.407-0.248,0.504-0.313
		c0.096-0.19,0.208-0.287,0.336-0.287c0.256,0,0.479,0.257,0.672,0.769c0,0.512-0.113,0.959-0.336,1.344
		c-0.224,0.385-0.784,0.832-1.68,1.344c-1.856,1.185-3.713,1.775-5.568,1.775c-0.513,0-0.993-0.047-1.44-0.143
		C181.157,247.777,180.638,247.434,180.11,246.84z"/>
	<path fill="#FFFFFF" d="M199.333,247.584c-0.8,0-1.56-0.191-2.279-0.576c-0.721-0.383-1.32-0.912-1.801-1.584
		c-0.417-0.512-0.72-1.086-0.912-1.728c-0.191-0.641-0.287-1.424-0.287-2.354c0-0.318,0.031-0.959,0.096-1.92
		c0.096-1.185,0.487-2.416,1.176-3.695s1.543-2.424,2.568-3.432c1.022-1.008,2.031-1.705,3.023-2.088
		c0.512-0.32,0.977-0.48,1.393-0.48c0.223,0,0.447,0.017,0.672,0.049c0.223,0.031,0.463,0.064,0.72,0.097
		c0.704,0.096,1.24,0.231,1.608,0.407c0.366,0.177,0.679,0.439,0.936,0.791c0.8,0.802,1.2,1.729,1.2,2.785
		c-0.128,0.769-0.624,1.648-1.488,2.64s-1.904,1.793-3.12,2.399c-0.576,0.191-1.231,0.287-1.968,0.287
		c-0.992,0-1.792-0.207-2.4-0.623c-0.287-0.096-0.512-0.145-0.672-0.145c-0.288,0-0.504,0.192-0.647,0.575
		c-0.145,0.386-0.281,1.089-0.408,2.113c-0.032,0.224-0.048,0.543-0.048,0.959c0,1.633,0.544,2.527,1.632,2.688
		c0.736,0.16,1.264,0.239,1.584,0.239c0.384,0,0.816-0.127,1.296-0.383l0.912-0.528c0.192-0.097,0.368-0.224,0.528-0.384
		c0.16-0.159,0.304-0.305,0.432-0.434c0.064-0.063,0.16-0.168,0.288-0.311c0.127-0.146,0.248-0.24,0.36-0.289
		c0.111-0.048,0.216-0.072,0.312-0.072c0.128,0,0.271,0.072,0.433,0.217c0.159,0.146,0.287,0.248,0.384,0.313
		c0.288,0,0.352,0.198,0.191,0.6c-0.161,0.4-0.504,0.863-1.031,1.393c-0.528,0.527-1.129,1-1.801,1.416
		C201.413,247.232,200.453,247.584,199.333,247.584z M203.821,235.152c0.56-0.575,0.84-1.057,0.84-1.438
		c0-0.385-0.144-0.703-0.432-0.961c-0.288-0.256-0.688-0.383-1.2-0.383c-0.384,0-0.672,0.03-0.864,0.096
		c-0.449,0.127-0.977,0.473-1.584,1.031c-0.607,0.561-1.136,1.129-1.584,1.705c-0.449,0.575-0.624,0.911-0.527,1.008
		c0.159,0.287,0.783,0.432,1.871,0.432c0.736,0,1.345-0.096,1.824-0.289C202.709,236.129,203.261,235.729,203.821,235.152z"/>
	<path fill="#FFFFFF" d="M231.925,248.064c-0.448-1.248-0.672-2.561-0.672-3.936c0-0.385,0.017-0.656,0.048-0.816l0.097-1.008
		l-1.872,1.488c-1.024,0.896-2.039,1.567-3.048,2.016c-1.008,0.449-1.93,0.672-2.761,0.672c-0.544-0.096-1.063-0.328-1.56-0.694
		c-0.497-0.367-0.857-0.81-1.08-1.32c-0.129-0.256-0.191-0.642-0.191-1.152c0-1.184,0.318-2.584,0.96-4.199
		c0.64-1.616,1.438-2.952,2.399-4.008c1.375-2.08,2.911-3.121,4.607-3.121c0.8,0,1.6,0.24,2.399,0.722
		c0.799,0.319,1.265,0.479,1.393,0.479c0.191,0,0.336-0.078,0.433-0.238c0.096-0.159,0.191-0.448,0.287-0.864
		c0.352-1.472,0.688-2.703,1.008-3.695c0.704-2.111,1.313-3.809,1.824-5.088s1.136-2.689,1.873-4.226
		c0.318-0.672,0.6-1.11,0.84-1.319c0.239-0.207,0.504-0.295,0.791-0.265c0.704,0,1.248,0.48,1.633,1.439
		c0.097,0.225,0.145,0.449,0.145,0.672c0,0.226-0.097,0.529-0.288,0.912c-0.832,1.441-1.855,3.793-3.072,7.057
		c-1.216,3.265-2.16,6.097-2.832,8.496c-0.287,1.058-0.535,2.576-0.744,4.562c-0.208,1.983-0.312,3.631-0.312,4.942
		c0,0.576,0.032,0.992,0.097,1.248c0.159,0.545,0.239,1.025,0.239,1.439c0,0.32-0.08,0.537-0.239,0.647
		c-0.161,0.111-0.417,0.185-0.769,0.218C232.757,249.313,232.213,248.961,231.925,248.064z M228.133,242.352
		c0.192-0.127,0.655-0.463,1.393-1.008c0.736-0.543,1.297-1.119,1.68-1.727c0.385-0.607,0.656-1.298,0.816-2.064
		c0.03-0.576-0.023-1.049-0.168-1.416c-0.146-0.367-0.424-0.729-0.84-1.08c-0.32-0.225-0.722-0.336-1.2-0.336
		c-0.864,0-1.664,0.352-2.399,1.057c-0.864,0.769-1.633,1.761-2.305,2.976c-0.672,1.217-1.185,2.625-1.535,4.225
		c-0.097,0.607,0.223,0.912,0.959,0.912c0.385,0,0.688-0.031,0.912-0.096C226.181,243.633,227.077,243.152,228.133,242.352z"/>
	<path fill="#FFFFFF" d="M245.413,247.584c-0.801,0-1.561-0.191-2.281-0.576c-0.719-0.383-1.318-0.912-1.799-1.584
		c-0.417-0.512-0.721-1.086-0.912-1.728c-0.191-0.641-0.289-1.424-0.289-2.354c0-0.318,0.032-0.959,0.098-1.92
		c0.096-1.185,0.486-2.416,1.176-3.695c0.688-1.279,1.544-2.424,2.568-3.432c1.022-1.008,2.031-1.705,3.023-2.088
		c0.511-0.32,0.976-0.48,1.393-0.48c0.224,0,0.447,0.017,0.672,0.049c0.224,0.031,0.464,0.064,0.72,0.097
		c0.703,0.096,1.24,0.231,1.608,0.407c0.366,0.177,0.679,0.439,0.936,0.791c0.8,0.802,1.2,1.729,1.2,2.785
		c-0.129,0.769-0.624,1.648-1.488,2.64c-0.863,0.991-1.904,1.793-3.119,2.399c-0.576,0.191-1.231,0.287-1.969,0.287
		c-0.992,0-1.793-0.207-2.4-0.623c-0.286-0.096-0.512-0.145-0.672-0.145c-0.287,0-0.504,0.192-0.646,0.575
		c-0.145,0.386-0.28,1.089-0.408,2.113c-0.032,0.224-0.048,0.543-0.048,0.959c0,1.633,0.544,2.527,1.632,2.688
		c0.735,0.16,1.264,0.239,1.584,0.239c0.384,0,0.815-0.127,1.296-0.383l0.912-0.528c0.192-0.097,0.367-0.224,0.528-0.384
		c0.158-0.159,0.304-0.305,0.432-0.434c0.063-0.063,0.16-0.168,0.288-0.311c0.127-0.146,0.248-0.24,0.359-0.289
		c0.111-0.048,0.217-0.072,0.313-0.072c0.128,0,0.271,0.072,0.432,0.217c0.161,0.146,0.289,0.248,0.386,0.313
		c0.287,0,0.352,0.198,0.19,0.6s-0.504,0.863-1.03,1.393c-0.528,0.527-1.13,1-1.802,1.416
		C247.492,247.232,246.532,247.584,245.413,247.584z M249.9,235.152c0.56-0.575,0.84-1.057,0.84-1.438
		c0-0.385-0.144-0.703-0.432-0.961c-0.288-0.256-0.688-0.383-1.2-0.383c-0.384,0-0.672,0.03-0.863,0.096
		c-0.449,0.127-0.977,0.473-1.584,1.031c-0.609,0.561-1.137,1.129-1.584,1.705c-0.449,0.575-0.625,0.911-0.529,1.008
		c0.16,0.287,0.784,0.432,1.873,0.432c0.735,0,1.345-0.096,1.824-0.289C248.788,236.129,249.341,235.729,249.9,235.152z"/>
	<path fill="#FFFFFF" d="M269.724,242.064c-0.528-1.889-0.938-3.711-1.226-5.473c-0.128-0.672-0.384-1.584-0.768-2.734
		c-0.129-0.512-0.192-0.864-0.192-1.057c0-0.576,0.24-1.008,0.72-1.297c0.129-0.097,0.313-0.168,0.554-0.215
		c0.24-0.05,0.438-0.058,0.6-0.025c0.703,0.258,1.344,2.209,1.92,5.857c0.097,0.928,0.24,1.76,0.433,2.496
		c0.191,0.735,0.305,1.168,0.336,1.295c0.097,0.192,0.209,0.393,0.336,0.6c0.129,0.209,0.271,0.313,0.433,0.313
		c0.097,0,0.208-0.063,0.336-0.191c0.607-0.607,1.265-1.375,1.968-2.305c0.77-1.056,1.298-1.761,1.584-2.111
		c0.353-0.545,0.816-1.184,1.394-1.92c0.096-0.127,0.319-0.433,0.672-0.912c0.352-0.48,0.688-0.889,1.008-1.225
		c0.32-0.336,0.592-0.535,0.816-0.601c0.096-0.031,0.24-0.049,0.432-0.049c0.544,0,0.816,0.225,0.816,0.672
		c0,0.418-0.288,1.041-0.864,1.873c-0.192,0.256-0.392,0.6-0.601,1.031c-0.208,0.432-0.345,0.682-0.408,0.744
		c-0.353,0.705-1,1.696-1.943,2.977c-0.943,1.279-1.576,2.08-1.896,2.4c-0.064,0.063-0.328,0.287-0.791,0.672
		c-0.465,0.383-0.89,0.848-1.272,1.393c-1.023,0.959-1.761,1.439-2.208,1.439c-0.288,0-0.576-0.146-0.863-0.433
		C270.69,245.025,270.251,243.953,269.724,242.064z"/>
	<path fill="#FFFFFF" d="M285.347,247.297c-0.226-0.127-0.546-0.367-0.959-0.721c-1.058-1.119-1.585-2.144-1.585-3.072
		c0-0.224,0.017-0.383,0.048-0.479c0.096-0.225,0.137-0.448,0.121-0.674c-0.019-0.223-0.025-0.367-0.025-0.432
		c-0.127-0.127-0.191-0.215-0.191-0.265c0-0.047,0.031-0.096,0.097-0.145c0.063-0.047,0.111-0.104,0.145-0.168
		c0.191,0,0.256-0.174,0.191-0.527c-0.064-0.256,0.063-0.824,0.385-1.703c0.319-0.881,0.72-1.688,1.199-2.424
		c0.352-0.576,0.872-1.297,1.561-2.16c0.688-0.864,1.304-1.52,1.849-1.969c0.768-0.672,1.456-1.168,2.063-1.488
		c0.607-0.317,1.279-0.559,2.017-0.721c0.641-0.158,1.071-0.238,1.297-0.238c0.223,0,0.423,0.056,0.6,0.168
		c0.176,0.111,0.408,0.312,0.695,0.601c0.863,0.383,1.465,0.871,1.801,1.463c0.336,0.594,0.504,1.514,0.504,2.762
		c0,2.08-0.849,4.336-2.545,6.769c-0.736,1.055-1.424,1.862-2.063,2.424c-0.641,0.561-1.486,1.16-2.544,1.799
		c-0.672,0.48-1.289,0.824-1.848,1.033c-0.561,0.209-1.193,0.328-1.896,0.358C285.875,247.488,285.57,247.424,285.347,247.297z
		 M292.715,239.953c0.465-0.771,0.903-1.744,1.32-2.929c0.159-0.545,0.239-1.2,0.239-1.969c0-0.961-0.128-1.504-0.383-1.633
		c-0.32-0.158-0.642-0.24-0.961-0.24c-0.704,0-1.439,0.32-2.207,0.961c-0.931,0.801-1.762,1.785-2.496,2.951
		c-0.737,1.17-1.488,2.617-2.256,4.346c-0.32,0.672-0.48,1.328-0.48,1.968c0,0.479,0.119,0.864,0.359,1.151
		c0.239,0.287,0.567,0.433,0.983,0.433c1.058,0,2.4-0.863,4.032-2.593C291.635,241.537,292.251,240.721,292.715,239.953z"/>
	<path fill="#FFFFFF" d="M305.46,247.584c-0.801,0-1.561-0.191-2.28-0.576c-0.72-0.383-1.319-0.912-1.8-1.584
		c-0.417-0.512-0.721-1.086-0.912-1.728c-0.191-0.641-0.288-1.424-0.288-2.354c0-0.318,0.031-0.959,0.097-1.92
		c0.096-1.185,0.487-2.416,1.176-3.695c0.689-1.279,1.544-2.424,2.568-3.432c1.022-1.008,2.031-1.705,3.023-2.088
		c0.512-0.32,0.976-0.48,1.393-0.48c0.224,0,0.447,0.017,0.672,0.049c0.224,0.031,0.464,0.064,0.72,0.097
		c0.703,0.096,1.24,0.231,1.608,0.407c0.366,0.177,0.679,0.439,0.936,0.791c0.8,0.802,1.2,1.729,1.2,2.785
		c-0.129,0.769-0.624,1.648-1.488,2.64c-0.862,0.991-1.903,1.793-3.119,2.399c-0.575,0.191-1.231,0.287-1.969,0.287
		c-0.992,0-1.793-0.207-2.399-0.623c-0.287-0.096-0.513-0.145-0.673-0.145c-0.286,0-0.504,0.192-0.646,0.575
		c-0.145,0.386-0.28,1.089-0.408,2.113c-0.032,0.224-0.048,0.543-0.048,0.959c0,1.633,0.544,2.527,1.632,2.688
		c0.735,0.16,1.264,0.239,1.584,0.239c0.384,0,0.815-0.127,1.296-0.383l0.912-0.528c0.192-0.097,0.367-0.224,0.528-0.384
		c0.159-0.159,0.304-0.305,0.432-0.434c0.063-0.063,0.16-0.168,0.288-0.311c0.127-0.146,0.248-0.24,0.359-0.289
		c0.111-0.048,0.217-0.072,0.313-0.072c0.128,0,0.271,0.072,0.433,0.217c0.16,0.146,0.289,0.248,0.385,0.313
		c0.287,0,0.352,0.198,0.19,0.6c-0.16,0.401-0.504,0.863-1.03,1.393c-0.528,0.527-1.129,1-1.802,1.416
		C307.539,247.232,306.579,247.584,305.46,247.584z M309.947,235.152c0.56-0.575,0.84-1.057,0.84-1.438
		c0-0.385-0.144-0.703-0.432-0.961c-0.288-0.256-0.688-0.383-1.2-0.383c-0.384,0-0.672,0.03-0.863,0.096
		c-0.449,0.127-0.977,0.473-1.584,1.031c-0.608,0.561-1.137,1.129-1.584,1.705c-0.449,0.575-0.625,0.911-0.529,1.008
		c0.16,0.287,0.784,0.432,1.873,0.432c0.735,0,1.345-0.096,1.824-0.289C308.835,236.129,309.388,235.729,309.947,235.152z"/>
	<path fill="#FFFFFF" d="M325.235,244.848c-0.064-0.19-0.096-0.527-0.096-1.008c0-0.479,0-0.814,0-1.008
		c-0.193,0.479-0.546,0.912-1.058,1.297c-0.735,0.735-1.473,1.279-2.208,1.631c-1.12,0.736-2.032,1.104-2.734,1.104
		c-0.642,0-1.248-0.352-1.824-1.057c-0.417-0.352-0.729-0.703-0.938-1.057c-0.208-0.353-0.312-0.783-0.312-1.295
		c0-0.353,0.047-0.736,0.144-1.152c0.063-1.184,0.231-2.32,0.504-3.408c0.271-1.088,0.792-2.479,1.561-4.176
		c1.023-2.016,1.76-3.359,2.209-4.031c0.159-0.063,0.367-0.098,0.623-0.098c0.319,0,0.584,0.098,0.793,0.289
		c0.207,0.19,0.327,0.447,0.358,0.768c0.097,0.129,0.146,0.306,0.146,0.527c0,0.801-0.48,2.113-1.44,3.938
		c-1.248,3.009-1.872,5.089-1.872,6.238c0,0.674,0.191,1.074,0.576,1.201c0.16,0.096,0.336,0.145,0.527,0.145
		c0.801,0,1.76-0.545,2.881-1.633c1.119-1.088,2.191-2.832,3.216-5.231c0.448-1.088,0.72-2.207,0.815-3.359
		c-0.031-0.096-0.047-0.24-0.047-0.432c0-0.576,0.287-1.039,0.862-1.394c0.127-0.19,0.305-0.344,0.527-0.455
		c0.225-0.112,0.368-0.104,0.433,0.023l0.77-0.049c0.096-0.031,0.19,0.057,0.287,0.264c0.097,0.209,0.191,0.346,0.289,0.408
		c0.223,0.193,0.336,0.545,0.336,1.057c0,1.058-0.465,2.672-1.394,4.849c-0.607,1.28-1.016,2.264-1.225,2.952
		c-0.208,0.688-0.328,1.353-0.359,1.992c0,1.215,0.463,2.224,1.394,3.023c0.317,0.225,0.511,0.463,0.575,0.719
		c0.063,0.258,0.078,0.609,0.048,1.057c-0.064,0.289-0.248,0.521-0.553,0.695c-0.304,0.176-0.632,0.267-0.982,0.267
		c-0.416,0-0.785-0.113-1.104-0.337C326.194,247.377,325.619,246.289,325.235,244.848z"/>
	<path fill="#FFFFFF" d="M346.69,247.777c-0.192,0-0.425-0.049-0.696-0.145s-0.552-0.209-0.84-0.336
		c-0.673-0.289-1.648-0.992-2.929-2.113c-1.279-1.119-1.92-1.871-1.92-2.256c0-0.096-0.017-0.158-0.048-0.191
		c-0.032-0.03-0.097-0.047-0.191-0.047c-0.032-0.033-0.089-0.098-0.169-0.192c-0.08-0.096-0.119-0.207-0.119-0.336
		c0-0.127-0.049-0.24-0.146-0.336c-0.096-0.097-0.208-0.146-0.336-0.146c-0.159,0.129-0.495,0.408-1.008,0.84
		c-0.512,0.435-1.04,0.922-1.584,1.465c-1.023,1.025-1.729,1.705-2.11,2.041c-0.386,0.336-0.689,0.504-0.912,0.504
		c-0.386,0-0.824-0.2-1.32-0.602c-0.496-0.398-0.744-0.791-0.744-1.176c0.16-0.224,0.568-0.681,1.226-1.367
		c0.653-0.688,1.352-1.353,2.088-1.992l3.07-3.022l-0.527-1.824c-0.576-1.248-0.992-2.256-1.248-3.025
		c-0.191-0.254-0.344-0.471-0.455-0.646c-0.113-0.177-0.168-0.328-0.168-0.457c0-0.127,0.127-0.367,0.384-0.72
		c0.352-0.352,0.624-0.528,0.815-0.528c0.159,0,0.385,0.096,0.672,0.289c0.256,0,0.664,0.535,1.225,1.606
		c0.561,1.072,0.84,1.816,0.84,2.232s0.146,0.623,0.433,0.623c0.319,0,0.942-0.303,1.873-0.912c0.352-0.318,0.631-0.592,0.84-0.814
		c0.207-0.225,0.344-0.368,0.408-0.434c0.383-0.287,0.982-0.719,1.799-1.295c0.815-0.576,1.336-0.912,1.561-1.008
		c0.16-0.097,0.288-0.146,0.384-0.146c0.385,0,0.751,0.209,1.104,0.623c0.352,0.418,0.527,0.851,0.527,1.297
		c0,0.386-0.097,0.689-0.287,0.912c-0.192,0.226-0.609,0.512-1.248,0.863c-0.161,0.129-0.656,0.498-1.488,1.104
		c-0.832,0.607-1.872,1.439-3.12,2.496l-1.248,1.008l0.77,1.296c0.511,1.024,0.928,1.616,1.248,1.776
		c0.255,0.353,0.887,0.91,1.896,1.681c1.008,0.768,1.575,1.149,1.704,1.149c0.096,0,0.247,0.066,0.455,0.193
		c0.209,0.127,0.393,0.225,0.553,0.287c0.384,0.385,0.576,0.815,0.576,1.297c0,0.512-0.192,0.768-0.576,0.768
		C347.187,248.064,346.851,247.969,346.69,247.777z"/>
</g>
</svg>
