<?xml version="1.0" encoding="utf-8"?>
<!-- Generator: Adobe Illustrator 20.1.0, SVG Export Plug-In . SVG Version: 6.00 Build 0)  -->
<svg version="1.1" id="Calque_1" xmlns="http://www.w3.org/2000/svg" xmlns:xlink="http://www.w3.org/1999/xlink" x="0px" y="0px"
	 viewBox="0 0 432 432" style="enable-background:new 0 0 432 432;" xml:space="preserve">
<style type="text/css">
	.st0{fill:#008D36;}
	.st1{fill:#D82116;}
	.st2{fill-rule:evenodd;clip-rule:evenodd;fill:#CC7B26;}
	.st3{fill:#CC7B26;}
	.st4{fill:#E30613;}
	.st5{fill:#36A9E1;}
	.st6{fill:#020203;}
	.st7{fill:#2FAC66;}
	.st8{fill:#432918;}
	.st9{fill:#CF7913;}
	.st10{fill:#D0A556;}
	.st11{fill:#1D71B8;}
	.st12{fill:#D60B52;}
	.st13{fill-rule:evenodd;clip-rule:evenodd;fill:#36A9E1;}
	.st14{fill:#D48C41;}
	.st15{fill:#FFFFFF;}
	.st16{fill:#00A19A;}
	.st17{fill:#95C11F;}
</style>
<g>
	<g>
		<g>
			<path d="M174.6,199.8c0.3,0.7,0.6,1.4,1.1,1.9c0.5,0.5,1,0.8,1.7,0.8c0.7,0,1.4,0.1,2.1,0.3c0.7,0.2,1.4,0.4,1.9,0.5
				c0.6,0.1,1,0.1,1.4,0c0.4-0.1,0.5-0.6,0.5-1.3c0-1.5-0.5-2.8-1.5-4c-1-1.2-2.1-2-3.3-2.7c-1.2-0.6-2.3-0.9-3.3-0.9
				c-1,0-1.5,0.4-1.5,1.1c0,0.5,0.1,1.1,0.2,1.9C174.2,198.3,174.4,199.1,174.6,199.8z"/>
			<path d="M366.7,218.4c-0.1-0.1-0.3-0.2-0.5-0.2c-0.2,0-0.4,0.1-0.6,0.2c-0.2,0.2-0.3,0.4-0.4,0.7c-0.4,1.5-1,3-1.8,4.3
				c-0.8,1.3-1.9,2.7-3.1,4c-1.2,1.3-2.7,2.7-4.4,4.1c-1.7,1.4-3.5,3-5.5,4.6c-1-2.1-2.2-4.1-3.5-6c-1.3-2-2.6-3.8-3.8-5.6
				c-1.2-1.8-2.2-3.4-3.1-4.9c-0.8-1.5-1.3-2.8-1.3-4c0-0.6,0.2-1.3,0.7-2.1c0.5-0.8,1.1-1.6,1.9-2.3c0.8-0.7,1.7-1.3,2.7-1.8
				c1-0.5,2.1-0.7,3.2-0.7c0.7,0,1.3,0.1,1.8,0.4c0.5,0.3,0.9,0.6,1.2,0.9c0.3,0.3,0.6,0.7,0.9,0.9c0.2,0.3,0.5,0.4,0.9,0.4
				c0.6,0,1-0.2,1.3-0.5c0.3-0.4,0.5-0.8,0.5-1.2c0-0.5-0.2-1.1-0.7-1.7c-0.5-0.6-1.1-1.3-2-1.9c-0.9-0.6-1.9-1.1-3.1-1.6
				c-1.2-0.4-2.6-0.6-4.1-0.6c-1.5,0-3.1,0.3-4.7,0.9c-1.6,0.6-3,1.3-4.3,2.3c-1.3,0.9-2.4,2-3.2,3.3c-0.8,1.3-1.3,2.6-1.3,4
				c0,2,0.6,4.1,1.8,6.3c0.7,1.2,1.4,2.5,2.2,3.8c-0.5,1.3-1,2.7-1.6,4.2c-0.7,1.8-1.5,3.6-2.3,5.5c-0.9,1.9-1.8,3.6-2.7,5.1
				c-0.9,1.5-1.9,2.8-2.9,3.8c-1,1-2,1.5-3,1.5c-1,0-1.8-0.4-2.2-1.3c-0.5-0.9-0.8-2-0.9-3.3c-0.1-1.3-0.2-2.8-0.1-4.4
				c0.1-1.6,0.2-3.1,0.4-4.5c0.2-1.4,0.4-2.7,0.5-3.7c0.2-1,0.3-1.7,0.3-2c0-0.4-0.1-0.9-0.3-1.6c-0.2-0.6-0.4-1.3-0.8-1.9
				c-0.3-0.6-0.8-1.2-1.3-1.6c-0.5-0.4-1.1-0.7-1.8-0.7c-0.6,0-1.2,0.3-1.7,0.8c-0.5,0.5-1,1.3-1.4,2.2c-0.1,0.2-0.2,0.4-0.2,0.6
				c-0.1,0.2-0.2,0.5-0.2,0.7c-0.3,0.8-0.7,1.7-1.2,2.9c-0.5,1.2-1,2.3-1.6,3.4c-0.5,1.1-1.1,2-1.7,2.8c-0.6,0.8-1.1,1.2-1.5,1.2
				c-0.6,0-0.9-0.4-1.1-1.2c-0.1-0.8-0.2-1.6-0.2-2.5c0-1.3,0.3-2.9,0.9-4.8c0.6-1.9,1.4-3.6,2.4-5.3c1-1.7,2.1-3.1,3.4-4.3
				c1.3-1.2,2.5-1.8,3.8-1.8c1.1,0,2,0.2,2.8,0.5c0.8,0.4,1.4,0.7,1.8,1c0.4,0.3,0.8,0.5,1,0.5c0.2,0,0.3-0.3,0.3-0.9
				c0-0.6-0.1-1.3-0.4-2c-0.3-0.7-0.7-1.3-1.3-1.9c-0.5-0.5-1.2-1-2-1.3c-0.8-0.3-1.7-0.5-2.7-0.5c-2.7,0-5.1,0.6-7.1,1.8
				s-3.8,2.7-5.2,4.5c-1.4,1.8-2.5,3.6-3.2,5.6c-0.7,2-1.1,3.7-1.1,5.1c0,1.3,0.2,2.5,0.6,3.7c0.4,1.2,1,2.2,1.6,3.1
				c0,0.1,0.1,0.1,0.1,0.2c-0.7,2.4-1.4,4.9-2.2,7.4c-0.9,3-1.9,5.6-2.8,8.1c-1,2.4-1.9,4.4-2.8,6c-0.9,1.5-1.8,2.3-2.6,2.3
				c-1.2,0-2-0.6-2.4-1.8c-0.4-1.2-0.6-2.8-0.5-4.9c0.1-2,0.3-4.3,0.7-6.9c0.4-2.6,0.8-5.2,1.3-7.9c0.5-2.7,0.9-5.3,1.3-7.9
				c0.4-2.6,0.6-4.9,0.6-6.9c0-2-0.2-3.6-0.6-4.9c-0.4-1.2-1.3-1.8-2.6-1.8c-1.8,0-3.4,0.5-4.8,1.6c-1.4,1.1-2.5,2.4-3.5,4.1
				c-1,1.6-1.8,3.4-2.5,5.2c-0.7,1.9-1.2,3.6-1.7,5.2c-0.4,1.6-0.8,3-1.1,4.1c-0.3,1.1-0.5,1.6-0.7,1.6c-0.1,0-0.2-0.3-0.2-1
				c0-0.7,0-1.6-0.1-2.6c0-1-0.1-2.2-0.2-3.4c-0.1-1.2-0.3-2.3-0.6-3.4c-0.3-1-0.7-1.9-1.2-2.6c-0.5-0.7-1.2-1-2.1-1
				c-0.9,0-1.8,0.4-2.5,1.1c-0.8,0.8-1.4,1.7-2,2.8c-0.6,1.1-1.1,2.4-1.5,3.8c-0.4,1.4-0.8,2.7-1,3.9c-0.2-1.1-0.3-2.2-0.5-3.3
				c-0.1-0.9-0.2-1.9-0.4-3s-0.2-2.1-0.3-3c-0.1-1.7-0.5-3.2-1.1-4.5c-0.6-1.3-1.4-2.3-2.3-3.2c-0.9-0.9-1.8-1.5-2.9-1.9
				c-1-0.4-2-0.6-3-0.6c-1,0-1.8,0.1-2.3,0.2c-0.6,0.1-1,0.2-1.4,0.4c-0.3,0.2-0.5,0.4-0.6,0.6c-0.1,0.2-0.2,0.4-0.2,0.6
				c0,0.4,0.1,0.8,0.2,1.1c0.1,0.3,0.3,0.6,0.5,0.9c0.2,0.3,0.4,0.7,0.5,1.1c0.2,0.4,0.3,0.9,0.4,1.6c0,0.4,0.1,1.6,0.3,3.6
				c0.1,1.4,0.2,3,0.4,4.7c-0.1,0.3-0.2,0.6-0.3,1c-0.6,2-1.3,4.1-2,6.3c-0.8,2.1-1.6,4.1-2.5,5.8c-0.9,1.7-1.8,3.2-2.7,4.3
				c-0.9,1.1-1.8,1.7-2.7,1.7c-0.9,0-1.6-0.6-2.2-1.8c-0.6-1.2-1.1-2.8-1.6-4.7c-0.4-2-0.8-4.2-1.1-6.6c-0.3-2.4-0.5-4.9-0.7-7.3
				c-0.2-2.4-0.3-4.8-0.3-6.9c-0.1-2.2-0.1-4-0.1-5.5c0-3.1,0.2-6.1,0.6-9.2c0.4-3.1,0.9-6.1,1.5-9.1c0.8,0,1.6,0.1,2.4,0.2
				c0.7,0.1,1.5,0.2,2.4,0.2c0.9,0.1,1.8,0.2,2.7,0.3c0.3,0,0.5,0,0.7-0.2c0.2-0.1,0.3-0.3,0.3-0.5c0-0.2,0-0.4-0.2-0.6
				c-0.1-0.2-0.3-0.3-0.6-0.3c-1-0.2-2.1-0.3-3.3-0.4c-1.2-0.1-2.6-0.2-4-0.4c0.6-2.9,1.1-5.5,1.5-7.8c0.4-2.3,0.7-4.2,0.7-5.7
				c0-1.4-0.2-2.5-0.7-3.5c-0.5-0.9-1-1.7-1.7-2.3c-0.7-0.6-1.4-1-2.1-1.2c-0.7-0.2-1.3-0.3-1.7-0.3c-0.3,0-0.7,0.6-1.1,1.7
				c-0.5,1.1-1,2.7-1.5,4.6c-0.5,1.9-1.1,4.1-1.6,6.6c-0.5,2.5-1,5.1-1.5,7.8c-1.7,0.1-3.1,0.3-4.3,0.5c-1.2,0.2-2.1,0.4-3,0.6
				c-0.4,0.1-0.6,0.2-0.8,0.4c-0.1,0.2-0.2,0.4-0.2,0.5c0,0.2,0.1,0.3,0.3,0.5c0.2,0.1,0.4,0.2,0.7,0.1c0.9-0.2,1.7-0.3,2.5-0.4
				c0.8-0.1,1.6-0.2,2.3-0.2c0.7-0.1,1.5-0.1,2.2-0.1c-0.5,2.9-0.9,5.8-1.2,8.5c-0.3,2.8-0.5,5.2-0.5,7.4c0,2.6,0.1,5.1,0.3,7.6
				c-0.3,0.9-0.8,1.8-1.3,2.6c-0.8,1.3-1.9,2.7-3.1,4c-1.2,1.3-2.7,2.7-4.4,4.1c-1.7,1.4-3.5,3-5.5,4.6c-1-2.1-2.2-4.1-3.5-6
				c-1.3-2-2.6-3.8-3.8-5.6c-1.2-1.8-2.2-3.4-3.1-4.9c-0.8-1.5-1.3-2.8-1.3-4c0-0.6,0.2-1.3,0.7-2.1c0.5-0.8,1.1-1.6,1.9-2.3
				c0.8-0.7,1.7-1.3,2.7-1.8c1-0.5,2.1-0.7,3.2-0.7c0.7,0,1.3,0.1,1.8,0.4c0.5,0.3,0.9,0.6,1.2,0.9c0.3,0.3,0.6,0.7,0.9,0.9
				c0.2,0.3,0.5,0.4,0.9,0.4c0.6,0,1-0.2,1.3-0.5c0.3-0.4,0.5-0.8,0.5-1.2c0-0.5-0.2-1.1-0.7-1.7c-0.5-0.6-1.1-1.3-2-1.9
				c-0.9-0.6-1.9-1.1-3.1-1.6c-1.2-0.4-2.6-0.6-4.1-0.6c-1.5,0-3.1,0.3-4.7,0.9c-1.6,0.6-3,1.3-4.3,2.3c-1.3,0.9-2.4,2-3.2,3.3
				c-0.8,1.3-1.3,2.6-1.3,4c0,2,0.6,4.1,1.8,6.3c0.5,0.9,1,1.9,1.6,2.8c-0.4,0.9-0.8,1.9-1.3,3c-0.6,1.4-1.3,2.8-2,4.3
				c-0.7,1.5-1.5,2.8-2.3,4c-0.8,1.2-1.6,2.2-2.4,2.9c-0.8,0.8-1.6,1.1-2.4,1.1c-1,0-1.8-0.4-2.3-1.2c-0.5-0.8-0.9-1.9-1-3.2
				c-0.2-1.3-0.2-2.8-0.1-4.4c0.1-1.6,0.2-3.3,0.4-4.9c0.2-1.6,0.3-3.2,0.5-4.6c0.2-1.5,0.3-2.7,0.3-3.7c0-1.7-0.4-3.1-1.3-4
				c-0.8-1-1.8-1.6-2.7-1.9c-1-0.3-1.9-0.3-2.7,0c-0.8,0.3-1.3,0.8-1.3,1.6c0,0.7-0.1,1.8-0.2,3.2c-0.2,1.4-0.4,2.9-0.6,4.6
				c-0.2,1.7-0.4,3.4-0.6,5.2c0,0.4-0.1,0.7-0.1,1c-0.4,1.8-0.8,3.8-1.3,5.9c-0.6,2.7-1.3,5.4-2,8.3c-0.7,2.8-1.4,5.4-2,7.8
				c-0.7,2.3-1.3,4.2-1.9,5.7c-0.6,1.5-1.1,2.3-1.5,2.3c-0.4,0-0.7-0.6-0.7-1.8c0-1.2,0.1-2.7,0.3-4.6c0.2-1.9,0.5-4.1,0.8-6.6
				c0.3-2.5,0.6-5,0.8-7.5c0.2-2.5,0.4-5,0.4-7.5c0-2.5-0.1-4.6-0.5-6.6c-0.4-1.9-1-3.5-1.8-4.6c-0.9-1.2-2.1-1.8-3.7-1.8
				c-0.9,0-1.8,0.2-2.7,0.5c-1,0.3-1.9,0.6-2.7,0.9c-1,0.4-1.9,0.9-2.8,1.4c0.5-2.8,0.8-5.4,1-7.6c0-0.9,0-1.9,0-2.8
				c-0.1-0.9-0.2-1.7-0.4-2.5c-0.2-0.7-0.5-1.3-0.9-1.7c-0.4-0.4-0.9-0.7-1.6-0.7c-0.7,0-1.3,0.3-1.9,0.9c-0.6,0.6-1.1,1.4-1.5,2.3
				c-0.4,0.9-0.7,1.9-1,3c-0.2,1.1-0.3,2.1-0.3,3.1c0,0.8,0,1.7,0.2,2.6c0.1,0.9,0.3,1.8,0.6,2.6c0.1,0.3,0.2,0.6,0.4,0.9
				c0,0,0,0-0.1,0c-0.2,0-0.3,0.1-0.5,0.2c-0.2,0.2-0.3,0.4-0.3,0.8c-0.1,0.7-0.2,1.9-0.5,3.4c-0.2,1.5-0.5,3.3-0.9,5.2
				c-0.4,2-0.8,4.1-1.3,6.4c-0.5,2.3-1,4.6-1.6,6.9c-0.5,2.3-1.1,4.5-1.7,6.6c-0.6,2.1-1.2,4-1.9,5.6c-0.7,1.6-1.3,2.9-2,3.9
				c-0.7,1-1.3,1.5-1.9,1.5c-0.8,0-1.5-0.4-1.9-1.3c-0.5-0.9-0.8-2.1-1.1-3.6c-0.3-1.5-0.4-3.3-0.5-5.4c-0.1-2.1-0.1-4.3-0.1-6.6
				c0-2.6,0.2-5.4,0.7-8.4c0.5-3,1-6.1,1.5-9.1c0.5-3.1,0.9-6,1.3-8.9c0.4-2.8,0.4-5.4,0.2-7.6c-0.2-2.2-0.8-4-1.9-5.3
				c-1-1.3-2.6-2-4.8-2c-1.5,0-2.9,0.4-4,1.3c-1.1,0.9-2,2-2.8,3.4c-0.8,1.4-1.4,3-1.8,4.8c-0.5,1.8-0.8,3.5-1.1,5.3
				c-0.3,1.8-0.4,3.5-0.5,5.2c-0.1,1.7-0.2,3.1-0.2,4.3c-0.4-1.5-0.9-3.2-1.5-5.2c-0.5-2-1.1-4-1.6-6.1c-0.5-2.1-1.1-4.3-1.5-6.6
				c-0.5-2.2-0.8-4.4-1.1-6.6c0.9-0.8,2-1.8,3.2-3.1c1.2-1.2,2.5-2.6,3.9-4c1.3-1.4,2.7-3,4-4.6c1.3-1.6,2.5-3.2,3.5-4.9
				c1-1.6,1.9-3.2,2.5-4.8c0.7-1.6,1-3,1-4.4c0-1.1-0.1-2.2-0.3-3.3c-0.2-1.1-0.6-2.1-1.2-3c-0.6-0.9-1.4-1.6-2.4-2.2
				c-1-0.6-2.3-0.9-3.8-0.9c-2.2,0-4.2,0.4-6.1,1.3c-1.9,0.8-3.6,2-5.1,3.4c-1.5,1.4-2.9,3.1-4.1,5c-1.2,1.9-2.2,3.9-3,6.1
				c-0.8,2.1-1.4,4.3-1.8,6.6c-0.4,2.3-0.6,4.5-0.6,6.7c0,4.8,0.2,9.2,0.7,13c0.4,3.8,1,7.2,1.7,10c0.3,1.2,0.6,2.3,0.9,3.4
				c0,0.1,0,0.1,0,0.2c-0.1,1.4-0.4,3.2-0.7,5.3c-0.3,2.1-0.8,4.3-1.3,6.7c-0.6,2.4-1.3,4.6-2.2,6.7c-0.9,2.1-1.9,3.9-3.1,5.3
				c-1.2,1.4-2.6,2.2-4.3,2.4c-1.5,0.2-2.8-0.2-4.1-1.1c-1.3-0.9-2.5-2.2-3.6-3.8c-1.1-1.6-2.1-3.5-3-5.5c-0.9-2.1-1.7-4.2-2.4-6.5
				c-0.7-2.2-1.3-4.4-1.7-6.6c-0.5-2.2-0.8-4.1-0.9-5.8c-0.2-1.7-0.3-3.6-0.4-5.7c-0.1-2.1-0.1-4.2,0-6.3c0.1-2.1,0.4-4.2,0.8-6.3
				c0.4-2,1.1-3.9,1.9-5.5c0.9-1.6,2-3,3.4-4.1c1.4-1.1,3.1-1.7,5.2-2c1.1-0.1,2,0,2.8,0.5c0.8,0.4,1.5,1,2.1,1.7
				c0.6,0.7,1.1,1.5,1.5,2.5c0.4,0.9,0.8,1.9,1.1,2.8c0.3,0.9,0.6,1.8,0.8,2.5c0.2,0.8,0.4,1.4,0.6,1.8c0.1,0.4,0.3,0.6,0.5,0.7
				c0.2,0.1,0.4,0.2,0.6,0.1c0.2,0,0.3-0.2,0.4-0.4c0.1-0.2,0.1-0.6,0-1c-0.1-0.6-0.3-1.5-0.6-2.5c-0.2-1-0.6-2.2-1-3.3
				c-0.4-1.2-1-2.4-1.7-3.5c-0.7-1.2-1.5-2.2-2.5-3.1c-1-0.9-2.2-1.6-3.6-2.1c-1.4-0.5-3-0.6-4.9-0.4c-2.7,0.3-5.1,1.4-7.4,3.3
				c-2.3,2-4.2,4.5-5.7,7.7c-1.6,3.1-2.7,6.8-3.3,10.8c-0.7,4.1-0.8,8.4-0.3,12.9c0.3,3,0.9,5.9,1.7,8.7c0.8,2.8,1.9,5.5,3.1,8
				c1.2,2.5,2.6,4.8,4.1,6.8c1.5,2.1,3.1,3.8,4.7,5.3c1.6,1.4,3.3,2.5,4.9,3.3c1.7,0.7,3.2,1,4.8,0.9c2.3-0.2,4.3-1.2,5.9-2.9
				c1.6-1.7,3-3.7,4.2-6.1c1.1-2.4,2.1-5,2.8-7.7c0.7-2.8,1.2-5.3,1.6-7.7c0.2-1.3,0.4-2.5,0.5-3.7c0.1,0.2,0.2,0.5,0.3,0.7
				c0.9,2,1.7,3.7,2.5,4.9c0.8,1.3,1.5,2.2,2.2,2.8c0.7,0.6,1.1,0.9,1.5,0.9c0.5,0,1.1,0,1.9-0.1c0.8-0.1,1.6-0.2,2.3-0.4
				c0.8-0.2,1.4-0.5,2-0.9c0.5-0.4,0.8-0.8,0.8-1.4v-0.1c0.2-0.8,0.3-2.1,0.3-3.8c0-1.7,0.1-3.6,0.3-5.7c0.1-2.1,0.4-4.2,0.7-6.4
				c0.3-2.2,0.8-4.2,1.5-6c0.7-1.8,1.6-3.3,2.7-4.5c1.1-1.2,2.5-1.7,4.2-1.7c0.5,0,0.9,0.2,1.2,0.5c0.3,0.3,0.5,0.8,0.6,1.3
				c0.1,0.5,0.2,1,0.2,1.5c0,0.5,0,1,0,1.3c0,2.1-0.3,4.5-0.9,7.1c-0.6,2.7-1.3,5.6-2.1,8.9c-0.8,3.2-1.4,6.6-2.1,10.3
				c-0.6,3.6-0.9,7.4-0.9,11.4c0,2.6,0.2,4.9,0.6,7c0.4,2.1,1,3.9,1.7,5.3c0.7,1.5,1.6,2.6,2.6,3.4c1,0.8,2.1,1.2,3.4,1.2
				c1.1,0,2.1-0.5,3-1.6c1-1,1.9-2.4,2.7-4.2c0.8-1.8,1.6-3.8,2.3-6c0.7-2.3,1.4-4.6,2-7.1c0.6-2.5,1.2-4.9,1.7-7.4
				c0.5-2.5,0.9-4.8,1.3-6.9c0.4-2.1,0.7-4,0.9-5.6c0.2-1.6,0.4-2.8,0.5-3.6c0-0.1,0-0.2,0-0.3c0.1,0.1,0.2,0.3,0.3,0.4
				c0.4,0.5,1,0.8,1.8,0.8c0.8,0,1.6-0.1,2.3-0.3c0.7-0.2,1.4-0.5,2-0.8c0.6-0.3,1.2-0.5,1.7-0.8c0.5-0.2,1-0.3,1.4-0.3
				c-0.4,4.1-0.7,7.8-0.9,11.2c-0.1,1.5-0.2,2.9-0.3,4.4c-0.1,1.4-0.2,2.8-0.3,4c-0.1,1.2-0.2,2.3-0.2,3.2c0,0.9-0.1,1.6-0.1,2
				c0,0.8,0,1.8,0,2.9c0,1.2,0.1,2.4,0.3,3.8c0.2,1.3,0.4,2.6,0.8,3.9c0.3,1.3,0.8,2.5,1.5,3.5c0.6,1.1,1.4,1.9,2.4,2.6
				c1,0.7,2.2,1,3.7,1c0.9,0,1.8-0.8,2.7-2.5c0.9-1.7,1.8-3.8,2.7-6.4c0.9-2.6,1.7-5.5,2.5-8.6c0.8-3.2,1.5-6.2,2.1-9.2
				c0-0.2,0.1-0.4,0.1-0.5c0.1,0.5,0.2,1,0.3,1.5c0.4,1.6,1,3,1.7,4.3c0.8,1.3,1.6,2.4,2.7,3.2c1,0.9,2.2,1.3,3.4,1.3
				c1.4,0,2.8-0.5,4.1-1.4c1.3-1,2.5-2.2,3.7-3.7c1.2-1.5,2.2-3.2,3.2-5c1-1.9,1.8-3.7,2.6-5.4c0.5-1.1,0.9-2.1,1.2-3
				c0.5,0.7,1,1.5,1.5,2.3c1.6,2.3,3.3,4.5,5,6.7c1.7,2.2,3.1,4.4,4.2,6.4c-2.3,2-4.2,4-5.6,5.8c-1.5,1.8-2.2,3.5-2.2,5.1
				c0,2.5,0.5,4.5,1.6,5.9c1.1,1.4,2.5,2.1,4.3,2.1c1.1,0,2.1-0.4,3.2-1.2c1.1-0.8,2.1-1.8,3-3.1c0.9-1.3,1.6-2.8,2.2-4.5
				c0.6-1.7,0.9-3.4,0.9-5.2c0-1.3-0.2-2.6-0.5-3.9c-0.3-1.3-0.8-2.6-1.3-3.9c2.1-1.8,4-3.4,5.8-5c1.8-1.6,3.3-3.1,4.7-4.6
				c1.4-1.5,2.5-3,3.4-4.5c0,0,0-0.1,0-0.1c0.3,2.9,0.8,5.7,1.4,8.4c0.6,2.8,1.3,5.5,2.2,7.9c0.8,2.4,1.7,4.5,2.7,6.3
				c1,1.7,2,3.1,3.1,4.1c1.1,1,2.2,1.5,3.3,1.5c1.6,0,3.1-0.6,4.5-1.9c1.4-1.3,2.7-2.9,3.8-4.9c1.2-2,2.2-4.2,3.1-6.6
				c0.5-1.3,0.9-2.7,1.4-3.9c0.2,1.8,0.4,3.7,0.7,5.6c0.4,3,0.9,5.7,1.5,8.2c0.6,2.5,1.3,4.6,2.1,6.2c0.8,1.6,1.7,2.4,2.8,2.4
				c1.6,0,2.8-0.4,3.6-1.3c0.8-0.8,1.3-1.9,1.6-3.2c0.3-1.3,0.5-2.8,0.5-4.4c0-1.6,0-3.2,0-4.8c0.1-0.7,0.3-1.7,0.5-2.9
				c0.2-1.2,0.5-2.5,0.7-3.9c0.3-1.4,0.6-2.8,1-4.3c0.4-1.4,0.8-2.7,1.2-3.9c0.4-1.2,0.9-2.1,1.3-2.8c0.5-0.7,1-1.1,1.4-1.1
				c0.4,0,0.7,0.4,1,1.2c0.2,0.8,0.4,1.7,0.5,2.9c0.1,1.2,0.1,2.4,0.2,3.8c0,1.4,0,2.6,0,3.8c0,1.2,0.1,2.3,0.3,3.2
				c0.2,1,0.4,1.8,0.7,2.5c0.3,0.7,0.7,1.2,1,1.6c0.4,0.4,0.8,0.6,1.1,0.6c0.4,0,0.7-0.2,0.9-0.5c0.2-0.3,0.4-0.7,0.5-1.1
				c0.1-0.4,0.2-0.9,0.2-1.4c0-0.5,0.1-1,0.1-1.4c0-1.2,0.2-2.6,0.5-4.2c0.3-1.6,0.7-3.2,1.3-4.9c0.5-1.7,1.2-3.3,1.9-5
				c0.7-1.6,1.4-3.1,2.2-4.4c0.8-1.3,1.6-2.3,2.4-3.1c0.8-0.8,1.6-1.2,2.4-1.2c0.2,0,0.2,0.5,0.1,1.5c-0.1,1-0.4,2.3-0.7,3.9
				c-0.3,1.6-0.7,3.4-1.2,5.5c-0.4,2-0.9,4.1-1.3,6.2c-0.4,2.1-0.8,4.2-1,6.2c-0.3,2-0.4,3.7-0.4,5.2c0,1.3,0.1,2.8,0.3,4.5
				c0.2,1.7,0.6,3.4,1.3,4.9c0.6,1.5,1.4,2.9,2.5,3.9c1.1,1.1,2.4,1.6,4.1,1.6c0.9,0,1.7-0.5,2.6-1.4c0.9-0.9,1.7-2.2,2.6-3.8
				c0.9-1.6,1.7-3.5,2.5-5.6c0.8-2.1,1.6-4.3,2.3-6.6c0.7-2.3,1.4-4.6,2.1-6.9c0.1-0.2,0.1-0.4,0.2-0.6c0.2,0.1,0.3,0.3,0.5,0.4
				c0.8,0.5,1.5,0.8,2.2,0.8c1.3,0,2.4-0.4,3.4-1.3c1-0.9,1.9-2,2.7-3.3c0,2.4,0.3,4.5,0.7,6.4c0.4,1.9,1.1,3.6,1.8,4.9
				c0.8,1.4,1.7,2.4,2.8,3.1c1.1,0.7,2.3,1.1,3.7,1.1c1.4,0,2.8-0.6,4.2-1.7c1.3-1.1,2.6-2.5,3.8-4.3c1.2-1.7,2.3-3.7,3.3-5.8
				c1-2.1,1.9-4.2,2.7-6.2c0.5-1.3,0.9-2.4,1.3-3.6c0.3,0.4,0.6,0.8,0.9,1.3c1.6,2.3,3.3,4.5,5,6.7c1.7,2.2,3.1,4.4,4.2,6.4
				c-2.3,2-4.2,4-5.6,5.8c-1.5,1.8-2.2,3.5-2.2,5.1c0,2.5,0.5,4.5,1.6,5.9c1.1,1.4,2.5,2.1,4.3,2.1c1.1,0,2.1-0.4,3.2-1.2
				c1.1-0.8,2.1-1.8,3-3.1c0.9-1.3,1.6-2.8,2.2-4.5c0.6-1.7,0.9-3.4,0.9-5.2c0-1.3-0.2-2.6-0.5-3.9c-0.3-1.3-0.8-2.6-1.3-3.9
				c2.1-1.8,4-3.4,5.8-5c1.8-1.6,3.3-3.1,4.7-4.6c1.4-1.5,2.5-3,3.4-4.5c0.9-1.5,1.5-3,1.8-4.6C366.9,218.8,366.8,218.5,366.7,218.4
				z M109.4,195.6c0-0.6,0-1.1,0-1.7c0-3.4,0.3-6.5,0.9-9.4c0.6-2.9,1.4-5.4,2.5-7.5c1.1-2.1,2.5-3.8,4.1-5c1.6-1.2,3.4-1.8,5.5-1.8
				c0.8,0,1.6,0.4,2.2,1.1c0.7,0.7,1,1.9,1,3.4c0,1.8-0.6,3.8-1.8,5.9c-1.2,2.2-2.7,4.3-4.4,6.4c-1.7,2.1-3.5,4.1-5.3,5.9
				c-1.8,1.8-3.3,3.3-4.5,4.5C109.4,196.8,109.4,196.2,109.4,195.6z M150.1,211.9c-0.2,2-0.5,4.2-1,6.6c-0.7,0.2-1.2,0.1-1.6-0.2
				c-0.4-0.3-0.8-0.7-1-1.2c-0.2-0.5-0.4-1.2-0.5-2c-0.1-0.8-0.2-1.6-0.2-2.4c0-0.7,0.1-1.5,0.2-2.4c0.1-0.9,0.3-1.7,0.6-2.4
				c0.2-0.7,0.5-1.4,0.8-1.9c0.3-0.5,0.6-0.8,0.9-0.8c0.4,0,0.8,0.2,1,0.6c0.2,0.4,0.4,0.9,0.5,1.5c0.1,0.6,0.2,1.3,0.2,2.1
				C150.1,210.3,150.1,211.1,150.1,211.9z M207.1,248.5c-0.2,1-0.5,1.9-0.9,2.9c-0.4,0.9-0.8,1.7-1.4,2.4c-0.5,0.7-1.1,1-1.8,1
				c-0.5,0-0.9-0.1-1.3-0.4c-0.4-0.3-0.7-0.6-0.9-1c-0.2-0.4-0.4-0.9-0.5-1.4c-0.1-0.5-0.2-1-0.2-1.5c0-1.1,0.6-2.4,1.7-3.9
				c1.1-1.4,2.6-3,4.5-4.7c0.7,1.6,1,3,1,4.3C207.4,246.8,207.3,247.5,207.1,248.5z M347,248.5c-0.2,1-0.5,1.9-0.9,2.9
				c-0.4,0.9-0.8,1.7-1.4,2.4c-0.5,0.7-1.1,1-1.8,1c-0.5,0-0.9-0.1-1.3-0.4c-0.4-0.3-0.7-0.6-0.9-1c-0.2-0.4-0.4-0.9-0.5-1.4
				c-0.1-0.5-0.2-1-0.2-1.5c0-1.1,0.6-2.4,1.7-3.9c1.1-1.4,2.6-3,4.5-4.7c0.7,1.6,1,3,1,4.3C347.3,246.8,347.2,247.5,347,248.5z"/>
		</g>
		<g>
			<path d="M140.1,308.9c0-0.6-0.3-1-0.7-1.3c-0.6-0.1-1.1,0-1.3,0.6c-0.2,0.3-0.4,0.6-0.5,1c-0.3,0.9-0.9,1.7-1.5,2.5
				c-0.3,0.4-0.7,0.8-1.3,0.9c-1.2,0.3-2.4,0.7-3.6,0.6c-1.2-0.1-3.1,0.1-4.7,0.2c-0.2-1.5-0.3-2.9-0.2-4.3c0-0.4,0.1-0.8,0.1-1.2
				c-0.1-3.3,0.1-6.3,0.6-9.5l0.2-1.7c0.2-2.8,0.4-5.4,0.7-8.2l0.4-5.6c0-0.8-0.1-1.7,0-2.6c0.1-1.6,0.2-3.2,0.3-4.9
				c0-0.1,0.1-0.3,0.1-0.4c0.8-0.3,1.4-0.3,2.2-0.3c0.4,0,0.6-0.5,0.9-0.8c0.1-0.2,0.1-0.6-0.1-0.8c-0.1-0.2-0.5-0.5-0.8-0.5
				c-1.2,0.1-2.3-0.3-3.5-0.1c-0.7,0.1-1.5,0-2.3,0h-1.7c-0.5,0.1-1.1,0.2-1.6,0.3c-0.1,0.1-0.3,0.3-0.3,0.6c0,0.1,0.2,0.4,0.3,0.5
				c0.5,0.3,0.9,0.6,1.4,0.8l0.1,1c0.2,1.3,0.2,2.7,0.1,4c-0.1,0.4-0.1,0.8-0.1,1.3c-0.1,1.5-0.1,3.3-0.3,4.9
				c-0.3,3.3-0.6,6.5-0.9,10c-0.3,4.1-0.8,8.4-0.8,12.7c0,1.6-0.1,3.1,0.3,4.7c0.1,0.2-0.1,0.6-0.3,0.6l-1,0.6
				c-0.3,0.1-0.8,0.4-1,0.6c-0.1,0.1-0.2,0.3-0.2,0.6c0.1,0.1,0.3,0.4,0.4,0.4c6.9,0,6.5-0.5,8.2-0.6c0.6,0,1.2-0.1,1.7-0.1h1.1
				c2.1,0.1,4.1-0.2,6.1-0.8c1.2-0.2,2.2-1,3.1-2c0.5-0.8,0.9-1.7,0.7-2.9C140.1,309.6,140.2,309.3,140.1,308.9z"/>
			<path d="M164.8,283.1c-0.3-1.4-0.8-2.8-1.3-4c-0.8-1.9-2-3.3-3.1-4.7c-3.6-4.2-10.2-2.1-13,1.3c-0.8,1-1.4,2-2,3
				c-1.1,1.6-2,3.3-2.5,5.3c-0.4,1-0.7,2.2-1,3.3l-0.2,1.2c-0.6,3.8-0.8,7.5-0.6,11.2c0.1,2,0.6,3.9,1.4,5.6
				c0.5,0.8,0.8,1.6,1.3,2.2c1.5,2.2,2.9,4.3,4.9,5.8c1,0.8,2.2,1.4,3.3,1.8c0.3,0.1,0.7,0.1,1,0.1c0.8-0.1,1.5-0.2,2.1-0.6
				c3.4-1.9,6-6,6.2-6.7c1.5-4.7,1.7-5.5,2-6.5c0.3-2.2,0.7-4.5,1.1-6.5c0.4-2.6,0.3-5.4,0.5-7.8c0.1-1,0-2,0-3
				C164.9,284,164.9,283.5,164.8,283.1z M160.3,290.1v0.9c0,2.4-0.1,5-0.6,7.3c-0.2,1.2-0.6,2.3-0.8,3.3c-0.3,1.6-0.8,3.2-1.3,4.9
				c-0.3,1-0.9,2.2-1.3,3.3c-0.4,0.9-1,1.7-1.8,2.2c-0.7,0.6-1.6,1-2.5,1c-0.6,0-1-0.3-1.3-0.9c-0.7-1.3-1.5-2.3-1.9-3.8
				c-0.3-0.9-0.4-1.7-0.6-2.6c-0.3-1.5-0.5-3.1-0.6-4.7c-0.1-0.3-0.1-0.9,0-1.3c0.1-1.5,0.2-2.9,0.1-4.3c-0.1-0.8,0-1.6,0.1-2.3
				c0-0.5,0.1-1,0.1-1.5c0-2.2,0.4-4.3,0.8-6.5c0.3-1,0.5-2.4,0.7-3.5c0.2-1.2,0.6-2.4,0.8-3.6c0.2-0.9,0.9-1.4,1.3-2.2l0.3-0.2
				c3.1-3.3,6.8,0.5,7.9,7.1c0.3,1.5,0.3,3.1,0.5,4.6C160.4,288.2,160.3,289.1,160.3,290.1z"/>
			<path d="M190.2,311.5l-0.8,0.1c0.1-0.4,0.1-0.7,0.1-1l0.3-2.9c0-0.8,0.1-1.7,0.1-2.5c-0.1-1,0.1-2.1-0.1-3.2
				c-0.2-1.3,0.1-2.6-0.1-3.9c0.3-2.1,0-4.1-0.1-6.3l-0.4-8c0-3.3-1.1-6.3-2.5-9.1c-0.3-0.8-1-1.5-1.5-2.1c-0.6-0.9-1.6-1.2-2.6-1
				c-1.5,0.1-2.9,0.5-4.1,1.7c-1.7,1.7-3.3,3.4-4.2,5.7c-1.3,2.8-2.2,5.8-2.9,8.8c-0.3,1.4-0.5,3-0.8,4.3c-0.6,3.3-1,6.8-1.5,10.1
				c-0.1,1.3-0.3,2.4-0.3,3.5c0,2,0,3.8,0.1,5.7c-0.1,0.3-0.1,0.6-0.1,1c-0.3,0.1-0.5,0.1-0.6,0.2c-0.5,0.2-1,0.4-1.5,0.8
				c-0.2,0.1-0.3,0.6,0,0.8c0.1,0.2,0.3,0.3,0.6,0.5c0.8,0.4,1.7,0.4,2.5,0.5c0.6,0.1,1.4,0,2.1,0.2c0.6,0.3,2.1-0.2,2.2-1
				c0.1-0.6-0.1-0.9-0.6-1c-1.3-0.4-0.5-1.1-0.3-3.6c0-1,0-2,0.1-2.9c0.1-0.8,0.2-1.5,0.2-2.4c0.1-1.5,0.3-2.9,0.4-4.3
				c0.3-1.5,0.6-2.8,0.8-4.3c0.1-0.8,0.2-1.6,0.7-2.5c0.4-0.1,0.9-0.2,1.4-0.3c2-0.1,4-0.1,5.9-0.7h0.4c0.3-0.1,0.8,0.2,0.8,0.6
				c0.1,0.8,0.1,1.6,0.1,2.3c0,1.4,0.1,2.9,0.1,4.3c0.1,2,0.1,3.8,0.1,5.6c0.1,2.6-0.2,5.2,0.6,7.8c-0.4,0.1-0.8,0.3-1,0.6
				c-0.4,0.3-0.3,0.8,0,1c0.5,0.3,1,0.6,1.6,0.6l4.5-1.5c0.1,0,0.3-0.1,0.6-0.1c0.6-0.1,0.8-0.6,0.8-1.1
				C190.9,311.8,190.7,311.5,190.2,311.5z M183.5,289.6c-1.4,0.3-2.6,0.4-3.8,0.6c-1.3,0.2-2.5,0.4-3.7,0.7
				c-0.1-0.1-0.3-0.1-0.3-0.3c-0.1-1.7-0.1-3.4,0.3-5.1c0.2-0.9,0.3-1.7,0.5-2.6c0.2-1,0.2-2,0.4-2.9c0.1-1.2,0.8-2.4,1.4-3.3
				c0.5-0.8,1.2-1.5,1.8-2.2c0.3-0.3,1-0.2,1.2,0.3c0.9,2.3,1.8,4.7,1.9,7.2c0.1,2,0.3,4.2,0.3,6.2
				C183.6,288.7,183.5,289.1,183.5,289.6z"/>
			<path d="M217.1,279l-0.6-0.8c-5.3-6.9-12.2-6.8-18-6.7c-1.7,0-3.2,0.5-4.8,1.3c-0.2,0.1-0.5,0.2-0.7,0.4
				c-0.5,0.3-0.6,0.6-0.5,0.8c0.2,0.1,0.4,0.3,0.6,0.3c0.8,0.1,1.7,0.2,2.4,0.1c0.3,0,0.6,0,0.8,0.3c0,0.2,0.1,0.6,0.1,0.8
				c-0.1,1.2-0.1,2.3-0.1,3.6c0.1,2.6-0.6,16.4-0.6,18.7c0,0.1,0,0.3,0.1,0.5c0,2.6,0.1,11.4,0.1,11.6c0,0.6-0.1,1.3,0,1.9
				c-0.8,0.6-1.7-0.1-2.4,0.2c0,0.2,0.1,0.5,0.1,0.6c0.4,0.3,0.8,0.6,1.2,0.8c0.6,0.3,1.3,0.8,2,0.8c1.9,0.3,3.9,0.2,5.7-0.7l3-1.3
				c0.5-0.2,1-0.4,1.4-0.7c1-0.6,5.2-3.7,5.9-4.6c1-1.3,2-2.6,2.9-3.8c0.5-0.8,0.9-1.7,1.3-2.6c0.6-1.3,1-2.6,1.3-4
				c0.3-1.3,0.5-2.6,0.6-3.9c0.2-1.1,0.4-2.1,0.4-3.2c-0.1-2.2-0.1-4.5-0.6-6.7C218.5,281.6,218,280.2,217.1,279z M206,308
				c-1.3,0.8-2.6,1.7-4,2.3c-0.4,0.1-0.7,0.1-1.2,0.4c-0.2-1.3-0.3-2.4-0.3-3.5c0-0.3,0.1-0.8,0-1.3c0-1.8-0.1-3.7-0.1-5.6
				c0-3.7-0.1-7.3,0.1-11c0.2-2.1,0.1-4.1,0.2-6.2c0.1-2.6,0.2-5.2,0.3-7.7c0-0.2,0.1-0.5,0.1-0.8c0.1-0.2,0.3-0.3,0.4-0.4
				c0.4,0,0.8-0.1,1.1-0.1c1.9,0.2,3.7,0.6,5.4,1.4c0.5,0.3,0.9,0.7,1.4,1c4.2,2.4,4.5,8.4,4.5,11.4C214,292.1,212.2,304.7,206,308z
				"/>
			<path d="M232.1,273.4c-0.4-0.1-0.7-0.3-1-0.3c-1.1-0.1-2.2-0.3-3.2-0.3c-1.4,0-2.7,0.2-4,0.3c-0.6,0-1,0.3-1.5,0.8
				c-0.2,0.2-0.1,0.8,0.1,0.9c0.5,0.1,0.9,0.3,1.3,0.2h1.8v2.2c-0.1,0.7-0.2,1.4-0.2,2.2c-0.2,2.4-0.3,5.1-0.3,7.5
				c0,1-0.1,1.8-0.1,2.7c-0.1,2.2-0.1,4.5-0.1,6.7c-0.1,2.8,0.1,5.6,0.1,8.4c0,1.7-0.1,3.4,0,5c0,0.9-0.1,1.7-0.4,2.5
				c-0.1,0.4-0.3,0.8-0.8,0.8l-1.3,0.4c-0.1,0.1-0.1,0.4,0,0.6c0.2,0.5,0.8,0.8,1.5,0.8c0.8-0.1,2.9,0.1,3.7,0.1
				c0.6-0.1,1.3,0,1.8-0.2c0.3-0.1,0.6-0.1,0.9-0.3c0.1-0.2,0.3-0.3,0.2-0.6l-0.5-0.3c-0.4-0.1-0.8,0.1-1.3-0.1
				c0.1-0.1,0.2-0.4,0.1-0.6c0.1-0.8,0.3-1.5,0.3-2.2c0.1-0.7,0-1.5-0.1-2.2l-0.1-5.6c0.1-1.2,0.1-2.3,0.1-3.4c0.1-1.5,0-3.1,0-4.5
				c0.1-1.9,0.2-3.7,0.3-5.6c0.1-1,0.1-2,0.1-3.1c0-1.4,0-2.9,0.2-4.3c0.1-0.5,0.1-1,0.1-1.3c0.1-0.5,0-0.9,0.1-1.3
				c0.1-0.6,0.1-1.2,0.1-1.8c-0.1-0.3-0.1-0.8,0-1.3c-0.1-0.9,0.1-1,1.2-1c0.2,0,0.4,0.1,0.6,0.1c0.1,0,0.3-0.2,0.5-0.2
				c0.4-0.1,0.6-0.8,0.3-1.1C232.5,273.6,232.3,273.4,232.1,273.4z"/>
			<path d="M266.3,273c-1-0.3-2.1-0.2-3.1-0.1c-0.3,0.1-0.6,0.1-0.9,0.1c-1.3,0-2.3,0.4-3.5,0.6c-0.4,0.1-0.7,0.3-1,0.6
				c-0.3,0.3-0.2,0.8,0.2,0.9c0.2,0.1,0.4,0.1,0.6,0.1c0.4,0.1,0.6,0.3,0.6,0.8c-0.1,0.1-0.1,0.1-0.1,0.3
				c-0.5,12.1-0.5,13.4-0.4,14.7c-0.1,0.7,0,1.3,0,1.9c0,0.6-0.1,1.2,0,1.7c0.1,2.8-0.1,5.5-0.1,8.2c0,0.2-0.1,0.3-0.1,0.9L258,303
				c-0.5-1-1-2.2-1.5-3.2c-0.3-0.8-0.6-1.6-0.9-2.4c-0.3-0.7-0.6-1.6-1-2.4c-0.5-1-2.9-6.9-3.8-8.2c-1.4-2.2-2.4-4.5-3.3-6.8
				c-0.6-1.8-1.5-3.4-2.4-5.1c-1-2-2-0.8-3.3-1.1l-2.8,0.2c-1,0-1.3,0.9-1.5,1.1c-0.5,0.7-0.1,1.7,1.1,1.7c0.3,0,0.6-0.1,0.8-0.1
				c0.5,0.1,0.7,0.3,0.7,0.8c0,1.1,0.1,2.2,0.1,3.3c0,3.3-0.1,6.6-0.3,9.9c-0.2,2.4-0.5,4.9-0.2,7.3l-0.1,0.3c-0.1,2-0.2,4-0.2,6.1
				c0,1.9-0.1,3.8-0.2,5.6c0,1,0,1.7-0.1,2.5c-0.5,0.4-1,0.7-1.3,1c-0.4,0.4-1.5,0.6-1.7,0.8c-0.1,0.2,0,0.6,0.2,0.8
				c0.2,0.2,0.5,0.2,0.8,0.2c0.3-0.1,0.8-0.2,1.3-0.3c0.8-0.2,1.7-0.2,2.6,0c1.3,0.3,2.2-0.3,2.3-1.7c0.1-1.2,0.3-2.2,0.1-3.3v-0.6
				c0.1-1.3,0.3-2.5,0.3-3.8c0.1-2.6,0.3-5.2,0.3-7.8c0.1-2.6,0.2-5.2,0.2-7.9c0.1-2.2,0.2-4.5,0.3-6.6c0-0.1,0.1-0.2,0.3-0.3
				c0.3,0.6,0.8,1.2,1,2c0.8,1.7,1.6,3.4,2.4,5.1c0.6,1.1,1,2.2,1.6,3.3c1,2,2,4.1,2.7,6.3l4,10.9c0.6,1,1.5,2,2.2,3
				c0.3,0.6,0.8,0.9,1.6,0.9c0.7,0.1,1.1-0.1,1.3-0.8c0.2-0.4,0.8-6,0.8-8.6c0-1.3-0.3-2.8,0.8-14.6l0.2-4.5c0-1.2-0.1-2.3-0.1-3.5
				c-0.1-0.5,0-0.9,0-1.5c-0.3-1.9,0.2-3.8-0.3-5.6c0.2-0.1,0.3-0.1,1.5-0.1c0.9-0.1,1.5-0.4,2.1-0.8c0.3-0.1,0.5-0.5,0.3-0.8
				C266.7,273.3,266.5,273.1,266.3,273z"/>
			<path d="M294.9,295.3c0.1-0.1,0.1-0.2,0.1-0.4c0.2-0.6,0.1-1-0.6-1.2c-0.5-0.1-6.1-0.6-7.9-0.5c-0.3,0-0.6,0.1-0.8,0.2
				c-0.3,0.2-0.6,0.4-0.7,0.8c0,0.3,0.4,0.6,0.8,0.9c0.4,0.1,0.8,0.2,1.3,0.2c0.6,0.1,1.2,0.1,1.7,0.1c0.3,0,0.6,0.1,0.8,0.1
				c0.2,0.8,0.1,1.5,0,2.4c-0.3,1.7-2.4,10.2-4.9,12.5c-0.8,0.8-2.5,1.4-4,0.9c-0.2-0.2-0.6-0.2-0.8-0.3c-1.3-0.4-2.2-1.3-2.8-2.4
				c-0.5-0.8-0.8-1.7-1.2-2.8c-1.1-3.5-1.5-7-1.4-10.7c0.1-1.5,0.2-2.9,0.2-4.3c0-1.9,0.2-4,0.6-5.9c0.3-2.1,1.8-10.7,8.8-10.4
				c0.2,0,0.3-0.1,0.6-0.1c1,0.1,1.7,0.3,2.4,1c0.5,0.4,0.8,1,0.6,1.7c0,0.1-0.1,0.5,0,0.6c0.1,1.3,1.3,2,2.4,1.7
				c0.2-0.2,0.5-0.4,0.6-0.6c0.2-0.5,0.4-0.9,0.4-1.3c0.1-1.1,0.1-2.2,0.3-3.3c0-0.2-0.1-0.6-0.3-0.8c-0.5-0.5-1.1-1-1.7-1
				c-0.8,0-1,0.7-1.3,1.2c0,0.1-0.1,0.1-0.3,0.3l-1.3-0.9c-0.6-0.3-1.3-0.6-2.2-0.7c-12.7-1.4-14.9,12.1-15.4,15
				c-0.3,2.4-0.7,4.8-0.8,7.2c-0.1,1-0.1,2-0.1,3.1c0.1,2.6,0.5,5.2,1.4,7.7c0.8,2,1.5,4,2.9,5.6c1.4,1.6,2.9,2.9,4.7,4
				c3.3,1.9,8.5-0.7,9.2-2c0.3-0.5,0.6-0.8,1-1.3c0.9-1.3,1.7-2.6,2.3-4.1c0.3-0.8,1.5-5,1.7-6.3c0.1-0.6,0.3-3.5,0.6-4.3
				c0.3-0.7,0.2-1.4,0.3-2C291.8,295.1,293.4,295.8,294.9,295.3z"/>
			<path d="M296.2,312.1c-0.3,0-0.8,0-1,0.1c-0.9,0.1-1.2,1.1-0.8,1.8c0.3,0.8,1,1,2,1.3c0.1-0.1,0.6-0.2,0.7-0.4
				c0.6-0.3,0.7-1.1,0.6-1.7C297.3,312.3,297,312.1,296.2,312.1z"/>
			<path d="M303.5,312.1c-0.3,0-0.8,0-1,0.1c-0.9,0.1-1.2,1.1-0.8,1.8c0.3,0.8,1,1,2,1.3c0.1-0.1,0.6-0.2,0.7-0.4
				c0.6-0.3,0.7-1.1,0.6-1.7C304.6,312.3,304.4,312.1,303.5,312.1z"/>
			<path d="M313,313.2c-0.3-0.8-0.6-1.1-1.5-1.1c-0.3,0-0.8,0-1,0.1c-0.9,0.1-1.2,1.1-0.8,1.8c0.3,0.8,1,1,2,1.3
				c0.1-0.1,0.6-0.2,0.7-0.4C313,314.6,313.1,313.7,313,313.2z"/>
		</g>
		<g>
			<path class="st1" d="M326,330.4c-0.6-1.4-2.1-1.6-3.6-1.6c-0.5,0-1,0-1.6,0c-0.8,0-1.7,0-2.7,0h-205c-3.2,0-5.2,0.2-6.2,1.4
				c-1.1,1.1-0.9,2.8-0.7,5.4c0.1,1.3,0.2,2.9,0.2,4.9c0,0.8-0.1,2.3-0.2,4.2c-0.7,9.5-1.1,19,1.3,21.6c0.5,0.5,1.1,0.8,1.7,0.8
				h217.4l0-31.1C326.5,333.1,326.5,331.5,326,330.4z M324.8,365.5H109.1c-0.1,0-0.3,0-0.5-0.2c-2.1-2.3-1.3-14.5-0.9-20.3
				c0.1-2,0.2-3.5,0.2-4.4c0-2-0.1-3.7-0.2-5c-0.2-2.1-0.3-3.6,0.3-4.2c0.5-0.6,2-0.8,5-0.8h205c1.1,0,2,0,2.8,0c0.6,0,1.1,0,1.5,0
				c1.7,0,1.9,0.2,2,0.6c0.3,0.7,0.3,2.3,0.3,5L324.8,365.5z"/>
			<path class="st1" d="M184.2,333.4c-6.1,0-12.2,0-18.3,0c0,0-1.7,0-6.4,0c-0.5,0-1.1,0-1.7,0c-2.7,0-4.8,0-6.4,0
				c-0.5,0-0.9,0-1.3,0c0,0-0.8,0-3.1,0c-1.7,0-4.1,0-7.7,0c-7.8,0-15.6,0-23.4,0c-6.7,0-4.7,1.4-4.7,8.6c0,3.3-2.1,20.5,1.5,20.5
				c6.1,0,12.3,0,18.4,0c1.8,0,3.3,0,4.6,0c0.1,0,1.3,0,4.9,0c1.2,0,2.7,0,4.6,0c41.8,0,3.2,0,45,0c0-7.9,0-15.7,0-23.6
				C190.2,332.4,190.4,333.4,184.2,333.4z"/>
		</g>
	</g>
	<g>
		<g>
			<path class="st6" d="M185.9,145.3c-2.7,1.4-3,2.8-3,2.8l2.6,5.1c0.9-1.1,1.9-2,3.1-2.6c1.2-0.6,2.6-0.9,3.9-0.9l-2.5-5.1
				C190,144.6,188.7,143.9,185.9,145.3z"/>
			<path class="st3" d="M193.4,151.5c-1.4-0.1-2.8,0.1-4,0.7c-1.2,0.6-2.2,1.6-3,2.8c-0.2,0.4-0.5,0.8-0.7,1.2
				c-2,4.3-1.7,10.5,0.3,14.5c2.8,5.6,14.7,18.2,20.3,15.4c0.9-0.4,1.6-1.3,2.1-2.3c2.6-5.6,0.2-18.4-2.2-23.1
				C204,156.3,198.4,151.9,193.4,151.5z"/>
		</g>
		<g>
			<path class="st6" d="M288.3,143.1c-0.1,3,1,4,1,4l5.7,0.2c-0.6-1.3-0.9-2.6-0.8-4c0-1.4,0.4-2.7,1.1-3.9l-5.7-0.2
				C289.6,139.2,288.4,139.9,288.3,143.1z"/>
			<path class="st3" d="M297.3,139.4c-0.8,1.2-1.3,2.5-1.3,3.9c0,1.4,0.4,2.7,1.1,4c0.2,0.4,0.5,0.8,0.8,1.2
				c2.8,3.8,8.5,6.5,12.9,6.6c6.2,0.2,23-4.3,23.2-10.6c0-1-0.4-2-1.1-2.9c-3.7-5-16.1-8.9-21.4-9.1
				C306.5,132.4,300,135.2,297.3,139.4z"/>
		</g>
		<g>
			<path class="st6" d="M271,177.8c-1.6,2.6-1.1,3.9-1.1,3.9l4.9,3c0.2-1.4,0.6-2.7,1.3-3.8c0.7-1.2,1.7-2.1,2.9-2.8l-4.8-3
				C274.1,175.1,272.7,175.2,271,177.8z"/>
			<path class="st1" d="M280.6,179.2c-1.3,0.6-2.4,1.5-3.1,2.7c-0.7,1.2-1.1,2.5-1.1,4c0,0.5,0,0.9,0.1,1.4
				c0.6,4.7,4.1,9.8,7.8,12.2c5.3,3.3,22,7.8,25.3,2.5c0.5-0.9,0.7-1.9,0.5-3.1c-0.7-6.2-9.5-15.8-13.9-18.6
				C292.1,177.7,285.1,176.9,280.6,179.2z"/>
		</g>
		<g>
			<path class="st6" d="M215.3,124c-3,0.6-4.1-0.3-4.1-0.3l-1.2-5.6c1.4,0.3,2.8,0.4,4,0.1c1.4-0.3,2.6-0.9,3.6-1.8l1.2,5.6
				C218.9,122.1,218.4,123.4,215.3,124z"/>
			<path class="st1" d="M217.2,114.6c-1,1-2.2,1.7-3.6,2c-1.4,0.3-2.7,0.2-4.1-0.3c-0.4-0.1-0.9-0.3-1.3-0.5
				c-4.2-2.1-7.9-7.1-8.9-11.4c-1.3-6.1,0.1-23.4,6.2-24.7c1-0.2,2,0,3.1,0.5c5.5,2.8,11.7,14.3,12.8,19.4
				C222.5,104.2,220.9,111.1,217.2,114.6z"/>
		</g>
		<g>
			<path class="st6" d="M276.1,107c-2.8-1.2-3.2-2.6-3.2-2.6l2.3-5.3c0.9,1.1,2,1.9,3.2,2.4c1.3,0.5,2.6,0.8,4,0.7l-2.2,5.3
				C280.1,107.5,279,108.2,276.1,107z"/>
			<path class="st7" d="M283.2,100.4c-1.4,0.2-2.8,0.1-4.1-0.5c-1.3-0.5-2.3-1.5-3.2-2.6c-0.3-0.4-0.5-0.8-0.7-1.2
				c-2.2-4.2-2.3-10.4-0.6-14.5c2.4-5.7,13.6-19,19.3-16.6c0.9,0.4,1.6,1.2,2.2,2.2c2.9,5.5,1.3,18.4-0.8,23.2
				C293.5,95,288.1,99.7,283.2,100.4z"/>
		</g>
		<path d="M270.6,106.4c-11.6-4.6-30.5,0.8-37.9,10.8c-2,2.8-3.2,6.1-3.7,9.6c-21.7,1.3-43.8,7-59.3,23.1c-1.6,1.6-0.9,4.7,1.3,2.4
			c13.4-14,32.5-19.3,51.3-21.1c2.1-0.2,4.2-0.4,6.4-0.6c0,1.6,0.1,3.2,0.4,4.7c0.6,3.5,2.1,7,3.3,10.4c1.5,4.4,3.1,8.9,5.7,12.8
			c3.4,5.1,8.7,3.9,13.1,0.3c3.5-2.9,3.5-6.7,2.1-10.3c2.1,0.5,4.1,0.8,6.4-0.5c2.5-1.4,5.2-3.9,5.6-6.9c1.4-12-18.8-14.7-26.8-14.6
			c-2.1,0-4.1,0.1-6.2,0.1c0.3-3.6,1.4-7.1,4.1-9.7c3.5-3.4,8.4-5,13-6.2c7.1-1.9,15.2-3,21.7,1.2c12.6,8.1,14.2,27.2,9.4,40.1
			c-2.7,7.3-8.1,12.4-12.7,18.5c-4.1,5.4-6.6,11.5-8,18.1c-0.5,2.5,3.1,0,3.4-1.6c2.3-11.1,9.8-17.4,15.8-26.4
			c3.6-5.4,5.9-11.5,6.9-17.9C287.9,129.7,284.1,111.8,270.6,106.4z M249.8,132.1c3.3,1.1,12.7,4.5,12.1,9.7
			c-0.8,5.7-8.3,1.8-11.5,1.8c-1.3,0-3.5,2.2-2.6,3.6c2.2,3.3,5.2,8.6-0.3,10.3c-4.7,1.5-6.5-2.4-8.4-6.2c-3-6.1-6.5-14.1-6.8-21
			C238.2,130.1,244.2,130.3,249.8,132.1z"/>
	</g>
</g>
</svg>
