<?xml version="1.0" encoding="utf-8"?>
<!-- Generator: Adobe Illustrator 16.0.0, SVG Export Plug-In . SVG Version: 6.00 Build 0)  -->
<!DOCTYPE svg PUBLIC "-//W3C//DTD SVG 1.1//EN" "http://www.w3.org/Graphics/SVG/1.1/DTD/svg11.dtd">
<svg version="1.1" id="Calque_1" xmlns="http://www.w3.org/2000/svg" xmlns:xlink="http://www.w3.org/1999/xlink" x="0px" y="0px"
	 width="284.5px" height="309.5px" viewBox="0 0 284.5 309.5" enable-background="new 0 0 284.5 309.5" xml:space="preserve">
<rect x="32.268" y="185.459" transform="matrix(0.9752 0.2211 -0.2211 0.9752 54.3011 -21.7983)" fill="#FFFFFF" width="184.491" height="92.359"/>
<rect x="174.543" y="137.291" transform="matrix(0.895 -0.446 0.446 0.895 -73.9344 114.5095)" fill="#FFFFFF" width="63.5" height="154.056"/>
<rect x="61.833" y="139.546" fill="#FFFFFF" width="123" height="63.213"/>
<rect x="79.567" y="131.225" transform="matrix(-0.7895 -0.6138 0.6138 -0.7895 117.396 333.9258)" fill="#FFFFFF" width="72.804" height="31.207"/>
<rect x="111.167" y="120.5" fill="#FFFFFF" width="49" height="34.334"/>
<path fill="#853034" d="M109.531,295.237c-5.63,0.245-12.503,0.474-19.367,0.862c-8.06,0.456-16.109,1.097-24.168,1.573
	c-7.485,0.443-14.976,0.785-22.48,0.486c-6.486-0.259-12.924-0.808-19.149-2.821c-2.92-0.944-5.745-2.102-8.363-3.722
	c-2.244-1.389-4.231-3.07-5.899-5.126c-2.582-3.18-3.242-6.714-2.028-10.618c0.624-2.007,1.545-3.874,2.682-5.627
	c1.062-1.637,2.146-3.268,3.338-4.809c4.951-6.399,8.4-13.519,10.64-21.286c2.656-9.209,4.885-18.518,6.916-27.878
	c2.313-10.658,4.527-21.339,6.938-31.976c2.196-9.686,5.538-18.964,10.311-27.715c6.448-11.822,15.229-21.575,26.099-29.43
	c5.425-3.92,11.052-7.568,16.652-11.24c7.496-4.915,14.968-9.858,22.077-15.328c2.782-2.14,5.447-4.413,7.829-7.003
	c2.744-2.985,3.044-4.196,2.948-8.282c-0.151-6.42-2.748-11.747-6.929-16.422c-2.756-3.082-5.827-5.831-9.018-8.462
	c-3.318-2.736-6.616-5.51-9.761-8.441c-3.716-3.462-7.709-6.534-11.935-9.333c-2.821-1.869-5.469-3.951-7.453-6.756
	c-1.366-1.931-2.519-3.957-3.111-6.278c-0.591-2.318-0.112-4.305,1.669-5.932c0.852-0.776,1.709-1.551,2.608-2.271
	c4.155-3.327,8.364-6.588,12.483-9.959c6.152-5.034,13.238-7.884,21.04-8.9c6.15-0.8,12.029,0.362,17.449,3.445
	c2.079,1.182,4.043,2.565,6.066,3.845c1.349,0.854,2.688,1.726,4.07,2.521c3.941,2.271,8.182,2.923,12.589,1.92
	c3.234-0.736,6.41-1.74,9.603-2.655c3.198-0.917,6.401-1.79,9.729-2.122c6.839-0.681,12.943,0.96,18.058,5.698
	c1.398,1.295,2.764,2.636,4.048,4.043c4.698,5.147,10.175,9.229,16.496,12.16c4.302,1.995,8.639,3.916,12.941,5.909
	c2.091,0.967,4.186,1.942,6.199,3.056c3.901,2.16,7.111,5.137,9.726,8.738c0.592,0.814,1.1,1.731,1.445,2.676
	c0.774,2.12,0.133,4.053-1.667,5.424c-1.112,0.847-2.372,1.436-3.732,1.674c-1.829,0.319-3.681,0.606-5.531,0.676
	c-2.613,0.098-5.234,0.005-7.852-0.042c-8.306-0.146-16.482,0.668-24.383,3.381c-5.088,1.747-9.62,4.5-13.783,7.892
	c-3.896,3.175-5.715,7.444-6.685,12.225c-0.709,3.492,0.039,6.526,2.542,9.064c3.457,3.506,6.948,6.979,10.443,10.449
	c3.936,3.907,7.919,7.768,11.833,11.697c9.618,9.654,16.781,20.923,22.042,33.462c4.999,11.916,9.128,24.128,12.796,36.508
	c2.568,8.672,5.053,17.372,8.237,25.847c3.199,8.512,6.491,16.985,10.661,25.084c3.07,5.963,6.745,11.569,10.189,17.313
	c2.646,4.41,5.21,8.872,7.66,13.394c1.647,3.041,2.958,6.25,3.75,9.646c1.122,4.809,0.215,9.244-2.428,13.355
	c-2.101,3.267-4.937,5.791-8.136,7.939c-4.563,3.063-9.638,4.862-14.963,6.015c-6.003,1.301-12.082,1.898-18.225,1.918
	c-7.236,0.022-14.457-0.259-21.674-0.787c-9.249-0.678-18.445-1.809-27.649-2.904c-9.201-1.095-18.411-2.143-27.634-3.043
	c-6.045-0.591-12.118-0.899-18.18-1.307c-5.266-0.354-10.532-0.729-15.804-0.982C119.829,295.459,115.302,295.4,109.531,295.237z
	 M233.405,223.03c0.132,0.049,0.237,0.056,0.288,0.112c2.326,2.619,4.696,5.203,6.954,7.881c1.479,1.756,2.32,3.874,2.837,6.102
	c0.626,2.704,0.119,5.208-1.518,7.45c-1.504,2.061-3.502,3.259-6.115,3.134c-1.279-0.062-2.557-0.258-3.824-0.461
	c-2.364-0.379-4.713-0.832-7.13-0.752c-3.614,0.12-6.711,1.471-9.423,3.807c-1.554,1.338-2.196,3.186-2.852,5.027
	c-0.187,0.525-0.031,0.99,0.446,1.266c0.526,0.304,1.044,0.177,1.444-0.265c0.235-0.26,0.409-0.577,0.596-0.879
	c2.761-4.479,7.474-6.528,12.674-5.479c2.431,0.49,4.832,1.172,7.282,1.518c7.522,1.063,14.309-4.861,14.409-12.495
	c0.052-3.878-1.307-7.331-3.559-10.392c-1.36-1.847-2.949-3.549-4.591-5.158c-1.739-1.705-3.647-3.24-5.516-4.811
	c-0.615-0.518-0.844-0.986-0.546-1.812c0.51-1.415,0.882-2.881,1.287-4.333c0.469-1.676,0.757-3.384,0.6-5.127
	c-0.246-2.736-1.444-4.866-4.173-5.768c-2.511-0.829-4.75-0.175-6.561,1.723c-1.623,1.701-2.045,3.809-1.623,6.062
	c0.462,2.468,1.404,4.774,2.87,6.817c1.005,1.401,2.107,2.747,3.284,4.008c0.615,0.659,0.722,1.199,0.398,2.001
	c-1.291,3.206-2.465,6.462-3.829,9.636c-0.697,1.618-1.691,3.11-2.586,4.639c-0.227,0.389-0.586,0.7-0.884,1.047
	c-0.311-0.896-0.409-1.686-0.405-2.473c0.016-2.929,0.076-5.857,0.096-8.785c0.018-2.574,0.034-5.154-0.651-7.666
	c-0.161-0.593-0.366-1.203-0.694-1.713c-0.668-1.038-1.951-1.078-2.67-0.081c-0.324,0.451-0.506,1.029-0.653,1.576
	c-0.179,0.661-0.251,1.351-0.393,2.162c-0.315-0.251-0.53-0.391-0.708-0.567c-2.265-2.252-5.386-2.295-7.938,0.176
	c-1.536,1.486-2.552,3.279-3.168,5.313c-1.029,3.397-1.024,6.816-0.223,10.256c0.077,0.332,0.22,0.781,0.073,1.01
	c-0.579,0.906-1.14,1.85-2.212,2.806c0-0.649,0.004-0.985-0.001-1.319c-0.094-7.021-0.637-14.002-1.929-20.91
	c-0.383-2.045-0.804-4.09-1.354-6.095c-0.251-0.912-0.727-1.839-1.336-2.56c-1.273-1.506-3.324-1.287-4.397,0.357
	c-0.241,0.369-0.444,0.771-0.607,1.182c-0.574,1.441-1.239,2.859-1.658,4.346c-1.106,3.923-2.101,7.877-3.142,11.818
	c-0.104,0.392-0.223,0.778-0.389,1.357c-0.241-2.495-0.413-4.75-0.692-6.992c-0.188-1.502-0.599-2.957-1.541-4.199
	c-1.354-1.785-3.568-2.847-5.295,0.138c-1.061,1.833-2.018,3.76-2.729,5.749c-1.016,2.834-1.762,5.764-2.63,8.65
	c-0.078,0.261-0.207,0.508-0.353,0.86c-0.092-0.185-0.124-0.22-0.124-0.254c0.032-2.484,0.1-4.969,0.091-7.452
	c-0.006-1.684-0.079-3.369-0.204-5.048c-0.045-0.601-0.239-1.231-0.523-1.765c-0.722-1.352-2.158-1.401-2.95-0.103
	c-0.34,0.558-0.563,1.21-0.718,1.848c-0.249,1.033-0.477,2.083-0.576,3.138c-0.358,3.797-0.651,7.6-0.992,11.397
	c-0.051,0.56-0.088,1.193-0.367,1.647c-1.228,2.004-2.535,3.958-3.832,5.919c-0.252,0.382-0.58,0.714-0.873,1.068
	c-0.095-0.038-0.189-0.075-0.283-0.112c-0.018-0.911-0.102-1.827-0.041-2.732c0.688-10.301,1.398-20.6,2.106-30.963
	c0.383,0.068,0.597,0.104,0.81,0.145c1.913,0.353,3.813,0.814,5.74,1.036c3.522,0.405,6.753-0.621,9.787-2.347
	c0.673-0.383,0.913-0.95,0.736-1.545c-0.183-0.611-0.828-0.983-1.602-0.88c-0.35,0.048-0.695,0.151-1.029,0.267
	c-1.927,0.668-3.877,0.827-5.894,0.436c-2.707-0.524-5.29-1.398-7.877-2.492c0.09-0.813,0.194-1.557,0.249-2.303
	c0.16-2.21,0.335-4.42,0.429-6.634c0.027-0.646-0.092-1.344-0.324-1.948c-0.69-1.793-2.476-2.039-3.618-0.502
	c-0.416,0.559-0.75,1.219-0.96,1.884c-0.548,1.73-1.008,3.489-1.5,5.237c-0.125,0.441-0.24,0.886-0.372,1.377
	c-0.453-0.207-0.771-0.357-1.095-0.499c-2.517-1.104-4.996-2.303-7.559-3.287c-5.309-2.038-10.775-3.235-16.521-2.727
	c-3.531,0.313-6.886,1.23-10.067,2.781c-0.554,0.27-1.111,0.585-1.56,0.996c-0.236,0.216-0.398,0.727-0.317,1.03
	c0.14,0.519,0.66,0.51,1.117,0.384c0.255-0.07,0.499-0.185,0.743-0.288c6.025-2.555,12.135-2.656,18.318-0.635
	c4.611,1.507,8.95,3.626,13.219,5.901c0.935,0.498,1.856,1.02,2.837,1.56c-0.046,0.567-0.08,1.093-0.133,1.616
	c-0.518,5.207-1.069,10.41-1.546,15.62c-0.282,3.092-0.467,6.192-0.653,9.291c-0.047,0.764-0.297,1.313-0.898,1.811
	c-1.915,1.582-3.78,3.225-5.671,4.837c-0.288,0.246-0.604,0.458-0.959,0.724c-0.138-0.285-0.251-0.475-0.325-0.679
	c-1.428-3.915-2.832-7.839-4.286-11.743c-0.337-0.904-0.278-1.655,0.18-2.516c1.953-3.668,3.241-7.572,3.954-11.667
	c0.323-1.853,0.11-3.622-0.829-5.275c-2.032-3.574-6.97-3.89-9.336-0.528c-0.646,0.918-1.085,2.039-1.38,3.133
	c-0.582,2.158-0.605,4.384-0.41,6.609c0.329,3.735,1.245,7.338,2.497,10.859c0.244,0.688,0.216,1.229-0.164,1.865
	c-2.098,3.509-4.346,6.914-6.982,10.043c-0.997,1.182-2.123,2.263-3.249,3.327c-0.492,0.465-1.055,0.938-1.884,0.947
	c-0.53-1.461-0.467-2.906-0.354-4.36c0.306-3.9,1.124-7.717,1.846-11.551c0.582-3.091,1.133-6.19,1.553-9.307
	c0.13-0.965-0.046-2.055-0.381-2.979c-0.523-1.445-2.019-1.688-3.102-0.618c-0.341,0.337-0.64,0.749-0.851,1.179
	c-0.467,0.955-0.943,1.916-1.28,2.92c-1.594,4.755-2.863,9.598-3.822,14.522c-0.105,0.54-0.352,1.107-0.689,1.541
	c-2.24,2.879-4.775,5.486-7.491,7.918c-0.381,0.341-0.809,0.631-1.438,1.117c0.072-0.821,0.069-1.348,0.171-1.853
	c0.35-1.738,0.693-3.479,1.117-5.199c1.039-4.216,2.167-8.41,3.163-12.635c0.416-1.765,0.657-3.579,0.199-5.404
	c-0.539-2.147-1.909-3.25-4.129-3.127c-0.964,0.053-1.918,0.318-2.873,0.508c-1.291,0.256-2.572,0.572-3.851,0.534
	c-0.417-0.979-0.729-1.913-1.194-2.763c-1.005-1.834-2.391-3.32-4.405-4.055c-1.663-0.606-3.16-0.209-4.382,1.057
	c-1.069,1.107-1.222,2.774-0.457,4.343c0.56,1.146,1.391,2.105,2.487,2.71c1.261,0.695,2.628,1.197,4.061,1.833
	c0.226,1.206,0.129,2.728-0.34,4.78c-1.021,4.465-2.957,8.535-5.411,12.368c-1.87,2.921-3.97,5.671-6.433,8.124
	c-0.611,0.607-1.209,1.26-2.188,1.679c0.065-0.675,0.095-1.201,0.171-1.721c0.452-3.087,1.473-6.02,2.42-8.976
	c1-3.12,2.005-6.242,2.886-9.397c0.467-1.671,0.526-3.42,0.147-5.146c-0.569-2.59-2.756-3.943-5.312-3.243
	c-0.719,0.197-1.415,0.52-2.081,0.862c-3.503,1.804-6.573,4.193-9.342,6.982c-0.355,0.357-0.724,0.7-1.086,1.05
	c4.029-7.597,8.352-14.956,13.183-21.93c3.908,0.273,6.188-0.132,8.752-1.914c5.031-3.497,8.38-8.238,9.935-14.179
	c0.51-1.948,0.62-3.949-0.15-5.893c-0.877-2.217-2.959-3.347-5.246-2.738c-0.928,0.246-1.836,0.661-2.671,1.143
	c-2.25,1.3-4.188,3.016-5.858,4.98c-2.843,3.345-5.581,6.779-8.354,10.185c-0.585,0.719-1.127,1.472-1.768,2.312
	c-0.49-0.412-0.959-0.744-1.353-1.148c-1.917-1.973-3.813-3.963-5.715-5.949c-2.483-2.596-4.907-5.25-7.461-7.771
	c-2.403-2.373-5.332-3.934-8.508-5.064c-2.406-0.856-4.885-1.279-7.414-1.463c-2.332-0.169-4.619,0.113-6.783,1.006
	c-0.752,0.311-1.433,0.856-2.057,1.396c-0.389,0.336-0.451,0.889-0.021,1.306c0.372,0.36,0.817,0.308,1.212,0.013
	c1.119-0.834,2.445-1.022,3.764-1.157c0.963-0.099,1.945-0.088,2.914-0.034c5.766,0.318,10.794,2.437,14.903,6.488
	c2.459,2.426,4.744,5.034,7.043,7.617c2.275,2.556,4.557,5.094,7.304,7.164c0.096,0.072,0.147,0.203,0.25,0.35
	c-0.24,0.373-0.474,0.745-0.715,1.111c-5.567,8.449-10.924,17.021-15.323,26.154c-0.226,0.47-0.548,0.92-0.917,1.289
	c-2.348,2.357-4.653,4.766-7.105,7.011c-2.652,2.428-5.725,4.188-9.288,4.946c-3.188,0.68-5.445-0.576-6.64-3.625
	c-0.688-1.756-0.929-3.6-1.073-5.461c-0.346-4.47,0.275-8.858,1.225-13.202c1.822-8.337,5.329-15.957,10.033-23.038
	c0.903-1.359,1.943-2.667,3.114-3.797c1.003-0.967,2.208-1.804,3.46-2.418c2.234-1.096,3.976-0.556,5.495,1.404
	c1.048,1.352,1.506,2.924,1.583,4.583c0.133,2.865,0.041,5.696-2.152,7.959c-0.197,0.203-0.328,0.751-0.2,0.929
	c0.227,0.314,0.694,0.668,1.03,0.639c0.482-0.041,1.088-0.294,1.374-0.664c0.641-0.828,1.293-1.727,1.619-2.703
	c0.486-1.461,0.841-3,0.994-4.531c0.345-3.454-0.237-6.726-2.451-9.547c-1.551-1.977-3.6-2.937-6.103-3.014
	c-3.615-0.112-6.642,1.345-9.393,3.504c-1.931,1.516-3.585,3.318-5.026,5.297c-4.799,6.594-8.24,13.854-10.482,21.686
	c-1.697,5.927-2.666,11.944-2.079,18.134c0.232,2.445,0.779,4.82,1.883,7.028c1.706,3.413,4.423,5.615,8.138,6.507
	c2.633,0.632,5.19,0.224,7.685-0.764c3.476-1.376,6.247-3.658,8.604-6.515c0.998-1.208,2.094-2.335,3.145-3.499
	c-0.242,1.757-0.729,3.36-1.082,4.993c-0.241,1.117-0.411,2.275-0.407,3.415c0.005,1.437,0.963,2.478,2.355,2.863
	c1.556,0.431,3.139-0.257,3.991-1.888c0.613-1.174,1.123-2.414,1.559-3.667c0.619-1.779,1.532-3.38,2.577-4.935
	c2.737-4.07,5.98-7.708,9.466-11.138c1.71-1.684,3.527-3.247,5.651-4.404c0.399-0.218,0.822-0.391,1.508-0.713
	c-0.285,0.751-0.449,1.2-0.625,1.644c-1.255,3.174-2.6,6.315-3.748,9.527c-1.375,3.85-2.418,7.807-2.633,11.91
	c-0.075,1.436,0.045,2.953,0.443,4.326c0.917,3.162,4.115,4.4,7.022,2.845c0.656-0.351,1.294-0.804,1.806-1.34
	c1.5-1.57,3.048-3.115,4.367-4.832c3.468-4.515,6.385-9.388,8.849-14.518c1.443-3.005,2.599-6.124,3.058-9.456
	c0.12-0.864,0.173-1.738,0.26-2.633c1.828-0.19,3.502-0.8,5.457-0.785c-0.605,1.46-1.128,2.77-1.687,4.063
	c-2.542,5.88-4.604,11.908-5.624,18.255c-0.321,1.995-0.36,3.985,0.435,5.895c1.22,2.929,4.204,4.073,7.026,2.665
	c0.785-0.393,1.521-0.916,2.207-1.471c2.256-1.826,4.167-3.979,5.818-6.364c0.287-0.415,0.597-0.814,0.871-1.188
	c0.424,1.55,0.626,3.072,1.245,4.399c1.729,3.705,5.506,4.611,8.708,2.093c1.274-1.002,2.381-2.256,3.411-3.52
	c2.611-3.206,4.773-6.726,6.897-10.265c0.27-0.45,0.552-0.893,0.93-1.503c1.713,3.8,3.032,7.534,4.146,11.39
	c-0.47,0.432-0.894,0.816-1.312,1.207c-2.8,2.611-5.375,5.416-7.421,8.673c-1.024,1.63-1.764,3.376-2.126,5.274
	c-0.836,4.375,1.442,8.02,5.777,9.049c3.657,0.869,6.643-0.402,8.994-3.217c2.274-2.72,3.295-5.948,3.505-9.441
	c0.208-3.455-0.494-6.795-1.429-10.095c-0.265-0.933-0.563-1.855-0.87-2.868c2.116-1.967,4.208-3.911,6.501-6.042
	c0.051,0.599,0.066,0.892,0.103,1.181c0.248,2.022,0.382,4.07,0.8,6.057c0.238,1.135,0.778,2.291,1.47,3.227
	c1.758,2.379,4.356,2.3,6.057-0.12c0.735-1.048,1.301-2.216,1.94-3.329c0.479-0.833,0.955-1.667,1.515-2.646
	c0.435,1.665,0.811,3.104,1.186,4.542c0.23,0.885,0.707,1.538,1.675,1.662c0.972,0.125,1.588-0.417,2.049-1.19
	c0.158-0.267,0.308-0.542,0.421-0.829c0.603-1.525,1.306-3.021,1.762-4.589c0.952-3.276,1.769-6.593,2.646-9.891
	c0.797-2.997,1.593-5.994,2.408-8.985c0.09-0.334,0.305-0.633,0.462-0.947c0.252,0.566,0.288,1.044,0.304,1.521
	c0.189,5.454,0.298,10.912,0.604,16.359c0.118,2.105,0.628,4.197,1.067,6.271c0.254,1.198,1.276,1.876,2.444,1.865
	c1.188-0.01,2.046-0.697,2.386-1.929c0.106-0.384,0.139-0.793,0.281-1.161c1.551-3.992,2.288-8.184,3.122-12.359
	c0.877-4.388,1.871-8.752,2.824-13.125c0.055-0.255,0.195-0.491,0.296-0.736c0.322,3.693,0.417,7.323,0.611,10.947
	c0.195,3.631,0.394,7.266,0.786,10.877c0.169,1.558,0.783,3.078,1.289,4.584c0.315,0.942,0.973,1.691,1.841,2.209
	c1.204,0.719,2.653,0.515,3.481-0.55c1.197-1.539,2.338-3.122,3.506-4.684c0.175-0.235,0.365-0.459,0.553-0.694
	c2.568,2.48,4.316,2.159,6.437,1.103c1.256-0.625,2.545-1.186,3.81-1.771c0.477,0.765,0.846,1.533,1.373,2.171
	c1.452,1.759,3.639,1.898,5.227,0.282c0.798-0.813,1.522-1.754,2.059-2.756c0.959-1.795,1.836-3.645,2.594-5.533
	C230.998,229.582,232.165,226.326,233.405,223.03z M94.247,128.289c0.073-0.442,0.105-0.651,0.141-0.859
	c0.405-2.363,0.769-4.732,0.647-7.141c-0.029-0.57-0.074-1.164-0.258-1.696c-0.321-0.926-1.261-1.209-2.038-0.619
	c-0.371,0.282-0.689,0.702-0.891,1.126c-0.321,0.677-0.557,1.399-0.772,2.12c-1.168,3.908-2.332,7.816-3.463,11.734
	c-0.206,0.712-0.568,1.255-1.084,1.778c-2.653,2.679-5.337,5.333-7.89,8.105c-4.409,4.789-8.214,10.007-10.906,15.981
	c-1.191,2.645-2.127,5.357-2.417,8.258c-0.173,1.729-0.175,3.459,0.357,5.14c1.049,3.313,4.358,4.882,7.543,3.51
	c0.923-0.397,1.79-0.984,2.587-1.606c2.057-1.605,3.598-3.67,4.929-5.887c3.534-5.889,6.204-12.171,8.131-18.743
	c1.559-5.314,2.841-10.709,4.277-16.061c0.141-0.525,0.374-1.139,0.769-1.464c2.161-1.779,4.441-3.396,7.032-4.512
	c0.608-0.262,1.236-0.502,1.878-0.655c1.175-0.281,1.491-0.063,1.513,1.116c0.019,1.016-0.031,2.042-0.162,3.049
	c-0.538,4.142-1.556,8.181-2.658,12.202c-1.921,7.011-3.914,14.01-4.979,21.218c-0.209,1.421-0.109,2.916,0.049,4.354
	c0.133,1.204,1.001,1.984,2.189,2.227c1.271,0.259,2.389-0.13,3.181-1.19c0.34-0.455,0.594-0.987,0.819-1.515
	c0.803-1.874,1.596-3.754,2.358-5.645c2.055-5.099,4.025-10.233,6.157-15.3c2.064-4.905,4.285-9.75,7.098-14.284
	c1.049-1.689,2.305-3.251,3.489-4.854c0.182-0.246,0.489-0.397,0.875-0.7c0,0.541,0.03,0.852-0.004,1.155
	c-0.323,2.819-0.641,5.638-0.992,8.453c-0.747,5.983-1.604,11.954-2.241,17.949c-0.478,4.495-0.74,9.018-0.988,13.533
	c-0.194,3.545-0.233,7.096,0.725,10.575c0.415,1.506,0.878,2.979,1.809,4.259c1.612,2.217,4.035,2.298,5.615,0.053
	c0.961-1.367,1.711-2.896,2.435-4.41c0.802-1.679,1.463-3.425,2.196-5.137c0.133-0.312,0.316-0.601,0.492-0.93
	c0.347,0.204,0.613,0.357,0.876,0.515c2.545,1.519,5.202,1.726,7.885,0.485c1.113-0.514,2.187-1.197,3.128-1.983
	c3.532-2.951,6.086-6.653,8.056-10.789c2.276-4.777,3.359-9.886,4.26-15.049c0.079-0.458,0.184-0.912,0.293-1.45
	c0.877,0.173,1.599,0.315,2.446,0.482c-0.059,0.821-0.064,1.525-0.165,2.214c-0.634,4.343-1.395,8.671-1.898,13.028
	c-0.33,2.854-0.369,5.749-0.4,8.627c-0.019,1.667,0.558,3.227,1.584,4.578c2.161,2.844,5.744,3.106,8.192,0.523
	c0.815-0.859,1.536-1.857,2.092-2.902c3.11-5.854,5.743-11.898,7.032-18.447c0.097-0.488,0.296-0.791,0.76-0.981
	c1.147-0.472,2.275-0.991,3.422-1.465c0.255-0.105,0.555-0.103,0.955-0.17c-0.117,0.483-0.193,0.819-0.281,1.151
	c-0.774,2.912-1.61,5.809-2.31,8.738c-0.619,2.596-0.925,5.246-0.764,7.922c0.144,2.379,0.837,4.541,2.788,6.1
	c2.075,1.659,4.59,1.586,6.529-0.227c0.61-0.57,1.176-1.222,1.629-1.922c1.76-2.718,3.465-5.471,5.191-8.209
	c0.208-0.331,0.422-0.657,0.652-1.016c2.129,0.704,3.965,0.113,5.69-1.073c1.483-1.021,2.69-2.302,3.709-3.776
	c0.239-0.347,0.509-0.672,0.854-1.126c0.722,1.591,1.355,3.001,2,4.408c1.258,2.747,2.379,5.532,2.857,8.548
	c0.456,2.871,0.354,5.685-0.871,8.346c-2.254,4.896-6.313,7.261-11.522,7.465c-4.931,0.193-9.841-0.325-14.594-1.801
	c-3.131-0.972-6.219-2.094-9.374-2.973c-4.162-1.16-8.396-1.852-12.747-1.237c-3.43,0.483-6.287,2.049-8.68,4.514
	c-0.828,0.854-1.307,1.892-1.534,3.046c-0.093,0.473,0.033,0.901,0.488,1.135c0.479,0.247,0.954,0.19,1.344-0.199
	c0.185-0.186,0.34-0.41,0.472-0.638c0.708-1.228,1.758-2.079,2.933-2.836c2.495-1.607,5.22-2.12,8.136-1.897
	c4.731,0.361,9.286,1.536,13.644,3.329c6.339,2.608,12.881,4.228,19.719,4.576c5.2,0.266,9.821-1.237,13.582-4.949
	c3.33-3.288,4.78-7.411,4.988-11.993c0.205-4.509-0.725-8.834-2.555-12.939c-2.549-5.715-4.884-11.504-6.768-17.476
	c-0.749-2.376-1.891-4.596-3.263-6.675c-0.479-0.727-1.111-1.38-1.777-1.946c-0.607-0.516-1.403-0.611-2.118-0.174
	c-0.733,0.448-0.885,1.196-0.726,1.989c0.156,0.781,0.34,1.561,0.572,2.322c1.509,4.961,3.031,9.917,4.562,14.871
	c0.138,0.447,0.193,0.818-0.114,1.243c-1.267,1.746-2.763,3.252-4.629,4.335c-2.068,1.199-2.85,0.798-3.137-1.596
	c-0.163-1.362-0.198-2.742-0.282-4.114c-0.175-2.832-0.287-5.669-0.538-8.494c-0.134-1.504-0.876-2.26-1.927-2.354
	c-1.074-0.096-1.972,0.63-2.352,2.113c-0.317,1.241-0.576,2.517-0.666,3.792c-0.316,4.505-0.377,8.983,2.528,12.849
	c-1.571,3.139-5.37,8.033-7.028,8.93c0-0.645-0.053-1.207,0.01-1.758c0.244-2.159,0.527-4.313,0.791-6.471
	c0.349-2.859,0.771-5.714,0.999-8.583c0.096-1.209-0.069-2.495-0.397-3.667c-0.551-1.967-2.165-3.005-4.19-3.05
	c-1.054-0.023-2.014,0.249-2.944,0.693c-1.026,0.49-2.054,0.979-3.203,1.528c-0.092-0.717-0.162-1.282-0.235-1.847
	c-0.162-1.248-0.498-2.435-1.277-3.451c-1.685-2.198-4.506-2.069-6.01,0.265c-0.849,1.317-0.988,2.741-0.564,4.214
	c0.613,2.137,1.979,3.619,4.057,4.404c0.027,0.17,0.073,0.301,0.063,0.426c-0.028,0.309-0.067,0.618-0.129,0.921
	c-0.688,3.41-1.818,6.681-3.371,9.779c-0.93,1.854-2.129,3.575-3.228,5.344c-0.136,0.218-0.396,0.357-0.764,0.677
	c0-0.683,0.005-1.121,0-1.56c-0.055-4.189,0.561-8.313,1.193-12.436c0.459-2.998,0.664-6-0.117-8.984
	c-0.644-2.456-2.223-4.533-5.334-4.809c-1.139-0.101-2.271-0.27-3.5-0.419c0-0.605,0.055-1.14-0.01-1.659
	c-0.225-1.798-0.39-3.614-0.77-5.381c-0.351-1.632-1.217-3.054-2.568-4.095c-2.451-1.89-6.292-1.818-7.869,2.077
	c-0.808,1.994-0.697,3.984,0.18,5.943c1.25,2.796,3.6,4.295,6.315,5.361c0.44,0.173,0.888,0.327,1.329,0.489
	c-0.023,0.456-0.022,0.811-0.063,1.16c-0.629,5.343-2.169,10.406-4.74,15.136c-1.516,2.789-3.426,5.284-5.846,7.359
	c-0.604,0.518-1.238,1.02-1.923,1.419c-2.172,1.268-3.792,0.797-4.957-1.41c-0.247-0.467-0.445-0.969-0.596-1.476
	c-0.632-2.113-0.605-4.278-0.52-6.517c0.252,0.064,0.427,0.084,0.583,0.151c1.682,0.722,3.302,0.499,4.859-0.353
	c2.204-1.207,3.681-3.04,4.438-5.424c0.718-2.258,0.862-4.541-0.122-6.763c-1.124-2.538-3.628-3.682-6.256-2.869
	c-0.754,0.233-1.49,0.581-2.172,0.981c-2.571,1.508-4.388,3.706-5.635,6.386c-1.818,3.91-2.404,8.04-2.18,12.318
	c0.106,2.021,0.516,3.956,1.479,5.746c0.23,0.428,0.323,0.802,0.101,1.248c-1.186,2.38-2.36,4.766-3.553,7.142
	c-0.102,0.202-0.309,0.351-0.647,0.721c0.054-1.029,0.065-1.781,0.137-2.527c0.49-5.077,0.976-10.154,1.496-15.229
	c0.565-5.515,1.149-11.027,1.756-16.538c0.521-4.724,0.978-9.454,0.606-14.205c-0.123-1.571-0.465-3.169-0.984-4.658
	c-1.163-3.331-4.374-4.304-6.88-1.312c-1.507,1.8-3.006,3.623-4.32,5.564c-3.469,5.125-6.115,10.694-8.535,16.375
	c-0.194,0.455-0.407,0.902-0.61,1.353c-0.063-0.581,0.035-1.097,0.156-1.607c0.973-4.101,1.816-8.226,2.191-12.432
	c0.194-2.17,0.294-4.342-0.351-6.469c-1.081-3.563-3.83-4.988-7.335-3.78c-2.578,0.889-4.921,2.23-7.158,3.771
	C95.149,127.728,94.786,127.944,94.247,128.289z M132.585,207.905c0.001-2.009-1.691-3.252-3.582-2.607
	c-1.261,0.429-2.019,1.441-2.545,2.56c-0.644,1.367,0.184,2.903,1.657,3.351C130.188,211.838,132.584,210.066,132.585,207.905z"/>
<path fill="#853034" d="M217.931,236.146c-1.354,0.861-2.904,1.376-4.463,1.872c-0.552,0.177-1.021-0.023-1.237-0.498
	c-0.345-0.756-0.752-1.549-0.817-2.353c-0.293-3.557-0.076-7.09,1.054-10.503c0.301-0.91,0.797-1.781,1.337-2.578
	c0.567-0.839,1.035-0.871,1.926-0.357c1.024,0.591,1.834,1.423,2.35,2.47c0.216,0.438,0.201,1.024,0.181,1.538
	c-0.087,2.257-0.234,4.512-0.32,6.769C217.894,233.695,217.931,234.89,217.931,236.146z"/>
<path fill="#853034" d="M147.464,246.439c0.949,4.626,1.338,9.159-0.859,13.532c-0.296,0.589-0.665,1.155-1.082,1.665
	c-0.965,1.178-2.287,1.544-3.557,1.057c-1.254-0.482-2.018-1.655-1.874-3.188c0.099-1.047,0.325-2.107,0.671-3.101
	c1.307-3.746,3.561-6.903,6.278-9.751C147.125,246.566,147.267,246.536,147.464,246.439z"/>
<path fill="#853034" d="M91.275,202.488c3.08-4.466,6.127-8.963,9.267-13.393c0.967-1.364,2.186-2.551,3.302-3.808
	c0.1-0.113,0.292-0.145,0.481-0.232c0.621,0.972,0.603,2.003,0.434,2.988c-0.202,1.169-0.453,2.363-0.915,3.448
	c-1.547,3.628-3.644,6.884-6.831,9.325c-1.439,1.102-3.03,1.82-4.861,1.937c-0.175,0.011-0.354,0.005-0.528-0.02
	C91.553,202.725,91.491,202.645,91.275,202.488z"/>
<path fill="#853034" d="M233.186,216.085c-1.982-2.449-3.551-4.78-3.773-7.733c-0.053-0.712,0.057-1.547,0.395-2.158
	c0.87-1.574,2.443-1.863,3.731-0.231c0.687,0.87,0.907,1.928,0.922,2.991C234.492,211.309,233.948,213.571,233.186,216.085z"/>
<path fill="#853034" d="M144.674,221.116c-0.295-1.55-0.708-3.089-0.855-4.652c-0.161-1.71-0.125-3.444-0.073-5.165
	c0.019-0.642,0.245-1.311,0.517-1.903c0.528-1.153,1.702-1.28,2.37-0.202c0.425,0.687,0.682,1.545,0.771,2.353
	c0.095,0.862-0.024,1.769-0.178,2.634c-0.426,2.406-1.289,4.677-2.216,6.922C144.898,221.106,144.786,221.111,144.674,221.116z"/>
<path fill="#853034" d="M99.979,214.034c0.937,0.552,1.399,1.213,1.829,2.274C100.817,215.705,100.161,215.201,99.979,214.034z"/>
<path fill="#853034" d="M85.605,139.632c-0.763,2.442-1.51,4.89-2.29,7.326c-2.033,6.351-4.6,12.482-7.804,18.33
	c-0.955,1.74-2.191,3.327-3.313,4.974c-0.198,0.291-0.458,0.543-0.713,0.789c-1.155,1.106-2.01,0.915-2.539-0.619
	c-0.521-1.508-0.408-3.066-0.182-4.609c0.357-2.438,1.212-4.719,2.293-6.916c3.541-7.2,8.254-13.543,13.999-19.131
	c0.091-0.088,0.205-0.153,0.308-0.229C85.444,139.575,85.525,139.604,85.605,139.632z"/>
<path fill="#853034" d="M142.21,151.958c-0.027,2.704-1.166,4.78-3.552,6.103c-1.013,0.562-2.1,0.662-3.2,0.184
	c-0.603-0.263-0.886-0.657-0.766-1.354c0.338-1.975,0.783-3.916,1.691-5.716c0.632-1.252,1.563-2.263,2.736-3.026
	c0.875-0.57,1.561-0.438,2.192,0.396C142.073,149.552,142.232,150.73,142.21,151.958z"/>
<path fill="#853034" d="M153.276,140.928c-1.896-0.695-3.364-1.606-4.318-3.197c-0.749-1.249-0.885-2.58-0.377-3.943
	c0.366-0.985,0.938-1.165,1.873-0.666c0.816,0.435,1.368,1.124,1.725,1.948C152.96,136.877,153.221,138.789,153.276,140.928z"/>
<path fill="#853034" d="M171.216,145.736c0.775,1.08,0.832,2.279,0.964,3.5C170.833,148.59,170.434,147.19,171.216,145.736z"/>
<g>
	<path fill="#CBB478" d="M164.892,96.355c0.603,0.704,0.997,1.211,1.439,1.673c3.664,3.826,8.015,6.647,12.864,8.724
		c4.744,2.032,9.696,3.393,14.783,4.152c4.949,0.738,9.931,1.271,14.908,1.8c7.365,0.783,14.755,1.354,22.006,2.98
		c9.271,2.079,17.659,6.054,25.272,11.709c1.063,0.79,2.148,1.551,3.224,2.325c0.234,0.169,0.492,0.315,0.698,0.515
		c0.411,0.396,0.641,0.865,0.4,1.451c-0.225,0.547-0.637,0.916-1.219,0.904c-0.521-0.011-1.098-0.074-1.548-0.31
		c-2.455-1.287-4.95-2.52-7.301-3.98c-8.112-5.039-16.909-8.125-26.343-9.411c-4.796-0.654-9.609-1.185-14.42-1.724
		c-6.785-0.76-13.587-1.396-20.255-2.956c-6.242-1.46-12.25-3.512-17.685-7.01c-3.118-2.007-5.938-4.359-8.329-7.206
		c-0.13-0.154-0.271-0.298-0.606-0.667c0.051,0.58,0.045,0.918,0.113,1.241c1.131,5.293,3.82,9.653,7.914,13.162
		c3.122,2.677,6.741,4.482,10.545,5.957c4.949,1.917,10.064,3.297,15.173,4.693c7.639,2.087,15.137,4.558,22.287,7.997
		c7.932,3.814,14.961,8.823,20.63,15.632c4.188,5.029,7.51,10.594,10.32,16.484c2.819,5.907,5.145,12.018,7.528,18.108
		c2.744,7.013,5.639,13.968,8.462,20.951c0.186,0.458,0.364,0.93,0.46,1.412c0.309,1.552-0.979,2.682-2.489,2.218
		c-0.761-0.234-1.289-0.751-1.644-1.43c-0.498-0.953-1.004-1.907-1.41-2.9c-2.492-6.091-4.932-12.202-7.436-18.286
		c-2.789-6.774-5.594-13.544-8.945-20.067c-2.181-4.244-4.664-8.295-7.597-12.07c-5.531-7.12-12.572-12.288-20.668-16.118
		c-6.606-3.126-13.532-5.361-20.513-7.461c-4.713-1.418-9.415-2.884-14.077-4.46c-3.615-1.222-7.053-2.871-10.245-4.99
		c-5.166-3.428-8.918-7.983-10.99-13.858c-0.813-2.305-1.235-3.805-1.248-8.051c-0.205,0.143-0.383,0.216-0.49,0.348
		c-3.572,4.381-7.727,8.186-11.898,11.97c-1.41,1.279-2.872,2.504-4.352,3.702c-1.974,1.598-4.146,2.879-6.503,3.834
		c-1.047,0.424-2.121,0.68-3.264,0.641c-1.755-0.061-3.065-1.028-3.605-2.711c-0.433-1.351-0.308-2.702,0.035-4.043
		c0.761-2.966,2.374-5.446,4.44-7.651c2.025-2.16,4.395-3.896,6.889-5.47c0.334-0.211,0.66-0.436,0.943-0.899
		c-0.39,0-0.781-0.008-1.171,0.001c-4.139,0.095-8.277,0.209-12.417,0.275c-1.03,0.017-2.07-0.067-3.094-0.195
		c-2.468-0.307-4.237-1.852-4.528-4.082c-0.108-0.827,0.045-1.735,0.283-2.547c0.264-0.901,0.76-1.734,1.228-2.753
		c-0.476-0.747-0.845-1.703-0.62-2.772c0.228-1.078,0.924-1.826,1.902-2.449c-1.22-1.523-1.356-3.019,0.142-4.546
		c-0.523-0.337-1-0.628-1.458-0.945c-0.503-0.347-0.888-0.771-0.677-1.451c0.172-0.559,0.74-0.903,1.499-0.846
		c0.449,0.034,0.899,0.145,1.332,0.276c3.036,0.926,6.151,1.25,9.311,1.292c2.317,0.031,4.635,0.067,6.95,0.169
		c3.738,0.165,7.44-0.237,11.147-0.601c0.656-0.064,1.31-0.157,2.054-0.248c0.105-0.404,0.216-0.792,0.311-1.185
		c1.253-5.18,2.991-10.164,5.947-14.648c1.19-1.806,2.569-3.458,4.262-4.822c0.974-0.784,2.012-1.449,3.287-1.657
		c1.698-0.277,3.213,0.44,3.837,2.026c0.326,0.828,0.481,1.761,0.525,2.655c0.099,2.003-0.279,3.971-0.864,5.872
		c-0.85,2.766-1.824,5.495-2.75,8.238c-0.145,0.428-0.31,0.849-0.531,1.454c1.028-0.15,1.911-0.276,2.794-0.408
		c2.456-0.366,4.908-0.764,7.408-0.67c1.185,0.045,2.296,0.291,3.282,0.979c1.344,0.938,1.862,2.285,1.531,3.893
		c-0.063,0.307-0.084,0.644-0.03,0.951c0.148,0.841,0.347,1.673,0.551,2.629c2.812,1.702,2.907,5.063-1.346,6.787
		c0.927,1.167,0.581,2.509,0.416,3.773c-0.223,1.699-1.39,2.773-2.878,3.489c-1.247,0.599-2.586,0.884-3.963,0.936
		c-2.356,0.088-4.715,0.138-7.073,0.203C166.893,96.302,166.04,96.324,164.892,96.355z M132.881,113.651
		c0.499-0.216,0.951-0.389,1.382-0.604c2.391-1.188,4.469-2.822,6.433-4.604c3.827-3.471,7.632-6.966,11.441-10.455
		c0.1-0.092,0.15-0.238,0.257-0.413c-0.221-0.015-0.344-0.041-0.462-0.027c-0.246,0.027-0.491,0.067-0.733,0.118
		c-6.264,1.313-11.332,4.64-15.572,9.32c-1.144,1.264-1.998,2.739-2.513,4.379C132.897,112.059,132.617,112.763,132.881,113.651z
		 M161.501,74.617c0.553-1.443,1.107-2.861,1.64-4.287c1.259-3.365,2.541-6.725,3.231-10.269c0.153-0.785,0.299-1.58,0.166-2.434
		c-4.32,2.005-8.823,12.609-9.514,17.615C158.519,75.033,159.975,74.83,161.501,74.617z"/>
</g>
</svg>
