<?xml version="1.0" encoding="utf-8"?>
<!-- Generator: Adobe Illustrator 22.0.0, SVG Export Plug-In . SVG Version: 6.00 Build 0)  -->
<svg version="1.1" id="Calque_1" xmlns="http://www.w3.org/2000/svg" xmlns:xlink="http://www.w3.org/1999/xlink" x="0px" y="0px"
	 viewBox="0 0 432 432" style="enable-background:new 0 0 432 432;" xml:space="preserve">
<style type="text/css">
	.st0{fill:#066938;}
	.st1{fill:#9F1E29;}
	.st2{fill:#571419;}
	.st3{fill:none;}
	.st4{fill:#C68448;}
	.st5{fill:#8C633A;}
	.st6{fill:#D79A5D;}
	.st7{fill:#A5C0DF;}
	.st8{fill:#36502D;}
	.st9{fill:#C8261D;}
	.st10{fill:#808181;}
	.st11{fill:#519C37;}
	.st12{fill:#FCEE69;}
	.st13{fill:#EC8C37;}
	.st14{fill:#5877B1;}
	.st15{fill:#7B1523;}
	.st16{fill:#4F0D1C;}
	.st17{fill:#BF333D;}
	.st18{fill:#E7373D;}
	.st19{fill:#972021;}
	.st20{fill:#F2F2F2;}
	.st21{fill:#F3D4AA;}
	.st22{fill:#A67D52;}
	.st23{fill:#B59063;}
	.st24{fill:#020203;}
	.st25{fill:#FFFFFF;}
	.st26{fill:#E7E6E6;}
	.st27{fill:#9A9999;}
	.st28{fill:#B4B4B4;}
	.st29{fill:#C9913E;}
	.st30{fill:#D6A14D;}
	.st31{fill:#E2A1BC;}
	.st32{fill:#C1292E;}
	.st33{fill:#82171C;}
	.st34{fill:#CDCCCC;}
	.st35{fill:#D06C5D;}
	.st36{fill:#79986F;}
	.st37{fill:#DAA405;}
	.st38{fill:#EDCBA9;}
	.st39{fill:#405045;}
	.st40{fill:#8B2F2F;}
	.st41{fill:#1D2E1C;}
	.st42{fill:#D4BB78;}
	.st43{fill:#3C1014;}
	.st44{fill:#731633;}
	.st45{fill:#3F0D26;}
	.st46{fill:#E3EBF8;}
	.st47{fill:#D2DFEF;}
	.st48{fill:#B88E5C;}
	.st49{fill:#A81735;}
	.st50{fill:#4AA8A8;}
	.st51{fill:#94B947;}
	.st52{fill:#A8C4D3;}
	.st53{fill:#9F1A18;}
	.st54{fill:#4F6325;}
	.st55{fill:#BAC463;}
	.st56{fill:#8C694B;}
	.st57{fill:#8A9A66;}
	.st58{fill:#DDDDC3;}
	.st59{fill:#3F668A;}
	.st60{fill:#1B1B1B;}
	.st61{fill:#FFF0BA;}
	.st62{fill:#C69C6C;}
	.st63{fill:#603914;}
	.st64{fill:#114923;}
	.st65{fill:#961F27;}
	.st66{fill:#BB870E;}
	.st67{fill:#C51720;}
	.st68{fill:#449494;}
	.st69{fill:#417675;}
	.st70{fill:#ABCFAF;}
	.st71{fill:#66B2B0;}
	.st72{fill:#F9B03D;}
	.st73{fill:#754D24;}
	.st74{fill:#F6F6F6;}
	.st75{fill:#BA181A;}
	.st76{fill:#AD191C;}
	.st77{fill:#161515;}
	.st78{fill:#1E1E1C;}
	.st79{fill:#0E472B;}
	.st80{fill:#D3C29D;}
	.st81{fill:#CC2717;}
	.st82{fill:#A81916;}
	.st83{fill:#805129;}
	.st84{fill:#F39323;}
	.st85{fill:#B56B20;}
	.st86{fill:#E52629;}
	.st87{fill:#7B9EC7;}
	.st88{fill:#48515A;}
	.st89{fill:#DED3C6;}
	.st90{fill:#3B444E;}
	.st91{fill:#6189B1;}
	.st92{fill:#97B8D7;}
	.st93{fill:#715038;}
	.st94{fill:#A3282E;}
	.st95{fill:#110506;}
	.st96{fill:#F3E4D4;}
	.st97{fill:#F4DCC9;}
	.st98{fill:#676767;}
	.st99{fill:#E0EDF3;}
	.st100{fill:#90443F;}
	.st101{fill:#989389;}
	.st102{fill:#F0DABE;}
	.st103{fill:#4F382A;}
	.st104{fill:#009245;}
	.st105{fill:#064928;}
</style>
<g>
	<g>
		<g>
			<g>
				<path class="st24" d="M197.6,354.9c0.1,3.1-7.5,7-11.1,7.5s-0.6,5.2,3.2,4.7s14.5-1.4,17.8-1.4c-2.5-5.5-2.1-13-2.5-13.2
					C200.3,353.4,197.6,354.9,197.6,354.9z"/>
				<path class="st24" d="M250.7,354.9c-0.1,3.1,7.5,7,11.1,7.5c3.6,0.6,0.6,5.2-3.2,4.7s-14.5-1.4-17.8-1.4
					c2.5-5.5,2.1-13,2.5-13.2C248,353.4,250.7,354.9,250.7,354.9z"/>
			</g>
			<g>
				<path class="st24" d="M150.2,226.1c-3.4-4.6,0.9-10.4,0-12c-0.9-1.5-6.1-0.2-6.4,3.4c-0.3,3.6-2.7,0.3-5.9-1.1
					c-3.2-1.4-5.7,0.9-6.9,3.4c-1.2,2.4-1.8,9.4,4,10.7s5.8,1.3,5.8,1.3s3.2,0.2,6.1,2.2C149.6,231.9,152.5,229.1,150.2,226.1z"/>
				<path class="st24" d="M296.9,230.7c3.4-4.6-0.9-10.4,0-12c0.9-1.5,6.1-0.2,6.4,3.4s2.7,0.3,5.9-1.1c3.2-1.4,5.7,0.9,6.9,3.4
					s1.8,9.4-4,10.7c-5.8,1.3-5.8,1.3-5.8,1.3s-3.2,0.2-6.1,2.2C297.6,236.5,294.7,233.8,296.9,230.7z"/>
			</g>
		</g>
		<g>
			<g>
				<path  class="st1" d="M299.5,239c-1.1,1.7-24.2,19.8-38.6,30.9c5.3,9.6,8.6,17.9,10.2,25v0c1.4,5.9,1.7,11,1.2,15.4
					c-1.5,14.6-12.3,20.2-18.8,23.9c-0.5,1.9-4.3,14-4,18.7c0.3,4.7-8,3.6-8.8,1.7c-0.8-1.9,0-6.6,0-15.2
					c-5.5,1.7-20.4,2.8-34.4-0.8v16c0,5-11,1.9-10.7,0c0.3-1.9,2.9-9.8-2.3-20.7c-16.3-9.2-22.6-18.2-24-29
					c-0.6-4.9-0.2-9.7,0.8-14.4c1.8-8.2,5.3-16,8.4-22.4c-6.6-3.6-27.5-25.4-30.9-30c-3.3-4.7,2.8-12.1,6.9-9.1
					c6.1,4.4,30.1,27.5,35.1,28.4c5,0.8,2.9-13.8,9.3-13c6.3,0.8,39.9,1.4,46,1.7c6.1,0.3,0.6,10.2,7.2,9.4
					c6.6-0.8,37.2-22.9,40.5-25.6C295.9,226.9,300.6,237.4,299.5,239z"/>
				<path class="st6" d="M271.2,294.9c-13.2,4.3-25.7,6.4-37.5,7.1v-1.5c0-0.7-0.5-1.2-1.2-1.2h-21.2c-0.7,0-1.2,0.5-1.2,1.2v0.7
					c-16-1.9-29.7-6.2-40-10.8c-1,4.7-1.4,9.6-0.8,14.4c12.8,4.6,26.8,7.4,40.8,8.7v2.1c0,0.7,0.5,1.2,1.2,1.2h21.2
					c0.7,0,1.2-0.5,1.2-1.2v-1.2c14-0.2,27.4-1.7,38.8-4C272.9,305.9,272.6,300.8,271.2,294.9z M229.2,311.4c0,0.7-0.5,1.2-1.2,1.2
					h-12.3c-0.7,0-1.2-0.5-1.2-1.2v-7.3c0-0.7,0.5-1.2,1.2-1.2H228c0.7,0,1.2,0.5,1.2,1.2V311.4z"/>
			</g>
			<g>
				<path class="st26" d="M207.5,359.1c-4-0.9-10.6-0.6-13.7-2.3c-3.1-1.8,1.7-6.8,5.5-6.1c3.8,0.8,7,2.5,9.5,3.1
					C211.2,354.4,209.9,359.7,207.5,359.1z"/>
				<path class="st26" d="M240.4,359.1c4-0.9,10.6-0.6,13.7-2.3s-1.7-6.8-5.5-6.1c-3.8,0.8-7,2.5-9.5,3.1
					C236.7,354.4,237.9,359.7,240.4,359.1z"/>
			</g>
			<g>
				<path class="st26" d="M156.2,226.9c-2.7,3.1-5.5,9.1-8.5,11c-3,1.9-5.2-4.7-2.8-7.7c2.5-3,5.5-5,7.2-6.9S157.9,225,156.2,226.9z
					"/>
				<path class="st26" d="M291,231.6c2.7,3.1,5.5,9.1,8.5,11c3,1.9,5.2-4.7,2.8-7.7c-2.5-3-5.5-5-7.2-6.9S289.3,229.6,291,231.6z"/>
			</g>
		</g>
		<g>
			<path class="st96" d="M186.8,203.4c-1.4-8.2,2.6-24.9,27.8-28.4s36.4-1.5,41.6,20c5.2,21.5-9.9,39.8-33.2,37.7
				S188.9,216,186.8,203.4z"/>
			<g>
				<path class="st20" d="M166,212.1c8.6-6.6,13.8-21.5,28.4-18.2s23.4,9.8,28.5,9c5.2-0.8,14.2,2.9,19.6,0
					c5.4-2.9,17.2-8.4,22.8,5.5c5.7,13.9,17.9,26.4,17.4,32.6c-0.5,6.1-4.9,18.6-26.6,28.4c-21.7,9.7-22.1,11.1-24.3,15.1
					c-2.2,4-5,11.5-14.8,10.6c-9.8-0.9-18.1-14.8-19.8-21.3s-13-5.1-19.5-12.3c-6.5-7.2-8.2-22.5-9-25.6
					C168.1,232.7,154.9,220.7,166,212.1z"/>
				<g>
					<g>
						<g>
							<path class="st24" d="M202.4,192.9l-1.1-1c3.7-3.9,11.6-7.5,17.4-3.5l-0.8,1.2C212.8,186,205.8,189.4,202.4,192.9z"/>
						</g>
						<g>
							<path class="st24" d="M248.7,189.8c-3.7-3.1-11-5.7-15.7-1.6l-1-1.1c5.3-4.6,13.5-1.9,17.6,1.6L248.7,189.8z"/>
						</g>
					</g>
					<path class="st24" d="M214.9,214.7c6.8,2.2,11.8,1.9,18.1-0.3c6.3-2.2,1.4,9.4-7.3,10C217,225.1,209.6,213,214.9,214.7z"/>
					<circle class="st21" cx="225.2" cy="198.1" r="6.8"/>
				</g>
			</g>
		</g>
		<g>
			<path  class="st1" d="M177,183.2c-7.6-10.2-22.4,14.5-25.9,9.7c-3.5-4.8-3-20.3,5.6-26s3.3-21.1,30.1-24.5
				c26.9-3.5,51.2-7.2,61.6,28.9c-19.5,0-49.6,3-58,7.8C181.9,183.9,179,185.9,177,183.2z"/>
			<path class="st26" d="M178.3,201.3c-10.6-3.7-17.1-13,3.4-25.4c20.5-12.3,20-4.9,36-9.6c7.8-2.3,14.9-3.2,21.3-0.4s13,3.1,20.9,8
				c7.9,4.9,7.9,27.4-0.3,29s-6.2-15-9.9-19.6c-3.7-4.6-19.7,0.5-22.6-2.7s-16.4-3.7-25.4,1.8C192.8,187.8,186.9,204.2,178.3,201.3z
				"/>
			<path class="st26" d="M144.4,184.7c2-3.1,7.9-1.8,10.8-2.2c2.9-0.4,5.3,0.2,6.6,3.2c1.2,2.9,4.9,9.7-3.5,13
				c-8.3,3.2-13.7,0.3-14-4.8S143.4,186.2,144.4,184.7z"/>
		</g>
	</g>
	<g id="flocons">
		<path class="st20" d="M105.7,169.6c-6.2,0-11.3,5.1-11.3,11.3c0,6.2,5.1,11.3,11.3,11.3c6.2,0,11.3-5.1,11.3-11.3
			C117,174.6,111.9,169.6,105.7,169.6z"/>
		<path class="st20" d="M125.8,107.8c-6.2,0-11.3,5.1-11.3,11.3c0,6.2,5.1,11.3,11.3,11.3s11.3-5.1,11.3-11.3
			C137.1,112.8,132,107.8,125.8,107.8z"/>
		<path class="st20" d="M181.5,64.8c-6.2,0-11.3,5.1-11.3,11.3c0,6.2,5.1,11.3,11.3,11.3c6.2,0,11.3-5.1,11.3-11.3
			C192.8,69.9,187.7,64.8,181.5,64.8z"/>
		<path class="st20" d="M248.3,64.8c-6.2,0-11.3,5.1-11.3,11.3c0,6.2,5.1,11.3,11.3,11.3c6.2,0,11.3-5.1,11.3-11.3
			C259.6,69.9,254.5,64.8,248.3,64.8z"/>
		<path class="st20" d="M298.7,107.8c-6.2,0-11.3,5.1-11.3,11.3c0,6.2,5.1,11.3,11.3,11.3c6.2,0,11.3-5.1,11.3-11.3
			C310,112.8,305,107.8,298.7,107.8z"/>
		<circle class="st20" cx="326.3" cy="180.2" r="11.3"/>
	</g>
</g>
</svg>
