<?xml version="1.0" encoding="utf-8"?>
<!-- Generator: Adobe Illustrator 16.0.0, SVG Export Plug-In . SVG Version: 6.00 Build 0)  -->
<!DOCTYPE svg PUBLIC "-//W3C//DTD SVG 1.1//EN" "http://www.w3.org/Graphics/SVG/1.1/DTD/svg11.dtd">
<svg version="1.1" id="Calque_1" xmlns="http://www.w3.org/2000/svg" xmlns:xlink="http://www.w3.org/1999/xlink" x="0px" y="0px"
	 width="59.041px" height="58.672px" viewBox="0 0 59.041 58.672" enable-background="new 0 0 59.041 58.672" xml:space="preserve">
<path fill="#97B9D8" d="M42.757,13.69c1.125,0.177,2.053,0.311,2.977,0.47c0.979,0.17,1.956,0.354,2.929,0.553
	c0.294,0.06,0.591,0.152,0.857,0.287c0.501,0.253,0.795,0.665,0.749,1.253c-0.046,0.591-0.397,0.996-0.945,1.097
	c-0.586,0.106-1.207,0.143-1.798,0.076c-1.975-0.223-3.943-0.505-5.913-0.765c-0.21-0.027-0.42-0.056-0.667-0.089
	c-2.336,3.568-4.654,7.109-7.126,10.888c0.505-0.217,0.795-0.317,1.063-0.46c1.604-0.85,3.184-1.748,4.813-2.546
	c0.561-0.275,1.238-0.41,1.864-0.414c0.336-0.002,0.822,0.339,0.978,0.654c0.228,0.461-0.199,0.757-0.602,0.983
	c-1.848,1.034-3.691,2.078-5.532,3.126c-0.294,0.167-0.569,0.368-1.004,0.651c0.349,0.095,0.531,0.184,0.716,0.188
	c2.206,0.049,4.412,0.073,6.618,0.132c0.59,0.016,1.026-0.147,1.509-0.532c1.994-1.592,4.019-3.153,6.349-4.247
	c0.386-0.181,0.793-0.348,1.208-0.43c0.505-0.099,1.04,0.072,1.181,0.568c0.114,0.401,0.078,0.993-0.152,1.312
	c-0.339,0.469-0.888,0.805-1.388,1.136c-1.076,0.71-2.177,1.38-3.5,2.212c0.463,0.129,0.642,0.218,0.822,0.223
	c1.546,0.039,3.097,0.011,4.638,0.115c0.674,0.046,1.376,0.266,1.976,0.58c0.356,0.187,0.668,0.679,0.763,1.089
	c0.131,0.566-0.288,1.026-0.805,1.184c-0.609,0.185-1.268,0.28-1.906,0.284c-1.209,0.007-2.419-0.082-3.629-0.126
	c-0.288-0.011-0.576-0.002-1.14-0.002c0.48,0.529,0.794,0.858,1.088,1.203c0.982,1.151,1.961,2.304,2.929,3.467
	c0.192,0.23,0.346,0.498,0.485,0.766c0.292,0.56,0.253,1.1-0.229,1.534c-0.472,0.424-1.04,0.453-1.566,0.146
	c-0.366-0.215-0.69-0.523-0.981-0.838c-1.794-1.934-3.563-3.892-5.37-5.813c-0.269-0.286-0.694-0.576-1.061-0.594
	c-2.505-0.117-5.013-0.163-7.521-0.224c-0.107-0.003-0.217,0.079-0.496,0.188c0.377,0.243,0.637,0.435,0.919,0.588
	c1.749,0.947,3.503,1.886,5.255,2.826c0.267,0.144,0.543,0.271,0.799,0.432c0.493,0.312,0.718,0.752,0.517,1.327
	c-0.175,0.501-0.794,0.783-1.408,0.614c-0.414-0.113-0.811-0.3-1.202-0.483c-2.028-0.957-4.052-1.924-6.215-2.952
	c0.187,0.321,0.303,0.571,0.463,0.788c1.981,2.678,3.988,5.337,5.94,8.036c0.479,0.662,1.004,0.895,1.817,0.971
	c2.193,0.205,4.384,0.516,6.464,1.304c0.56,0.212,1.134,0.459,1.606,0.814c0.669,0.504,0.759,1.332,0.338,1.972
	c-0.409,0.621-0.916,0.624-1.82,0.353c-1.559-0.468-3.157-0.805-4.739-1.196c-0.052,0.079-0.104,0.159-0.156,0.238
	c0.332,0.467,0.668,0.93,0.993,1.401c0.514,0.748,1.052,1.483,1.52,2.26c0.542,0.9,0.449,1.624-0.184,2.082
	c-0.631,0.457-1.398,0.376-2.092-0.356c-0.832-0.878-1.588-1.827-2.372-2.751c-0.384-0.453-0.754-0.918-1.264-1.539
	c-0.25,0.893-0.422,1.59-0.643,2.271c-0.159,0.49-0.337,0.985-0.592,1.431c-0.269,0.471-0.699,0.795-1.292,0.618
	c-0.563-0.168-0.84-0.604-0.834-1.178c0.003-0.43,0.065-0.86,0.13-1.287c0.228-1.495,0.493-2.985,0.685-4.485
	c0.044-0.344-0.043-0.791-0.242-1.065c-2.598-3.563-5.228-7.103-8.008-10.863c-0.067,0.546-0.145,0.855-0.135,1.162
	c0.083,2.725,0.181,5.447,0.273,8.171c0.01,0.303,0.039,0.607,0.015,0.908c-0.055,0.687-0.43,1.111-0.995,1.173
	c-0.527,0.056-1.099-0.307-1.225-0.944c-0.193-0.972-0.329-1.963-0.389-2.952c-0.105-1.727-0.134-3.458-0.199-5.187
	c-0.005-0.151-0.046-0.302-0.113-0.707c-2.323,3.352-4.503,6.496-6.711,9.681c1.503,2.311,2.258,4.928,3.099,7.509
	c0.309,0.948,0.085,1.53-0.634,1.859c-0.681,0.311-1.472,0.118-1.886-0.659c-0.689-1.294-1.263-2.649-1.867-3.987
	c-0.241-0.534-0.432-1.091-0.732-1.861c-0.559,0.791-0.934,1.412-1.399,1.957c-0.727,0.852-1.504,1.66-2.283,2.465
	c-0.206,0.213-0.481,0.368-0.746,0.511c-0.553,0.3-1.091,0.249-1.556-0.184c-0.487-0.454-0.484-1.026-0.186-1.547
	c0.473-0.823,1.024-1.603,1.539-2.402c0.201-0.311,0.392-0.628,0.685-1.1c-1.208,0-2.232,0.03-3.253-0.013
	c-0.508-0.021-1.061-0.079-1.499-0.305c-0.322-0.166-0.668-0.629-0.674-0.966s0.326-0.796,0.641-0.991
	c0.382-0.237,0.896-0.314,1.361-0.353c1.465-0.12,2.933-0.218,4.401-0.266c0.796-0.026,1.356-0.283,1.83-0.971
	c2.109-3.058,4.271-6.08,6.29-9.293c-0.206,0.064-0.426,0.103-0.616,0.199c-2.117,1.08-4.228,2.171-6.344,3.254
	c-0.229,0.117-0.469,0.231-0.718,0.29c-0.661,0.157-1.314-0.118-1.548-0.646c-0.272-0.616-0.027-1.111,0.46-1.478
	c0.412-0.31,0.861-0.582,1.321-0.815c2.39-1.214,4.79-2.408,7.183-3.615c0.399-0.201,0.785-0.43,1.176-0.645
	c-0.025-0.087-0.051-0.174-0.077-0.26c-3.855-0.224-7.711-0.447-11.277-0.654c-1.591,2.024-2.998,3.825-4.421,5.612
	C8.897,37.364,8.626,37.596,8.35,37.8c-0.64,0.471-1.291,0.493-1.796,0.098c-0.521-0.407-0.642-0.987-0.22-1.748
	c0.46-0.829,1.008-1.61,1.542-2.396c0.499-0.734,1.028-1.448,1.685-2.367c-1.079-0.039-1.887-0.045-2.69-0.106
	C6.313,31.236,5.733,31.194,5.221,31c-0.3-0.114-0.614-0.494-0.696-0.813c-0.128-0.5,0.284-0.826,0.726-0.909
	c0.846-0.157,1.708-0.225,2.564-0.326c0.207-0.024,0.415-0.036,0.857-0.074c-0.384-0.573-0.677-1.024-0.983-1.466
	c-0.543-0.78-1.113-1.544-1.638-2.336c-0.318-0.48-0.317-0.997,0.112-1.425c0.407-0.405,0.926-0.524,1.428-0.235
	c0.481,0.277,0.979,0.588,1.34,0.998c0.971,1.103,1.911,2.236,2.786,3.416c0.502,0.677,1.02,1.034,1.916,1.037
	c2.335,0.008,4.669,0.137,7.004,0.212c0.407,0.014,0.815,0.002,1.223,0.002c0.016-0.085,0.031-0.17,0.047-0.255
	c-0.624-0.346-1.263-0.668-1.869-1.043c-1.176-0.729-2.338-1.479-3.496-2.237c-0.287-0.188-0.591-0.397-0.782-0.671
	c-0.149-0.214-0.257-0.6-0.161-0.803c0.104-0.217,0.489-0.457,0.715-0.426c0.544,0.075,1.097,0.241,1.593,0.481
	c1.712,0.828,3.399,1.708,5.1,2.559c0.34,0.171,0.699,0.303,1.327,0.571c-0.266-0.453-0.382-0.694-0.538-0.908
	c-1.428-1.956-2.881-3.896-4.285-5.87c-0.432-0.606-0.894-0.936-1.675-0.986c-2.328-0.152-4.651-0.393-6.975-0.608
	c-0.298-0.027-0.6-0.087-0.885-0.18c-0.58-0.189-1.027-0.549-0.952-1.215c0.065-0.579,0.488-0.906,1.055-0.986
	c0.513-0.072,1.034-0.145,1.548-0.129c1.296,0.039,2.591,0.131,3.886,0.196c0.287,0.014,0.574,0.002,1.054,0.002
	c-0.288-0.467-0.472-0.787-0.678-1.093c-0.87-1.291-1.792-2.55-2.604-3.877c-0.468-0.767-0.79-1.629-1.119-2.47
	c-0.186-0.476-0.076-0.959,0.372-1.272c0.517-0.363,1.013-0.176,1.411,0.204c0.372,0.355,0.69,0.771,1,1.187
	c1.19,1.595,2.366,3.2,3.551,4.799c0.2,0.271,0.42,0.526,0.815,1.018c0.094-0.749,0.165-1.235,0.215-1.724
	c0.205-2.021,0.4-4.044,0.608-6.065c0.026-0.255,0.083-0.516,0.177-0.754c0.229-0.582,0.669-0.932,1.302-0.853
	c0.615,0.077,1.029,0.474,1.1,1.106c0.058,0.513,0.076,1.037,0.033,1.55c-0.262,3.146-0.559,6.288-0.81,9.435
	c-0.032,0.393,0.02,0.891,0.238,1.189c1.708,2.338,3.466,4.639,5.366,7.161c0.075-0.532,0.148-0.836,0.155-1.143
	c0.055-2.466,0.087-4.932,0.151-7.396c0.014-0.512,0.084-1.034,0.22-1.526c0.126-0.461,0.535-0.757,0.993-0.634
	c0.326,0.087,0.731,0.385,0.834,0.681c0.194,0.56,0.255,1.184,0.265,1.783c0.041,2.466,0.042,4.933,0.058,7.398
	c0.002,0.383,0,0.766,0,1.389c0.316-0.312,0.507-0.446,0.629-0.627c2.282-3.365,4.552-6.739,6.837-10.103
	c0.305-0.449,0.456-0.868,0.348-1.441c-0.109-0.585-0.005-1.207-0.029-1.812c-0.083-2.117-0.181-4.234-0.272-6.351
	c-0.051-1.179,0.224-1.7,0.967-1.849c0.824-0.164,1.512,0.367,1.73,1.521c0.208,1.101,0.277,2.228,0.378,3.346
	c0.042,0.465,0.007,0.937,0.007,1.708c0.402-0.46,0.633-0.681,0.814-0.938c0.725-1.023,1.431-2.061,2.151-3.088
	c0.223-0.318,0.441-0.646,0.709-0.926c0.506-0.526,1.141-0.652,1.64-0.377c0.515,0.284,0.737,0.864,0.41,1.595
	c-0.44,0.982-0.98,1.924-1.536,2.848C44.321,11.312,43.577,12.413,42.757,13.69z"/>
</svg>
