<?xml version="1.0" encoding="iso-8859-1"?>
<!-- Generator: Adobe Illustrator 21.0.0, SVG Export Plug-In . SVG Version: 6.00 Build 0)  -->
<svg xmlns="http://www.w3.org/2000/svg" xmlns:xlink="http://www.w3.org/1999/xlink" version="1.1" id="Capa_1" x="0px" y="0px" viewBox="0 0 512 512" style="enable-background:new 0 0 512 512;" xml:space="preserve" width="512" height="512">
<g>
	<path style="fill:#C9DFF7;" d="M472.402,363.507l-36.708-21.172l33.685-9.017c8.002-2.143,12.753-10.366,10.611-18.369   c-2.143-8.003-10.366-12.752-18.369-10.611l-62.704,16.785l-40.96-23.625l46.13-28.78c4.392-2.74,7.061-7.551,7.061-12.727   s-2.669-9.986-7.061-12.727l-46.116-28.77l37.556-21.662l65.312,17.482c1.3,0.348,2.604,0.514,3.889,0.514   c6.624,0,12.686-4.422,14.48-11.125c2.142-8.003-2.609-16.227-10.611-18.369l-36.292-9.714l40.098-23.127   c7.177-4.139,9.639-13.312,5.499-20.487c-4.139-7.178-13.314-9.641-20.487-5.499l-37.691,21.74l9.025-33.649   c2.146-8.001-2.6-16.228-10.602-18.374c-7.995-2.142-16.228,2.602-18.374,10.603l-16.794,62.614l-40.027,23.087l-1.883-54.303   c-0.18-5.17-3.01-9.882-7.488-12.47c-4.481-2.587-9.976-2.684-14.543-0.256l-48.048,25.539v-43.73L317.842,56.5   c5.86-5.855,5.865-15.353,0.011-21.214c-5.855-5.86-15.353-5.865-21.214-0.011L270.988,60.9V15c0-8.284-6.716-15-15-15   s-15,6.716-15,15v44.975l-25.627-25.602c-5.86-5.853-15.358-5.85-21.213,0.011c-5.855,5.861-5.851,15.358,0.01,21.213l46.83,46.785   v44.638l-48.017-25.522c-4.565-2.427-10.063-2.332-14.543,0.256c-4.479,2.588-7.309,7.3-7.488,12.469l-1.884,54.321l-39.248-22.637   l-16.798-62.629c-2.147-8.003-10.373-12.743-18.374-10.603c-8.002,2.146-12.748,10.373-10.603,18.374l9.029,33.664l-38.5-22.206   c-7.175-4.141-16.349-1.679-20.487,5.499c-4.14,7.176-1.678,16.349,5.499,20.487l39.322,22.68l-36.277,9.71   c-8.002,2.143-12.753,10.366-10.611,18.369c1.795,6.703,7.855,11.125,14.48,11.125c1.284,0,2.59-0.166,3.889-0.514l65.296-17.479   l38.346,22.118l-46.101,28.761c-4.392,2.74-7.061,7.551-7.061,12.727s2.669,9.986,7.061,12.727l46.115,28.771l-40.186,23.178   l-62.689-16.78c-8.007-2.143-16.226,2.608-18.369,10.611c-2.142,8.003,2.609,16.227,10.611,18.369l33.669,9.012l-37.497,21.627   c-7.177,4.139-9.639,13.312-5.499,20.487c2.777,4.816,7.82,7.509,13.007,7.509c2.543,0,5.12-0.647,7.48-2.01l38.417-22.158   l-9.728,36.269c-2.146,8.001,2.601,16.228,10.603,18.374c1.302,0.349,2.608,0.516,3.896,0.516c6.62,0,12.682-4.419,14.479-11.118   l17.497-65.235l39.331-22.685l1.883,54.304c0.18,5.169,3.01,9.881,7.488,12.469c4.48,2.586,9.975,2.684,14.543,0.256l48.017-25.522   v45.956l-46.83,46.783c-5.86,5.855-5.865,15.353-0.011,21.214c5.855,5.861,15.352,5.864,21.214,0.011l25.627-25.602V497   c0,8.284,6.716,15,15,15s15-6.716,15-15v-42.796l25.65,25.625c2.929,2.925,6.765,4.388,10.602,4.388   c3.841,0,7.683-1.467,10.611-4.398c5.855-5.861,5.85-15.358-0.01-21.213l-46.853-46.808v-46.851l48.048,25.539   c2.203,1.171,4.622,1.755,7.04,1.755c2.593,0,5.185-0.672,7.503-2.011c4.478-2.588,7.309-7.3,7.488-12.47l1.882-54.286   l38.547,22.233l17.493,65.219c1.798,6.7,7.857,11.118,14.479,11.118c1.287,0,2.594-0.167,3.896-0.516   c8.002-2.146,12.748-10.373,10.602-18.374l-9.724-36.254l39.172,22.594c2.36,1.362,4.938,2.01,7.48,2.01   c5.186,0,10.229-2.693,13.007-7.509C482.041,376.818,479.579,367.646,472.402,363.507z M367.809,255.991l-39.302,24.52L286.01,256   l42.511-24.519L367.809,255.991z M311.917,159.256l1.604,46.245l-42.532,24.532v-49.022L311.917,159.256z M200.09,159.256   l40.898,21.738v49.038l-42.503-24.514L200.09,159.256z M144.198,255.991l39.274-24.502L225.967,256l-42.482,24.502L144.198,255.991   z M200.09,352.727l-1.604-46.245l42.502-24.514v49.021L200.09,352.727z M311.917,352.727l-40.929-21.755v-49.005l42.532,24.531   L311.917,352.727z"/>
	<path style="fill:#9EBBDB;" d="M472.402,363.507l-36.708-21.172l33.685-9.017c8.002-2.143,12.753-10.366,10.611-18.369   c-2.143-8.003-10.366-12.752-18.369-10.611l-62.704,16.785l-40.96-23.625l46.13-28.78c4.392-2.74,7.061-7.551,7.061-12.727   s-2.669-9.986-7.061-12.727l-46.116-28.77l37.556-21.662l65.312,17.482c1.3,0.348,2.604,0.514,3.889,0.514   c6.624,0,12.686-4.422,14.48-11.125c2.142-8.003-2.609-16.227-10.611-18.369l-36.292-9.714l40.098-23.127   c7.177-4.139,9.639-13.312,5.499-20.487c-4.139-7.178-13.314-9.641-20.487-5.499l-37.691,21.74l9.025-33.649   c2.146-8.001-2.6-16.228-10.602-18.374c-7.995-2.142-16.228,2.602-18.374,10.603l-16.794,62.614l-40.027,23.087l-1.883-54.303   c-0.18-5.17-3.01-9.882-7.488-12.47c-4.481-2.587-9.976-2.684-14.543-0.256l-48.048,25.539v-43.73L317.842,56.5   c5.86-5.855,5.865-15.353,0.011-21.214c-5.855-5.86-15.353-5.865-21.214-0.011L270.988,60.9V15c0-8.279-6.708-14.991-14.984-14.999   v74.975v36.628v43.397v31.987v138.006v31.987v45.616v36.637v72.765c8.277-0.009,14.984-6.72,14.984-14.999v-42.796l25.65,25.625   c2.929,2.925,6.765,4.388,10.602,4.388c3.841,0,7.683-1.467,10.611-4.398c5.855-5.861,5.85-15.358-0.01-21.213l-46.853-46.808   v-46.851l48.048,25.539c2.203,1.171,4.622,1.755,7.04,1.755c2.593,0,5.185-0.672,7.503-2.011c4.478-2.588,7.309-7.3,7.488-12.47   l1.882-54.286l38.547,22.233l17.493,65.219c1.798,6.7,7.857,11.118,14.479,11.118c1.287,0,2.594-0.167,3.896-0.516   c8.002-2.146,12.748-10.373,10.602-18.374l-9.724-36.254l39.172,22.594c2.36,1.362,4.938,2.01,7.48,2.01   c5.186,0,10.229-2.693,13.007-7.509C482.041,376.818,479.579,367.646,472.402,363.507z M367.809,255.991l-39.302,24.52L286.01,256   l42.511-24.519L367.809,255.991z M311.917,159.256l1.604,46.245l-42.532,24.532v-49.022L311.917,159.256z M311.917,352.727   l-40.929-21.755v-49.005l42.532,24.531L311.917,352.727z"/>
</g>















</svg>
